<svg width="696" height="389" viewBox="0 0 696 389" fill="none" xmlns="http://www.w3.org/2000/svg">
<rect width="696" height="388.376" fill="#F2F2F2"/>
<path d="M484.453 301.165L314.446 324.877L256.733 292.665L325.183 238.979H518.901L484.453 301.165Z" fill="#D8E1DF"/>
<path d="M308.689 323.301L254.356 291.932V130.451L308.689 161.82V323.301Z" fill="white"/>
<path d="M308.688 323.297L397.212 273.434V111.953L308.688 161.817V323.297Z" fill="#CBDBD9"/>
<path d="M342.882 80.6211L254.356 130.45L308.689 161.819L397.212 111.955L342.882 80.6211Z" fill="#F8FCFB"/>
<path d="M342.578 86.0039L263.74 130.368L308.732 156.345L387.569 111.952L342.578 86.0039Z" fill="#D4E7E4"/>
<path d="M308.689 323.301L254.356 291.932V275.383L308.689 306.751V323.301Z" fill="#DAE1E0"/>
<path d="M308.688 323.3L397.212 273.436V256.887L308.688 306.75V323.3Z" fill="#A8C2BE"/>
<path d="M321.434 139.266L308.096 146.967L276.712 128.848L290.051 121.146L321.434 139.266Z" fill="white"/>
<path d="M317.903 139.263L307.941 145.058L279.858 128.844L289.821 123.049L317.903 139.263Z" fill="#DDEEEA"/>
<path d="M317.903 136.424L307.941 142.219L279.858 126.005L289.821 120.211L317.903 136.424Z" fill="white"/>
<path d="M308.096 146.964V149.06L276.712 130.941V128.844L308.096 146.964Z" fill="#DDEEEA"/>
<path d="M321.434 139.264L308.096 146.965V149.061L321.434 141.361V139.264Z" fill="#C9F4E8"/>
<path d="M279.858 126.006V128.847L307.941 145.061V142.22L279.858 126.006Z" fill="#DDEEEA"/>
<path d="M317.904 136.422V139.263L307.941 145.058V142.217L317.904 136.422Z" fill="#C9F4E8"/>
<path d="M342.514 127.556L329.177 135.257L297.793 117.137L311.131 109.438L342.514 127.556Z" fill="white"/>
<path d="M338.984 127.553L329.021 133.348L300.938 117.134L310.901 111.34L338.984 127.553Z" fill="#DDEEEA"/>
<path d="M338.984 124.716L329.021 130.511L300.938 114.297L310.901 108.502L338.984 124.716Z" fill="white"/>
<path d="M329.177 135.255V137.352L297.793 119.232V117.135L329.177 135.255Z" fill="#DDEEEA"/>
<path d="M342.514 127.555L329.177 135.256V137.353L342.514 129.652V127.555Z" fill="#C9F4E8"/>
<path d="M300.938 114.295V117.134L329.02 133.348V130.509L300.938 114.295Z" fill="#DDEEEA"/>
<path d="M338.984 124.717V127.556L329.021 133.352V130.512L338.984 124.717Z" fill="#C9F4E8"/>
<g opacity="0.5">
<path d="M320.881 177.445L316.002 180.264V168.778L320.881 165.961V177.445Z" fill="white"/>
<path d="M329.509 172.583L324.628 175.4V163.915L329.509 161.098V172.583Z" fill="white"/>
<path d="M338.135 167.692L333.256 170.51V159.025L338.135 156.207V167.692Z" fill="white"/>
<path d="M346.764 162.868L341.883 165.686V154.2L346.764 151.383V162.868Z" fill="white"/>
<path d="M355.392 158.001L350.511 160.818V149.333L355.392 146.516V158.001Z" fill="white"/>
<path d="M364.018 153.116L359.138 155.934V144.448L364.018 141.631V153.116Z" fill="white"/>
<path d="M372.645 148.212L367.765 151.029V139.544L372.645 136.727V148.212Z" fill="white"/>
<path d="M381.274 143.341L376.395 146.158V134.673L381.274 131.855V143.341Z" fill="white"/>
<path d="M389.901 138.529L385.02 141.346V129.863L389.901 127.045V138.529Z" fill="white"/>
<path d="M320.881 193.52L316.002 196.338V184.853L320.881 182.035V193.52Z" fill="white"/>
<path d="M329.509 188.658L324.628 191.477V179.991L329.509 177.174V188.658Z" fill="white"/>
<path d="M338.135 183.767L333.256 186.585V175.101L338.135 172.283V183.767Z" fill="white"/>
<path d="M346.764 178.943L341.883 181.76V170.277L346.764 167.459V178.943Z" fill="white"/>
<path d="M355.392 174.077L350.511 176.895V165.409L355.392 162.592V174.077Z" fill="white"/>
<path d="M364.018 169.188L359.138 172.006V160.521L364.018 157.703V169.188Z" fill="white"/>
<path d="M372.645 164.283L367.765 167.1V155.616L372.645 152.799V164.283Z" fill="white"/>
<path d="M381.274 159.417L376.395 162.235V150.749L381.274 147.932V159.417Z" fill="white"/>
<path d="M389.901 154.606L385.02 157.424V145.939L389.901 143.121V154.606Z" fill="white"/>
<path d="M320.881 209.597L316.002 212.414V200.929L320.881 198.111V209.597Z" fill="white"/>
<path d="M329.509 204.731L324.628 207.549V196.065L329.509 193.246V204.731Z" fill="white"/>
<path d="M338.135 199.845L333.256 202.662V191.177L338.135 188.359V199.845Z" fill="white"/>
<path d="M346.764 195.02L341.883 197.838V186.354L346.764 183.535V195.02Z" fill="white"/>
<path d="M355.392 190.148L350.511 192.966V181.482L355.392 178.664V190.148Z" fill="white"/>
<path d="M364.018 185.267L359.138 188.085V176.601L364.018 173.783V185.267Z" fill="white"/>
<path d="M372.645 180.36L367.765 183.178V171.693L372.645 168.875V180.36Z" fill="white"/>
<path d="M381.274 175.492L376.395 178.309V166.825L381.274 164.008V175.492Z" fill="white"/>
<path d="M389.901 170.681L385.02 173.5V162.015L389.901 159.197V170.681Z" fill="white"/>
<path d="M320.881 225.667L316.002 228.485V217.001L320.881 214.184V225.667Z" fill="white"/>
<path d="M329.509 220.802L324.628 223.619V212.134L329.509 209.316V220.802Z" fill="white"/>
<path d="M338.135 215.917L333.256 218.734V207.249L338.135 204.432V215.917Z" fill="white"/>
<path d="M346.764 211.091L341.883 213.908V202.423L346.764 199.605V211.091Z" fill="white"/>
<path d="M355.392 206.222L350.511 209.039V197.554L355.392 194.736V206.222Z" fill="white"/>
<path d="M364.018 201.335L359.138 204.152V192.667L364.018 189.85V201.335Z" fill="white"/>
<path d="M372.645 196.431L367.765 199.248V187.763L372.645 184.945V196.431Z" fill="white"/>
<path d="M381.274 191.559L376.395 194.377V182.892L381.274 180.074V191.559Z" fill="white"/>
<path d="M389.901 186.753L385.02 189.57V178.085L389.901 175.268V186.753Z" fill="white"/>
<path d="M320.881 241.794L316.002 244.611V233.126L320.881 230.309V241.794Z" fill="white"/>
<path d="M329.509 236.929L324.628 239.746V228.261L329.509 225.443V236.929Z" fill="white"/>
<path d="M338.135 232.038L333.256 234.856V223.37L338.135 220.553V232.038Z" fill="white"/>
<path d="M346.764 227.216L341.883 230.033V218.548L346.764 215.73V227.216Z" fill="white"/>
<path d="M355.392 222.345L350.511 225.163V213.679L355.392 210.861V222.345Z" fill="white"/>
<path d="M364.018 217.462L359.138 220.279V208.795L364.018 205.977V217.462Z" fill="white"/>
<path d="M372.645 212.558L367.765 215.375V203.89L372.645 201.072V212.558Z" fill="white"/>
<path d="M381.274 207.69L376.395 210.508V199.024L381.274 196.205V207.69Z" fill="white"/>
<path d="M389.901 202.878L385.02 205.696V194.212L389.901 191.395V202.878Z" fill="white"/>
<path d="M320.881 257.865L316.002 260.682V249.198L320.881 246.381V257.865Z" fill="white"/>
<path d="M329.509 252.999L324.628 255.816V244.331L329.509 241.514V252.999Z" fill="white"/>
<path d="M338.135 248.113L333.256 250.932V239.447L338.135 236.629V248.113Z" fill="white"/>
<path d="M346.764 243.29L341.883 246.108V234.622L346.764 231.805V243.29Z" fill="white"/>
<path d="M355.392 238.419L350.511 241.236V229.751L355.392 226.934V238.419Z" fill="white"/>
<path d="M364.018 233.536L359.138 236.354V224.868L364.018 222.051V233.536Z" fill="white"/>
<path d="M372.645 228.626L367.765 231.444V219.96L372.645 217.143V228.626Z" fill="white"/>
<path d="M381.274 223.763L376.395 226.58V215.095L381.274 212.277V223.763Z" fill="white"/>
<path d="M389.901 218.95L385.02 221.768V210.282L389.901 207.465V218.95Z" fill="white"/>
<path d="M320.881 273.942L316.002 276.76V265.275L320.881 262.457V273.942Z" fill="white"/>
<path d="M329.509 269.074L324.628 271.891V260.407L329.509 257.59V269.074Z" fill="white"/>
<path d="M338.135 264.189L333.256 267.007V255.523L338.135 252.705V264.189Z" fill="white"/>
<path d="M346.764 259.359L341.883 262.176V250.693L346.764 247.875V259.359Z" fill="white"/>
<path d="M355.392 254.492L350.511 257.311V245.825L355.392 243.008V254.492Z" fill="white"/>
<path d="M364.018 249.607L359.138 252.426V240.941L364.018 238.123V249.607Z" fill="white"/>
<path d="M372.645 244.7L367.765 247.518V236.032L372.645 233.215V244.7Z" fill="white"/>
<path d="M381.274 239.832L376.395 242.65V231.165L381.274 228.348V239.832Z" fill="white"/>
<path d="M389.901 235.026L385.02 237.844V226.359L389.901 223.541V235.026Z" fill="white"/>
<path d="M320.881 290.015L316.002 292.832V281.347L320.881 278.529V290.015Z" fill="white"/>
<path d="M329.509 285.147L324.628 287.965V276.48L329.509 273.662V285.147Z" fill="white"/>
<path d="M338.135 280.263L333.256 283.08V271.595L338.135 268.777V280.263Z" fill="white"/>
<path d="M346.764 275.436L341.883 278.254V266.769L346.764 263.951V275.436Z" fill="white"/>
<path d="M355.392 270.568L350.511 273.385V261.902L355.392 259.084V270.568Z" fill="white"/>
<path d="M364.018 265.679L359.138 268.497V257.013L364.018 254.195V265.679Z" fill="white"/>
<path d="M372.645 260.776L367.765 263.594V252.109L372.645 249.291V260.776Z" fill="white"/>
<path d="M381.274 255.905L376.395 258.723V247.238L381.274 244.42V255.905Z" fill="white"/>
<path d="M389.901 251.097L385.02 253.915V242.431L389.901 239.613V251.097Z" fill="white"/>
</g>
<path d="M269.503 176.158L290.216 188.117V160.498L269.503 148.539V176.158Z" fill="#E8F1F0"/>
<path d="M269.503 208.879L290.216 220.838V193.221L269.503 181.262V208.879Z" fill="#E8F1F0"/>
<path d="M269.503 241.064L290.216 253.023V225.404L269.503 213.445V241.064Z" fill="#E8F1F0"/>
<path d="M269.503 273.786L290.216 285.745V258.127L269.503 246.168V273.786Z" fill="#E8F1F0"/>
</svg>
