<svg width="696" height="389" viewBox="0 0 696 389" fill="none" xmlns="http://www.w3.org/2000/svg">
<rect width="696" height="388.376" fill="#F2F2F2"/>
<path d="M422.127 207.035L347.662 250.028V277.311L422.127 234.318V207.035Z" fill="#AAD5E0"/>
<path d="M274.327 207.686V235.075L347.661 277.413V250.025L274.327 207.686Z" fill="#DCF4FF"/>
<path d="M347.662 256.733L268 210.741V200.434L347.662 246.426V256.733Z" fill="white"/>
<path d="M347.662 256.627L427.323 210.634V200.434L347.662 246.426V256.627Z" fill="#C9E9F4"/>
<path d="M427.323 200.434L347.662 154.533L268 200.434L347.662 246.426L427.323 200.434Z" fill="#DCF4FF"/>
<path d="M274.327 190.67V200.977L347.661 243.315V233.008L274.327 190.67Z" fill="#7CCBED"/>
<path d="M422.127 190.016L347.662 233.007V243.207L422.127 200.215V190.016Z" fill="#61B4E2"/>
<path d="M347.662 234.421L268 188.429V178.123L347.662 224.116V234.421Z" fill="white"/>
<path d="M347.662 234.316L427.323 188.324V178.123L347.662 224.116V234.316Z" fill="#C9E9F4"/>
<path d="M427.323 178.121L347.662 132.221L268 178.121L347.662 224.114L427.323 178.121Z" fill="#DCF4FF"/>
<path d="M274.327 168.447V178.753L347.661 221.093V210.786L274.327 168.447Z" fill="#7CCBED"/>
<path d="M422.127 167.793L347.662 210.786V220.986L422.127 177.994V167.793Z" fill="#61B4E2"/>
<path d="M347.662 212.2L268 166.207V155.9L347.662 201.893V212.2Z" fill="white"/>
<path d="M347.662 212.094L427.323 166.101V155.9L347.662 201.893V212.094Z" fill="#C9E9F4"/>
<path d="M427.323 155.901L347.662 110L268 155.901L347.662 201.893L427.323 155.901Z" fill="#DCF4FF"/>
<path d="M419.989 155.906L347.843 114.336L275.695 155.906L347.843 197.56L419.989 155.906Z" fill="white"/>
<path d="M306.331 237.078L295.605 230.885V247.432L306.331 253.624V237.078Z" fill="#7CCBED"/>
<path d="M318.262 243.965L307.537 237.771V254.318L318.262 260.512V243.965Z" fill="#7CCBED"/>
<path d="M372.74 144.465V140.709L355.356 150.744V154.502L372.74 144.465Z" fill="#A5CCD6"/>
<path d="M372.74 140.708L355.356 130.691L337.974 140.708L355.356 150.743L372.74 140.708Z" fill="#DCF4FF"/>
<path d="M337.974 140.709V144.465L355.356 154.502V150.744L337.974 140.709Z" fill="#C9E9F4"/>
<path d="M368.906 140.437V137.51L355.356 145.333V148.26L368.906 140.437Z" fill="#A5CCD6"/>
<path d="M368.906 137.51L355.356 129.703L341.808 137.51L355.356 145.334L368.906 137.51Z" fill="#DCF4FF"/>
<path d="M341.808 137.51V140.437L355.356 148.26V145.333L341.808 137.51Z" fill="#C9E9F4"/>
<path d="M399.375 160.164V156.406L381.992 166.442V170.199L399.375 160.164Z" fill="#A5CCD6"/>
<path d="M399.375 156.406L381.993 146.391L364.609 156.406L381.993 166.441L399.375 156.406Z" fill="#DCF4FF"/>
<path d="M364.609 156.406V160.164L381.993 170.199V166.442L364.609 156.406Z" fill="#C9E9F4"/>
<path d="M395.541 156.138V153.209L381.993 161.032V163.961L395.541 156.138Z" fill="#A5CCD6"/>
<path d="M395.541 153.21L381.992 145.402L368.442 153.21L381.992 161.033L395.541 153.21Z" fill="#DCF4FF"/>
<path d="M368.442 153.209V156.138L381.992 163.961V161.032L368.442 153.209Z" fill="#C9E9F4"/>
</svg>
