<svg width="18" height="20" viewBox="0 0 18 20" fill="none" xmlns="http://www.w3.org/2000/svg">
<path fill-rule="evenodd" clip-rule="evenodd" d="M1.81967e-07 1.9125C-0.000109338 1.66132 0.0492842 1.41257 0.145358 1.18049C0.241431 0.948404 0.3823 0.737528 0.559914 0.559914C0.737528 0.3823 0.948404 0.241431 1.18049 0.145358C1.41257 0.0492842 1.66132 -0.000109338 1.9125 1.81729e-07H13.1142C13.6058 1.81729e-07 14.09 0.1875 14.4533 0.5475L16.8767 2.87417C17.2517 3.23583 17.455 3.735 17.455 4.2425V17.6875C17.4551 17.9388 17.4057 18.1876 17.3096 18.4197C17.2134 18.6518 17.0725 18.8628 16.8948 19.0404C16.7171 19.218 16.5061 19.3589 16.2739 19.4549C16.0418 19.5509 15.7929 19.6002 15.5417 19.6H1.91333C1.66208 19.6002 1.41325 19.5509 1.18107 19.4549C0.948885 19.3589 0.737911 19.218 0.560209 19.0404C0.382507 18.8628 0.241563 18.6518 0.145437 18.4197C0.0493117 18.1876 -0.00010944 17.9388 1.81967e-07 17.6875V1.9125ZM12.1358 8.465C12.0828 8.59282 11.993 8.70204 11.8779 8.77887C11.7628 8.8557 11.6276 8.89669 11.4892 8.89667H9.66333V14.1658C9.66333 14.4134 9.565 14.6508 9.38997 14.8258C9.21493 15.0008 8.97754 15.0992 8.73 15.0992C8.48247 15.0992 8.24507 15.0008 8.07003 14.8258C7.895 14.6508 7.79667 14.4134 7.79667 14.1658V8.89667H5.965C5.82679 8.89635 5.69176 8.85512 5.57695 8.77818C5.46213 8.70124 5.37266 8.59204 5.31981 8.46433C5.26696 8.33662 5.2531 8.19612 5.27998 8.06055C5.30685 7.92497 5.37326 7.80039 5.47083 7.7025L8.2325 4.94083C8.36374 4.8098 8.54163 4.7362 8.72708 4.7362C8.91254 4.7362 9.09042 4.8098 9.22167 4.94083L11.9833 7.7025C12.081 7.80047 12.1475 7.92518 12.1743 8.06089C12.2012 8.1966 12.1872 8.33722 12.1342 8.465H12.1358Z" fill="#8298A8"/>
</svg>
