<svg width="21" height="21" viewBox="0 0 21 21" fill="none" xmlns="http://www.w3.org/2000/svg">
<path d="M18.7688 9.82422H17.5525C17.3935 8.17009 16.664 6.62281 15.4889 5.44778C14.3139 4.27274 12.7666 3.54318 11.1125 3.38422V2.16797C11.1125 1.99392 11.0434 1.827 10.9203 1.70393C10.7972 1.58086 10.6303 1.51172 10.4563 1.51172C10.2822 1.51172 10.1153 1.58086 9.99221 1.70393C9.86914 1.827 9.8 1.99392 9.8 2.16797V3.38422C8.15311 3.55113 6.61518 4.28439 5.44869 5.45886C4.28219 6.63334 3.55943 8.17623 3.40375 9.82422H2.1875C2.10132 9.82422 2.01598 9.84119 1.93636 9.87417C1.85674 9.90715 1.7844 9.95549 1.72346 10.0164C1.66252 10.0774 1.61418 10.1497 1.5812 10.2293C1.54822 10.309 1.53125 10.3943 1.53125 10.4805C1.53125 10.5666 1.54822 10.652 1.5812 10.7316C1.61418 10.8112 1.66252 10.8836 1.72346 10.9445C1.7844 11.0054 1.85674 11.0538 1.93636 11.0868C2.01598 11.1197 2.10132 11.1367 2.1875 11.1367H3.40375C3.56271 12.7908 4.29228 14.3381 5.46731 15.5132C6.64234 16.6882 8.18962 17.4178 9.84375 17.5767V18.793C9.84375 18.967 9.91289 19.1339 10.036 19.257C10.159 19.3801 10.326 19.4492 10.5 19.4492C10.674 19.4492 10.841 19.3801 10.964 19.257C11.0871 19.1339 11.1562 18.967 11.1562 18.793V17.5767C12.8098 17.4161 14.3561 16.686 15.5309 15.5113C16.7056 14.3366 17.4357 12.7902 17.5963 11.1367H18.8125C18.8987 11.1367 18.984 11.1197 19.0636 11.0868C19.1433 11.0538 19.2156 11.0054 19.2765 10.9445C19.3375 10.8836 19.3858 10.8112 19.4188 10.7316C19.4518 10.652 19.4688 10.5666 19.4688 10.4805C19.4688 10.3943 19.4518 10.309 19.4188 10.2293C19.3858 10.1497 19.3375 10.0774 19.2765 10.0164C19.2156 9.95549 19.1433 9.90715 19.0636 9.87417C18.984 9.84119 18.8987 9.82422 18.8125 9.82422H18.7688ZM10.4563 16.2905C9.30714 16.2905 8.18384 15.9497 7.22839 15.3113C6.27294 14.6729 5.52825 13.7655 5.08851 12.7039C4.64876 11.6422 4.53371 10.474 4.75789 9.34699C4.98207 8.21996 5.53542 7.18472 6.34796 6.37218C7.1605 5.55963 8.19575 5.00629 9.32277 4.78211C10.4498 4.55793 11.618 4.67298 12.6796 5.11273C13.7413 5.55247 14.6487 6.29716 15.2871 7.25261C15.9255 8.20806 16.2663 9.33136 16.2663 10.4805C16.2663 12.0222 15.6544 13.5009 14.5651 14.5919C13.4757 15.6828 11.998 16.2969 10.4563 16.2992V16.2905Z" fill="#30CEA1"/>
<path d="M14.42 10.4881C14.42 11.2742 14.1868 12.0426 13.7499 12.696C13.313 13.3495 12.6921 13.8587 11.9657 14.1591C11.2393 14.4595 10.4401 14.5376 9.66929 14.3837C8.89846 14.2297 8.19065 13.8504 7.63543 13.294C7.08022 12.7376 6.70256 12.0289 6.55027 11.2578C6.39798 10.4866 6.4779 9.68758 6.77991 8.96185C7.08192 8.23613 7.59245 7.61631 8.24688 7.18086C8.9013 6.74541 9.6702 6.5139 10.4563 6.51563C10.9775 6.51563 11.4937 6.61845 11.9751 6.81819C12.4566 7.01794 12.894 7.31069 13.2622 7.67968C13.6303 8.04868 13.9221 8.48667 14.1208 8.96859C14.3195 9.4505 14.4212 9.96687 14.42 10.4881Z" fill="#30CEA1"/>
</svg>
