<svg width="56" height="56" viewBox="0 0 56 56" fill="none" xmlns="http://www.w3.org/2000/svg">
<path d="M14.0007 51.333C12.7173 51.333 11.6191 50.8764 10.706 49.9633C9.79287 49.0502 9.33554 47.9512 9.33398 46.6663V23.333C9.33398 22.0497 9.79132 20.9515 10.706 20.0383C11.6207 19.1252 12.7189 18.6679 14.0007 18.6663H16.334V13.9997C16.334 10.7719 17.4719 8.0209 19.7477 5.74668C22.0234 3.47245 24.7744 2.33456 28.0007 2.33301C31.2269 2.33145 33.9787 3.46934 36.256 5.74668C38.5333 8.02401 39.6704 10.775 39.6673 13.9997V18.6663H42.0006C43.284 18.6663 44.383 19.1237 45.2976 20.0383C46.2123 20.953 46.6689 22.0512 46.6673 23.333V46.6663C46.6673 47.9497 46.2108 49.0487 45.2976 49.9633C44.3845 50.878 43.2855 51.3346 42.0006 51.333H14.0007ZM28.0007 39.6663C29.284 39.6663 30.383 39.2098 31.2977 38.2967C32.2123 37.3836 32.6689 36.2846 32.6673 34.9997C32.6658 33.7148 32.2092 32.6166 31.2977 31.705C30.3861 30.7935 29.2871 30.3361 28.0007 30.333C26.7142 30.3299 25.616 30.7872 24.706 31.705C23.796 32.6228 23.3387 33.721 23.334 34.9997C23.3293 36.2783 23.7867 37.3773 24.706 38.2967C25.6253 39.216 26.7235 39.6726 28.0007 39.6663ZM21.0007 18.6663H35.0007V13.9997C35.0007 12.0552 34.3201 10.4025 32.959 9.04134C31.5979 7.68023 29.9451 6.99968 28.0007 6.99968C26.0562 6.99968 24.4034 7.68023 23.0423 9.04134C21.6812 10.4025 21.0007 12.0552 21.0007 13.9997V18.6663Z" fill="#ACEBD9"/>
</svg>
