<svg width="20" height="20" viewBox="0 0 20 20" fill="none" xmlns="http://www.w3.org/2000/svg">
<path fill-rule="evenodd" clip-rule="evenodd" d="M9.6806 6.71671e-06C12.0456 -0.000338409 14.3301 0.858944 16.1086 2.41781C17.8872 3.97668 19.0385 6.12886 19.3481 8.47351C19.3672 8.62006 19.3573 8.76894 19.3188 8.91166C19.2804 9.05437 19.2142 9.18811 19.1241 9.30525C19.034 9.42239 18.9217 9.52064 18.7936 9.59438C18.6655 9.66811 18.5242 9.7159 18.3776 9.73501C18.2311 9.75411 18.0822 9.74417 17.9395 9.70574C17.7967 9.6673 17.663 9.60114 17.5459 9.51102C17.4287 9.4209 17.3305 9.30859 17.2567 9.18051C17.183 9.05242 17.1352 8.91106 17.1161 8.76451C16.9308 7.37146 16.3579 6.05849 15.4627 4.97519C14.5675 3.8919 13.386 3.08185 12.0528 2.63736C10.7196 2.19286 9.28841 2.1318 7.92222 2.46112C6.55604 2.79044 5.30983 3.4969 4.3256 4.50001H6.3056C6.60397 4.50001 6.89012 4.61853 7.1011 4.82951C7.31208 5.04049 7.4306 5.32664 7.4306 5.62501C7.4306 5.92338 7.31208 6.20952 7.1011 6.4205C6.89012 6.63148 6.60397 6.75001 6.3056 6.75001H1.8056C1.50724 6.75001 1.22109 6.63148 1.01011 6.4205C0.79913 6.20952 0.680604 5.92338 0.680604 5.62501V1.12501C0.680604 0.97727 0.709703 0.830979 0.76624 0.694488C0.822776 0.557997 0.905643 0.433978 1.01011 0.329512C1.11457 0.225046 1.23859 0.142179 1.37509 0.0856421C1.51158 0.0291056 1.65787 6.71671e-06 1.8056 6.71671e-06C1.95334 6.71671e-06 2.09963 0.0291056 2.23612 0.0856421C2.37261 0.142179 2.49663 0.225046 2.6011 0.329512C2.70557 0.433978 2.78843 0.557997 2.84497 0.694488C2.90151 0.830979 2.9306 0.97727 2.9306 1.12501V2.71501C4.74429 0.970301 7.16397 -0.0029499 9.6806 6.71671e-06ZM17.5556 19.5C17.854 19.5 18.1401 19.3815 18.3511 19.1705C18.5621 18.9595 18.6806 18.6734 18.6806 18.375V13.875C18.6806 13.5766 18.5621 13.2905 18.3511 13.0795C18.1401 12.8685 17.854 12.75 17.5556 12.75H13.0556C12.7572 12.75 12.4711 12.8685 12.2601 13.0795C12.0491 13.2905 11.9306 13.5766 11.9306 13.875C11.9306 14.1734 12.0491 14.4595 12.2601 14.6705C12.4711 14.8815 12.7572 15 13.0556 15H15.0356C14.0514 16.0036 12.8051 16.7104 11.4387 17.04C10.0723 17.3696 8.64079 17.3086 7.30734 16.8641C5.97389 16.4195 4.79216 15.6093 3.89686 14.5257C3.00156 13.4422 2.42871 12.1289 2.2436 10.7355C2.22764 10.5864 2.18204 10.4421 2.10949 10.3109C2.03694 10.1797 1.9389 10.0643 1.82113 9.97154C1.70336 9.87877 1.56823 9.81048 1.4237 9.77067C1.27916 9.73087 1.12812 9.72036 0.979462 9.73975C0.830802 9.75915 0.687519 9.80806 0.558031 9.88361C0.428543 9.95917 0.315462 10.0598 0.225433 10.1797C0.135405 10.2996 0.0702449 10.4363 0.0337819 10.5817C-0.00268107 10.7271 -0.00971146 10.8783 0.0131041 11.0265C0.249254 12.8134 0.97601 14.4998 2.11268 15.8986C3.24935 17.2974 4.75145 18.3538 6.4522 18.9505C8.15296 19.5472 9.98581 19.6608 11.7473 19.2788C13.5087 18.8968 15.1298 18.0341 16.4306 16.7865V18.375C16.4306 18.996 16.9346 19.5 17.5556 19.5Z" fill="#30CEA1"/>
</svg>
