<svg width="63" height="68" viewBox="0 0 63 68" fill="none" xmlns="http://www.w3.org/2000/svg">
<g filter="url(#filter0_d_2798_14010)">
<mask id="path-1-inside-1_2798_14010" fill="white">
<path d="M31.5 12C42.2696 12 51 20.7304 51 31.5C51 40.3196 45.1446 47.771 37.1094 50.1804C36.9173 50.238 36.7445 50.3487 36.6156 50.5023L32.7658 55.0879C32.3662 55.5638 31.6338 55.5639 31.2341 55.088L27.667 50.8401C27.5233 50.6691 27.3258 50.5518 27.1081 50.5017C18.4538 48.5096 12 40.7592 12 31.5C12 20.7304 20.7304 12 31.5 12Z"/>
</mask>
<path d="M31.5 12C42.2696 12 51 20.7304 51 31.5C51 40.3196 45.1446 47.771 37.1094 50.1804C36.9173 50.238 36.7445 50.3487 36.6156 50.5023L32.7658 55.0879C32.3662 55.5638 31.6338 55.5639 31.2341 55.088L27.667 50.8401C27.5233 50.6691 27.3258 50.5518 27.1081 50.5017C18.4538 48.5096 12 40.7592 12 31.5C12 20.7304 20.7304 12 31.5 12Z" fill="#745BCD"/>
<path d="M27.667 50.8401L26.9012 51.4832L27.667 50.8401ZM27.1081 50.5017L27.3324 49.5272L27.1081 50.5017ZM32.7658 55.0879L31.9999 54.4449L32.7658 55.0879ZM31.2341 55.088L31.9999 54.4449L31.2341 55.088ZM37.1094 50.1804L37.3966 51.1383L37.1094 50.1804ZM36.6156 50.5023L37.3815 51.1452L36.6156 50.5023ZM31.5 12V13C41.7173 13 50 21.2827 50 31.5H51H52C52 20.1782 42.8218 11 31.5 11V12ZM51 31.5H50C50 39.8658 44.4461 46.9365 36.8221 49.2226L37.1094 50.1804L37.3966 51.1383C45.8431 48.6056 52 40.7734 52 31.5H51ZM36.6156 50.5023L35.8498 49.8593L31.9999 54.4449L32.7658 55.0879L33.5317 55.7309L37.3815 51.1452L36.6156 50.5023ZM31.2341 55.088L31.9999 54.4449L28.4328 50.197L27.667 50.8401L26.9012 51.4832L30.4683 55.731L31.2341 55.088ZM27.1081 50.5017L27.3324 49.5272C19.1219 47.6372 13 40.283 13 31.5H12H11C11 41.2355 17.7856 49.3819 26.8838 51.4762L27.1081 50.5017ZM12 31.5H13C13 21.2827 21.2827 13 31.5 13V12V11C20.1782 11 11 20.1782 11 31.5H12ZM27.667 50.8401L28.4328 50.197C28.1431 49.8521 27.752 49.6238 27.3324 49.5272L27.1081 50.5017L26.8838 51.4762C26.8911 51.4779 26.8963 51.4803 26.8993 51.4821C26.9021 51.4839 26.9023 51.4846 26.9012 51.4832L27.667 50.8401ZM32.7658 55.0879L31.9999 54.4449V54.4449L31.2341 55.088L30.4683 55.731C31.2676 56.6829 32.7324 56.6828 33.5317 55.7309L32.7658 55.0879ZM37.1094 50.1804L36.8221 49.2226C36.4517 49.3337 36.1096 49.5497 35.8498 49.8593L36.6156 50.5023L37.3815 51.1452C37.3795 51.1477 37.383 51.1424 37.3966 51.1383L37.1094 50.1804Z" fill="white" mask="url(#path-1-inside-1_2798_14010)"/>
</g>
<circle cx="31.5" cy="62.4448" r="3.5" fill="#745BCD" stroke="white"/>
<path d="M28.3531 36.25H30.7281V35.4583H29.1447V34.6667H30.7281V32.2917H28.3531V33.0833H29.9364V33.875H28.3531V36.25ZM33.8947 36.25H34.6864V32.2917H33.8947V33.875H33.1031V32.2917H32.3114V34.6667H33.8947V36.25ZM38.6447 30.7479V37.0417C38.6447 37.4771 38.4898 37.85 38.18 38.1603C37.8702 38.4706 37.4974 38.6255 37.0614 38.625H25.9781C25.5427 38.625 25.17 38.4701 24.8602 38.1603C24.5504 37.8505 24.3953 37.4776 24.3947 37.0417V30.7479C24.0913 30.4708 23.8572 30.1146 23.6925 29.6792C23.5279 29.2437 23.5244 28.7687 23.6822 28.2542L24.5135 25.5625C24.619 25.2194 24.8072 24.9358 25.078 24.7115C25.3487 24.4872 25.6619 24.375 26.0177 24.375H37.0218C37.3781 24.375 37.6881 24.484 37.952 24.702C38.2159 24.9199 38.4072 25.2068 38.526 25.5625L39.3572 28.2542C39.5156 28.7687 39.5124 29.2372 39.3477 29.6594C39.1831 30.0816 38.9487 30.4444 38.6447 30.7479ZM33.2614 29.9167C33.6177 29.9167 33.8881 29.7947 34.0729 29.5509C34.2576 29.3071 34.3302 29.0332 34.2906 28.7292L33.8552 25.9583H32.3114V28.8875C32.3114 29.1646 32.4038 29.4055 32.5885 29.6103C32.7732 29.8151 32.9975 29.9172 33.2614 29.9167ZM29.6989 29.9167C30.0024 29.9167 30.2499 29.8143 30.4415 29.6095C30.6331 29.4047 30.7286 29.1641 30.7281 28.8875V25.9583H29.1843L28.7489 28.7292C28.6961 29.0458 28.7653 29.3229 28.9563 29.5604C29.1474 29.7979 29.3949 29.9167 29.6989 29.9167ZM26.176 29.9167C26.4135 29.9167 26.6212 29.8309 26.799 29.6594C26.9769 29.4878 27.0859 29.2701 27.126 29.0062L27.5614 25.9583H26.0177L25.226 28.6104C25.1468 28.8743 25.1896 29.158 25.3542 29.4615C25.5189 29.7649 25.7928 29.9167 26.176 29.9167ZM36.8635 29.9167C37.2461 29.9167 37.5232 29.7649 37.6947 29.4615C37.8663 29.158 37.9059 28.8743 37.8135 28.6104L36.9822 25.9583H35.4781L35.9135 29.0062C35.9531 29.2701 36.0621 29.4878 36.2404 29.6594C36.4188 29.8309 36.6265 29.9167 36.8635 29.9167Z" fill="white"/>
<defs>
<filter id="filter0_d_2798_14010" x="0" y="0" width="63" height="67.4448" filterUnits="userSpaceOnUse" color-interpolation-filters="sRGB">
<feFlood flood-opacity="0" result="BackgroundImageFix"/>
<feColorMatrix in="SourceAlpha" type="matrix" values="0 0 0 0 0 0 0 0 0 0 0 0 0 0 0 0 0 0 127 0" result="hardAlpha"/>
<feMorphology radius="1" operator="dilate" in="SourceAlpha" result="effect1_dropShadow_2798_14010"/>
<feOffset/>
<feGaussianBlur stdDeviation="5.5"/>
<feComposite in2="hardAlpha" operator="out"/>
<feColorMatrix type="matrix" values="0 0 0 0 0.454902 0 0 0 0 0.356863 0 0 0 0 0.803922 0 0 0 1 0"/>
<feBlend mode="normal" in2="BackgroundImageFix" result="effect1_dropShadow_2798_14010"/>
<feBlend mode="normal" in="SourceGraphic" in2="effect1_dropShadow_2798_14010" result="shape"/>
</filter>
</defs>
</svg>
