<svg width="28" height="27" viewBox="0 0 28 27" fill="none" xmlns="http://www.w3.org/2000/svg">
<path d="M0 3.11564C0 1.40891 1.46109 0 3.23103 0H24.769C26.5389 0 28 1.40891 28 3.11564V12.5575C27.9947 13.382 27.6525 14.1713 27.0476 14.7543C26.4428 15.3372 25.6241 15.6667 24.769 15.6715H3.23103C2.37562 15.6667 1.55664 15.337 0.951761 14.7537C0.346884 14.1704 0.00489964 13.3807 0 12.5558V3.11564ZM20.5588 13.2169V10.6675C20.5537 10.4937 20.4798 10.3284 20.3523 10.2055C20.2248 10.0825 20.0534 10.0113 19.8732 10.0064H8.12679C7.94688 10.0117 7.77589 10.0831 7.64877 10.206C7.52166 10.3289 7.44802 10.494 7.44291 10.6675V13.2169H20.5588ZM8.12509 17.9345C8.46264 17.9345 8.78636 18.0638 9.02504 18.294C9.26373 18.5242 9.39782 18.8363 9.39782 19.1618C9.39782 20.1845 9.37406 21.6 8.88024 22.77C8.61574 23.4372 8.15735 24.0167 7.56 24.4391C6.90158 24.8924 6.10061 25.11 5.18933 25.11C4.85179 25.11 4.52806 24.9807 4.28938 24.7505C4.0507 24.5204 3.91661 24.2082 3.91661 23.8827C3.91661 23.5572 4.0507 23.2451 4.28938 23.0149C4.52806 22.7848 4.85179 22.6555 5.18933 22.6555C5.66958 22.6555 5.93091 22.5458 6.08364 22.4411C6.24315 22.3315 6.39418 22.1515 6.52145 21.8471C6.80145 21.1827 6.85236 20.2369 6.85236 19.1635C6.85236 18.838 6.98645 18.5258 7.22514 18.2956C7.46382 18.0655 7.78754 17.9362 8.12509 17.9362M14 17.9362C14.3375 17.9362 14.6613 18.0655 14.9 18.2956C15.1386 18.5258 15.2727 18.838 15.2727 19.1635V25.7727C15.2727 26.0982 15.1386 26.4104 14.9 26.6405C14.6613 26.8707 14.3375 27 14 27C13.6625 27 13.3387 26.8707 13.1 26.6405C12.8614 26.4104 12.7273 26.0982 12.7273 25.7727V19.1635C12.7273 18.838 12.8614 18.5258 13.1 18.2956C13.3387 18.0655 13.6625 17.9362 14 17.9362ZM19.8732 17.9362C20.2108 17.9362 20.5345 18.0655 20.7732 18.2956C21.0118 18.5258 21.1459 18.838 21.1459 19.1635C21.1459 20.2385 21.1968 21.1844 21.4785 21.8487C21.6058 22.1531 21.7569 22.3331 21.9164 22.4427C22.0691 22.5475 22.3304 22.6571 22.8107 22.6571C23.1482 22.6571 23.4719 22.7864 23.7106 23.0166C23.9493 23.2467 24.0834 23.5589 24.0834 23.8844C24.0834 24.2099 23.9493 24.522 23.7106 24.7522C23.4719 24.9823 23.1482 25.1116 22.8107 25.1116C21.8994 25.1116 21.0967 24.894 20.44 24.4407C19.8427 24.0183 19.3843 23.4388 19.1198 22.7716C18.6276 21.6016 18.6005 20.1862 18.6005 19.1635C18.6005 18.838 18.7346 18.5258 18.9733 18.2956C19.2119 18.0655 19.5357 17.9362 19.8732 17.9362Z" fill="#8298A8"/>
</svg>
