<svg width="25" height="20" viewBox="0 0 25 20" fill="none" xmlns="http://www.w3.org/2000/svg">
<path d="M10.0006 1.25C10.0006 0.918479 10.1323 0.600537 10.3667 0.366117C10.6011 0.131696 10.919 0 11.2506 0H14.5181C15.2815 3.21599e-05 16.0267 0.233068 16.6542 0.667965C17.2816 1.10286 17.7614 1.7189 18.0293 2.43375L20.8968 10.08C22.09 10.2977 23.1634 10.9417 23.9172 11.8919C24.671 12.8421 25.0538 14.0339 24.9943 15.2453C24.9348 16.4568 24.4371 17.6053 23.5938 18.4771C22.7505 19.3489 21.6192 19.8846 20.4104 19.9843C19.2016 20.0841 17.9977 19.7412 17.023 19.0194C16.0482 18.2976 15.3689 17.2462 15.1116 16.0609C14.8543 14.8756 15.0365 13.6372 15.6243 12.5763C16.2121 11.5153 17.1655 10.7041 18.3068 10.2937L17.7281 8.75L9.01307 12.0175C9.68439 12.9208 10.0313 14.0241 9.99778 15.1491C9.96422 16.274 9.55213 17.3547 8.82816 18.2164C8.10418 19.0781 7.11068 19.6703 6.00837 19.8973C4.90606 20.1242 3.75941 19.9727 2.75392 19.4671C1.74843 18.9616 0.942909 18.1315 0.467666 17.1114C-0.00757793 16.0912 -0.124747 14.9405 0.135114 13.8455C0.394975 12.7505 1.01667 11.7752 1.89962 11.0773C2.78257 10.3794 3.87513 9.99987 5.00057 10H5.02807L3.63932 7.5H2.50057C2.16905 7.5 1.85111 7.3683 1.61669 7.13388C1.38227 6.89946 1.25057 6.58152 1.25057 6.25C1.25057 5.91848 1.38227 5.60054 1.61669 5.36612C1.85111 5.1317 2.16905 5 2.50057 5H7.50057C7.83209 5 8.15003 5.1317 8.38445 5.36612C8.61887 5.60054 8.75057 5.91848 8.75057 6.25C8.75057 6.58152 8.61887 6.89946 8.38445 7.13388C8.15003 7.3683 7.83209 7.5 7.50057 7.5H6.50057L7.78307 9.80875L16.8506 6.40875L15.6881 3.31125C15.5988 3.07303 15.4389 2.86773 15.2299 2.72277C15.0208 2.57781 14.7725 2.5001 14.5181 2.5H11.2506C10.919 2.5 10.6011 2.3683 10.3667 2.13388C10.1323 1.89946 10.0006 1.58152 10.0006 1.25Z" fill="#8298A8"/>
</svg>
