<svg width="22" height="20" viewBox="0 0 22 20" fill="none" xmlns="http://www.w3.org/2000/svg">
<path d="M1 1H16V9.75C16 11.0761 15.4732 12.3479 14.5355 13.2855C13.5979 14.2232 12.3261 14.75 11 14.75H6C4.67392 14.75 3.40215 14.2232 2.46447 13.2855C1.52678 12.3479 1 11.0761 1 9.75V1Z" fill="#8298A8"/>
<path d="M16 1H1V9.75C1 11.0761 1.52678 12.3479 2.46447 13.2855C3.40215 14.2232 4.67392 14.75 6 14.75H11C12.3261 14.75 13.5979 14.2232 14.5355 13.2855C15.4732 12.3479 16 11.0761 16 9.75V1ZM16 1H18.5C19.163 1 19.7989 1.26339 20.2678 1.73223C20.7366 2.20107 21 2.83696 21 3.5V8.5M1 18.5H18.5" stroke="#8298A8" stroke-width="2" stroke-linecap="round" stroke-linejoin="round"/>
</svg>
