<svg width="28" height="23" viewBox="0 0 28 23" fill="none" xmlns="http://www.w3.org/2000/svg">
<path d="M14.0014 2.87373C13.6228 2.87365 13.2519 2.97665 12.9319 3.17075C12.612 3.36485 12.3561 3.64206 12.194 3.97014C12.0198 4.30864 11.7138 4.56787 11.3419 4.69186C10.97 4.81584 10.5622 4.79463 10.2065 4.63281C9.85083 4.47098 9.57579 4.18152 9.4408 3.82694C9.3058 3.47235 9.32169 3.08109 9.48502 2.73764C9.81949 2.06186 10.3143 1.47053 10.9299 1.01099C11.5455 0.551443 12.2648 0.236443 13.0301 0.0912025C13.7955 -0.0540383 14.5857 -0.0254871 15.3374 0.174571C16.0892 0.374629 16.7817 0.740637 17.3595 1.2433C17.9372 1.74596 18.3842 2.37132 18.6647 3.06932C18.9452 3.76732 19.0513 4.51858 18.9746 5.26296C18.8979 6.00734 18.6406 6.72418 18.2231 7.35609C17.8056 7.988 17.2396 8.51744 16.5705 8.90203C16.2505 9.07766 15.9605 9.2994 15.7108 9.55949C15.5229 9.77033 15.5009 9.89684 15.5009 9.95434C15.5009 10.0885 15.5768 10.215 15.7008 10.2802L25.9131 15.72C26.6986 16.1374 27.3171 16.7932 27.6714 17.5844C28.0257 18.3755 28.0958 19.2571 27.8705 20.0906C27.6453 20.924 27.1376 21.6621 26.4271 22.1887C25.7167 22.7154 24.8439 23.0008 23.9458 23H4.04897C3.15209 22.9997 2.28068 22.714 1.57141 22.1877C0.862138 21.6614 0.355112 20.9243 0.129846 20.092C-0.0954208 19.2597 -0.0261875 18.3792 0.326688 17.5887C0.679564 16.7981 1.29612 16.1423 2.07968 15.7239L9.77492 11.6219C9.94734 11.5249 10.1383 11.4619 10.3365 11.4366C10.5346 11.4113 10.7361 11.4243 10.929 11.4748C11.1219 11.5253 11.3023 11.6123 11.4596 11.7306C11.6169 11.8489 11.7479 11.9962 11.845 12.1637C11.9421 12.3313 12.0032 12.5158 12.0248 12.7064C12.0464 12.897 12.028 13.0898 11.9707 13.2734C11.9135 13.4571 11.8185 13.6279 11.6913 13.7758C11.5642 13.9238 11.4075 14.0458 11.2304 14.1349L3.53716 18.2368C3.33262 18.3446 3.17143 18.5148 3.07906 18.7203C2.98669 18.9259 2.96842 19.155 3.02713 19.3717C3.08585 19.5883 3.21821 19.7799 3.40327 19.9163C3.58833 20.0527 3.81555 20.1261 4.04897 20.1248H23.9458C24.179 20.1252 24.4058 20.0513 24.5903 19.9146C24.7749 19.778 24.9069 19.5864 24.9655 19.37C25.0241 19.1536 25.006 18.9246 24.9141 18.7191C24.8222 18.5136 24.6616 18.3433 24.4576 18.2349L14.2413 12.7931C13.7145 12.511 13.2756 12.0995 12.9695 11.601C12.6635 11.1024 12.5014 10.5347 12.4999 9.95626C12.4999 9.01512 12.9298 8.25415 13.4196 7.7002C13.8994 7.15392 14.4992 6.73798 15.025 6.43512C15.4001 6.21986 15.6912 5.89269 15.8538 5.5037C16.0165 5.1147 16.0417 4.68532 15.9255 4.2813C15.8094 3.87728 15.5584 3.52087 15.2109 3.26666C14.8634 3.01244 14.4385 2.87442 14.0014 2.87373Z" fill="#8298A8"/>
</svg>
