<svg width="36" height="19" viewBox="0 0 36 19" fill="none" xmlns="http://www.w3.org/2000/svg">
<path d="M34.875 0H1.125C0.826631 0 0.540483 0.117752 0.329505 0.327351C0.118526 0.536951 0 0.821229 0 1.11765C0 1.41407 0.118526 1.69834 0.329505 1.90794C0.540483 2.11754 0.826631 2.23529 1.125 2.23529H2.25V17.8824C2.25 18.1788 2.36853 18.4631 2.5795 18.6726C2.79048 18.8822 3.07663 19 3.375 19C3.67337 19 3.95952 18.8822 4.1705 18.6726C4.38147 18.4631 4.5 18.1788 4.5 17.8824V11.1765H31.5V17.8824C31.5 18.1788 31.6185 18.4631 31.8295 18.6726C32.0405 18.8822 32.3266 19 32.625 19C32.9234 19 33.2095 18.8822 33.4205 18.6726C33.6315 18.4631 33.75 18.1788 33.75 17.8824V2.23529H34.875C35.1734 2.23529 35.4595 2.11754 35.6705 1.90794C35.8815 1.69834 36 1.41407 36 1.11765C36 0.821229 35.8815 0.536951 35.6705 0.327351C35.4595 0.117752 35.1734 0 34.875 0ZM11.25 6.70588H7.875C7.57663 6.70588 7.29048 6.58813 7.07951 6.37853C6.86853 6.16893 6.75 5.88465 6.75 5.58824C6.75 5.29182 6.86853 5.00754 7.07951 4.79794C7.29048 4.58834 7.57663 4.47059 7.875 4.47059H11.25C11.5484 4.47059 11.8345 4.58834 12.0455 4.79794C12.2565 5.00754 12.375 5.29182 12.375 5.58824C12.375 5.88465 12.2565 6.16893 12.0455 6.37853C11.8345 6.58813 11.5484 6.70588 11.25 6.70588ZM19.125 7.82353C19.125 8.11995 19.0065 8.40423 18.7955 8.61382C18.5845 8.82342 18.2984 8.94118 18 8.94118C17.7016 8.94118 17.4155 8.82342 17.2045 8.61382C16.9935 8.40423 16.875 8.11995 16.875 7.82353V3.35294C16.875 3.05652 16.9935 2.77225 17.2045 2.56265C17.4155 2.35305 17.7016 2.23529 18 2.23529C18.2984 2.23529 18.5845 2.35305 18.7955 2.56265C19.0065 2.77225 19.125 3.05652 19.125 3.35294V7.82353ZM28.125 6.70588H24.75C24.4516 6.70588 24.1655 6.58813 23.9545 6.37853C23.7435 6.16893 23.625 5.88465 23.625 5.58824C23.625 5.29182 23.7435 5.00754 23.9545 4.79794C24.1655 4.58834 24.4516 4.47059 24.75 4.47059H28.125C28.4234 4.47059 28.7095 4.58834 28.9205 4.79794C29.1315 5.00754 29.25 5.29182 29.25 5.58824C29.25 5.88465 29.1315 6.16893 28.9205 6.37853C28.7095 6.58813 28.4234 6.70588 28.125 6.70588Z" fill="#8298A8"/>
</svg>
