<svg width="29" height="29" viewBox="0 0 29 29" fill="none" xmlns="http://www.w3.org/2000/svg">
<path d="M9.92661 26.0687C10.1486 26.3087 10.1366 26.6927 9.89661 26.9207L8.59461 28.1387C8.35461 28.3667 7.97061 28.3487 7.74861 28.1087L0.158608 19.9307C-0.0633921 19.6907 -0.0513921 19.3067 0.188608 19.0787L1.49061 17.8607C1.54806 17.807 1.61556 17.7652 1.68921 17.7377C1.76287 17.7101 1.84124 17.6973 1.91984 17.7001C1.99843 17.7029 2.0757 17.7212 2.14722 17.7539C2.21874 17.7866 2.2831 17.8331 2.33661 17.8907L9.92661 26.0687ZM19.6106 10.6787C19.8326 10.9187 19.8206 11.3027 19.5806 11.5307L11.3786 19.1927C11.1386 19.4207 10.7546 19.4027 10.5326 19.1627L8.57661 17.0507C8.35461 16.8107 8.36661 16.4267 8.60661 16.1987L16.8086 8.53675C17.0486 8.31475 17.4326 8.32675 17.6546 8.56675L19.6166 10.6787H19.6106ZM12.7166 23.4587C12.9386 23.6987 12.9266 24.0827 12.6866 24.3107L11.3846 25.5287C11.1446 25.7567 10.7606 25.7387 10.5386 25.4987L2.95461 17.3207C2.73261 17.0807 2.74461 16.6967 2.98461 16.4687L4.28661 15.2507C4.52661 15.0287 4.91061 15.0407 5.13261 15.2807L12.7226 23.4587H12.7166ZM25.3526 10.9727C25.5746 11.2127 25.5626 11.5967 25.3226 11.8247L24.0206 13.0427C23.7806 13.2707 23.3966 13.2527 23.1746 13.0127L15.5906 4.83475C15.3686 4.59475 15.3806 4.21075 15.6206 3.98275L16.9286 2.76475C17.1686 2.54275 17.5526 2.55475 17.7746 2.79475L25.3586 10.9727H25.3526ZM28.1366 8.36875C28.3586 8.60875 28.3466 8.99275 28.1066 9.22075L26.8046 10.4387C26.5646 10.6667 26.1806 10.6487 25.9586 10.4087L18.3746 2.23075C18.1526 1.99075 18.1646 1.60675 18.4046 1.37875L19.7066 0.160749C19.7641 0.107123 19.8316 0.0653559 19.9053 0.0378377C19.9789 0.0103195 20.0573 -0.00241049 20.1358 0.000375778C20.2144 0.00316204 20.2917 0.0214099 20.3632 0.0540757C20.4347 0.0867416 20.4991 0.133185 20.5526 0.190749L28.1366 8.37475V8.36875Z" fill="#8298A8"/>
</svg>
