<svg width="25" height="25" viewBox="0 0 25 25" fill="none" xmlns="http://www.w3.org/2000/svg">
<path d="M16.875 0C17.9797 2.27293e-05 19.0727 0.225303 20.0874 0.662074C21.102 1.09884 22.0169 1.73793 22.7762 2.54027C23.5355 3.34262 24.1232 4.29137 24.5034 5.32854C24.8836 6.36571 25.0483 7.46951 24.9875 8.5725C25.0134 8.76386 24.9963 8.95857 24.9375 9.1425C24.7629 10.5177 24.2398 11.8255 23.4179 12.9419C22.596 14.0582 21.5026 14.9461 20.2413 15.5212L20.9063 17.515C21.0188 17.505 21.1333 17.5 21.25 17.5C21.9917 17.5 22.7167 17.7199 23.3334 18.132C23.9501 18.544 24.4307 19.1297 24.7145 19.8149C24.9984 20.5002 25.0726 21.2542 24.9279 21.9816C24.7833 22.709 24.4261 23.3772 23.9017 23.9017C23.3772 24.4261 22.709 24.7833 21.9816 24.9279C21.2542 25.0726 20.5002 24.9984 19.8149 24.7145C19.1297 24.4307 18.544 23.9501 18.132 23.3334C17.7199 22.7167 17.5 21.9917 17.5 21.25L17.5063 21.03C17.5607 20.1005 17.9591 19.2245 18.6238 18.5725L17.8313 16.1937C17.5171 16.2312 17.1983 16.25 16.875 16.25H13.5312C13.0754 16.25 12.6271 16.2154 12.1862 16.1462L11.3762 18.5725C11.8175 19.0054 12.1449 19.5407 12.3293 20.1308C12.5137 20.7208 12.5493 21.3473 12.4331 21.9544C12.3169 22.5616 12.0524 23.1306 11.6631 23.6108C11.2738 24.091 10.7718 24.4675 10.2019 24.7068C9.63192 24.9462 9.01163 25.0409 8.39621 24.9826C7.78079 24.9243 7.18934 24.7147 6.67448 24.3726C6.15962 24.0304 5.73733 23.5663 5.44519 23.0215C5.15305 22.4767 5.00011 21.8682 5 21.25L5.005 21.03C5.0344 20.5279 5.16451 20.0368 5.3876 19.586C5.61068 19.1352 5.92218 18.7339 6.30354 18.4059C6.68491 18.078 7.12835 17.8301 7.60748 17.677C8.08661 17.524 8.59164 17.4689 9.0925 17.515L9.7925 15.4125C8.72337 14.9076 7.76765 14.1913 6.98305 13.3068C6.19845 12.4223 5.60124 11.388 5.2275 10.2663L3.475 5H1.25C0.943833 4.99996 0.648329 4.88756 0.419535 4.68411C0.190741 4.48066 0.0445715 4.20031 0.00874996 3.89625L0 3.75C0 3.41848 0.131696 3.10054 0.366116 2.86612C0.600537 2.6317 0.918479 2.5 1.25 2.5H4.375C4.63746 2.49994 4.89327 2.58249 5.10619 2.73595C5.3191 2.88941 5.47831 3.10599 5.56125 3.355L6.94125 7.5H15V1.25C15 0.918479 15.1317 0.600537 15.3661 0.366116C15.6005 0.131696 15.9185 0 16.25 0H16.875ZM8.75 20C8.41848 20 8.10054 20.1317 7.86612 20.3661C7.6317 20.6005 7.5 20.9185 7.5 21.25C7.5 21.5815 7.6317 21.8995 7.86612 22.1339C8.10054 22.3683 8.41848 22.5 8.75 22.5C9.08152 22.5 9.39946 22.3683 9.63388 22.1339C9.8683 21.8995 10 21.5815 10 21.25C10 20.9185 9.8683 20.6005 9.63388 20.3661C9.39946 20.1317 9.08152 20 8.75 20ZM21.25 20C20.9185 20 20.6005 20.1317 20.3661 20.3661C20.1317 20.6005 20 20.9185 20 21.25C20 21.5815 20.1317 21.8995 20.3661 22.1339C20.6005 22.3683 20.9185 22.5 21.25 22.5C21.5815 22.5 21.8995 22.3683 22.1339 22.1339C22.3683 21.8995 22.5 21.5815 22.5 21.25C22.5 20.9185 22.3683 20.6005 22.1339 20.3661C21.8995 20.1317 21.5815 20 21.25 20Z" fill="#8298A8"/>
</svg>
