<svg width="24" height="26" viewBox="0 0 24 26" fill="none" xmlns="http://www.w3.org/2000/svg">
<path d="M10.5 0C8.9087 0 7.38258 0.632141 6.25736 1.75736C5.13214 2.88258 4.5 4.4087 4.5 6C4.5 7.5913 5.13214 9.11742 6.25736 10.2426C7.38258 11.3679 8.9087 12 10.5 12C12.0913 12 13.6174 11.3679 14.7426 10.2426C15.8679 9.11742 16.5 7.5913 16.5 6C16.5 4.4087 15.8679 2.88258 14.7426 1.75736C13.6174 0.632141 12.0913 0 10.5 0ZM3.0135 13.5C2.6184 13.4982 2.22684 13.5745 1.8613 13.7245C1.49577 13.8744 1.16345 14.0951 0.883447 14.3739C0.60344 14.6526 0.381254 14.984 0.229646 15.3488C0.0780385 15.7137 -4.0003e-06 16.1049 1.5379e-10 16.5C1.5379e-10 19.0365 1.2495 20.949 3.2025 22.1955C5.1255 23.421 7.7175 24 10.5 24C11.036 24 11.564 23.9785 12.084 23.9355C11.9641 23.4159 11.9718 22.875 12.1066 22.359C12.2414 21.8431 12.4992 21.3675 12.858 20.973L13.6755 20.0625C14.0475 19.6501 14.5233 19.345 15.0534 19.1791C15.5834 19.0131 16.1482 18.9924 16.689 19.119L17.8665 19.398C18.4335 18.93 18.777 18.378 18.9345 17.7165L18.1575 16.9575C17.7523 16.5613 17.4716 16.0555 17.3498 15.5021C17.228 14.9486 17.2705 14.3716 17.472 13.842L17.601 13.5H3.0135ZM18.876 14.373L19.3005 13.248C19.6875 12.2265 20.8935 11.7225 21.9105 12.156L22.4925 12.405C23.202 12.708 23.7885 13.257 23.913 13.995C24.5985 18.0825 21.051 23.8965 16.968 25.38C16.23 25.647 15.4335 25.44 14.8005 25.011L14.2815 24.6585C14.0684 24.515 13.889 24.3269 13.7557 24.1073C13.6223 23.8878 13.5382 23.6418 13.5091 23.3866C13.48 23.1313 13.5066 22.8728 13.5872 22.6288C13.6677 22.3849 13.8002 22.1613 13.9755 21.9735L14.793 21.063C14.985 20.8515 15.23 20.6951 15.5027 20.61C15.7753 20.5248 16.0657 20.5139 16.344 20.5785L18.1815 21.0135C19.6385 20.1035 20.4195 18.8235 20.5245 17.1735L19.2075 15.885C19.0108 15.6928 18.8746 15.4472 18.8157 15.1786C18.7568 14.9099 18.7778 14.6299 18.876 14.373Z" fill="#8298A8"/>
</svg>
