<svg width="29" height="23" viewBox="0 0 29 23" fill="none" xmlns="http://www.w3.org/2000/svg">
<path d="M2.9 23C2.1025 23 1.42003 22.7187 0.8526 22.1562C0.285167 21.5936 0.000966667 20.9166 0 20.125V2.875C0 2.08437 0.2842 1.40779 0.8526 0.84525C1.421 0.282708 2.10347 0.000958333 2.9 0H26.1C26.8975 0 27.5804 0.28175 28.1488 0.84525C28.7172 1.40875 29.001 2.08533 29 2.875V20.125C29 20.9156 28.7163 21.5927 28.1488 22.1562C27.5814 22.7197 26.8985 23.001 26.1 23H2.9ZM5.8 18.6875H17.4C17.8108 18.6875 18.1554 18.5495 18.4338 18.2735C18.7122 17.9975 18.851 17.6563 18.85 17.25V5.75C18.85 5.34271 18.7108 5.00154 18.4324 4.7265C18.154 4.45146 17.8099 4.31346 17.4 4.3125H5.8C5.38917 4.3125 5.04503 4.4505 4.7676 4.7265C4.49017 5.0025 4.35097 5.34367 4.35 5.75V17.25C4.35 17.6573 4.4892 17.9989 4.7676 18.2749C5.046 18.5509 5.39013 18.6885 5.8 18.6875ZM23.2 18.6875C23.6108 18.6875 23.9554 18.5495 24.2338 18.2735C24.5122 17.9975 24.651 17.6563 24.65 17.25C24.649 16.8437 24.5098 16.5025 24.2324 16.2265C23.955 15.9505 23.6108 15.8125 23.2 15.8125C22.7892 15.8125 22.445 15.9505 22.1676 16.2265C21.8902 16.5025 21.751 16.8437 21.75 17.25C21.749 17.6563 21.8882 17.998 22.1676 18.2749C22.447 18.5519 22.7911 18.6894 23.2 18.6875ZM7.25 15.8125V7.1875H15.95V15.8125H7.25ZM23.2 12.9375C23.6108 12.9375 23.9554 12.7995 24.2338 12.5235C24.5122 12.2475 24.651 11.9063 24.65 11.5C24.649 11.0937 24.5098 10.7525 24.2324 10.4765C23.955 10.2005 23.6108 10.0625 23.2 10.0625C22.7892 10.0625 22.445 10.2005 22.1676 10.4765C21.8902 10.7525 21.751 11.0937 21.75 11.5C21.749 11.9063 21.8882 12.248 22.1676 12.5249C22.447 12.8019 22.7911 12.9394 23.2 12.9375ZM23.2 7.1875C23.6108 7.1875 23.9554 7.0495 24.2338 6.7735C24.5122 6.4975 24.651 6.15633 24.65 5.75C24.649 5.34367 24.5098 5.0025 24.2324 4.7265C23.955 4.4505 23.6108 4.3125 23.2 4.3125C22.7892 4.3125 22.445 4.4505 22.1676 4.7265C21.8902 5.0025 21.751 5.34367 21.75 5.75C21.749 6.15633 21.8882 6.49798 22.1676 6.77494C22.447 7.0519 22.7911 7.18942 23.2 7.1875Z" fill="#8298A8"/>
</svg>
