<svg width="24" height="21" viewBox="0 0 24 21" fill="none" xmlns="http://www.w3.org/2000/svg">
<path d="M6.3375 4.00312L5.11406 7.5H18.8859L17.6625 4.00312C17.4516 3.40312 16.8844 3 16.2469 3H7.75312C7.11562 3 6.54844 3.40312 6.3375 4.00312ZM1.85625 7.725L3.50625 3.01406C4.13906 1.20938 5.84062 0 7.75312 0H16.2469C18.1594 0 19.8609 1.20938 20.4938 3.01406L22.1438 7.725C23.2313 8.175 24 9.24844 24 10.5V19.5C24 20.3297 23.3297 21 22.5 21H21C20.1703 21 19.5 20.3297 19.5 19.5V18H4.5V19.5C4.5 20.3297 3.82969 21 3 21H1.5C0.670312 21 0 20.3297 0 19.5V10.5C0 9.24844 0.76875 8.175 1.85625 7.725ZM6 12.75C6 11.9203 5.32969 11.25 4.5 11.25C3.67031 11.25 3 11.9203 3 12.75C3 13.5797 3.67031 14.25 4.5 14.25C5.32969 14.25 6 13.5797 6 12.75ZM19.5 14.25C20.3297 14.25 21 13.5797 21 12.75C21 11.9203 20.3297 11.25 19.5 11.25C18.6703 11.25 18 11.9203 18 12.75C18 13.5797 18.6703 14.25 19.5 14.25Z" fill="#8298A8"/>
</svg>
