<svg width="30" height="30" viewBox="0 0 30 30" fill="none" xmlns="http://www.w3.org/2000/svg">
<path d="M26.0003 7C27.0203 7 27.8803 7.78 27.9803 8.76L28.0003 9V14C28.8003 14 29.5603 14.48 29.8603 15.28C30.2403 16.24 29.8203 17.3 28.9403 17.78L28.7203 17.86L24.0003 19.68V20C23.9992 20.4308 23.8593 20.8499 23.6015 21.1951C23.3437 21.5402 22.9816 21.7933 22.5688 21.9167C22.156 22.04 21.7145 22.0272 21.3095 21.8802C20.9046 21.7331 20.5577 21.4595 20.3203 21.1L15.6203 22.9L20.6003 30H9.40031L13.9003 23.56L10.0003 25.06V26C9.9955 26.4776 9.8204 26.9379 9.50651 27.298C9.19263 27.658 8.76055 27.8943 8.28802 27.9642C7.8155 28.0341 7.33353 27.9331 6.92882 27.6794C6.52412 27.4256 6.22324 27.0358 6.08031 26.58L2.72031 27.86C1.68031 28.26 0.520314 27.74 0.140314 26.72C-0.239686 25.76 0.180314 24.7 1.06031 24.22L1.28031 24.14L2.00031 23.86V17C2.00031 15.9 2.90031 15 4.00031 15C5.02031 15 5.88031 15.78 5.98031 16.76L6.00031 17V19.44L7.52031 19.06C7.64031 19.04 7.74031 19.02 7.84031 19H8.14031L8.36031 19.04L8.58031 19.08L8.84031 19.18L8.92031 19.22L9.10031 19.32L9.32031 19.5L9.52031 19.7L9.60031 19.78L9.72031 19.98L9.82031 20.18L9.92031 20.4L9.96031 20.64L9.98031 20.78L20.0003 16.94V14.88L20.0203 14.78L20.0003 15C20.0003 14.8 20.0203 14.62 20.0803 14.44L20.1803 14.16L20.2603 14L20.4203 13.78L20.5803 13.58L20.7803 13.42L20.9003 13.32L21.0603 13.24L21.3603 13.1L21.5203 13.06L24.0003 12.44V9C24.0003 7.9 24.9003 7 26.0003 7ZM4.00031 8C5.66031 8 7.00031 9.34 7.00031 11C7.00031 12.66 5.66031 14 4.00031 14C2.34031 14 1.00031 12.66 1.00031 11C1.00031 9.34 2.34031 8 4.00031 8ZM26.0003 0C27.6603 0 29.0003 1.34 29.0003 3C29.0003 4.66 27.6603 6 26.0003 6C24.3403 6 23.0003 4.66 23.0003 3C23.0003 1.34 24.3403 0 26.0003 0Z" fill="#8298A8"/>
</svg>
