<svg width="28" height="27" viewBox="0 0 28 27" fill="none" xmlns="http://www.w3.org/2000/svg">
<path d="M23.6252 12.5357C25.5503 12.5357 29.4004 27 27.4753 27H0.524658C-1.40039 27 2.44971 12.5357 4.37476 12.5357H23.6252ZM21.2189 14.9464H6.78107C5.81854 14.9464 2.93097 25.0714 4.37476 25.0714H23.6252C25.069 25.0714 22.1815 14.9464 21.2189 14.9464ZM14 17.3571C14.9625 17.3571 15.9251 18.3214 15.9251 19.2857C15.9251 20.25 14.9625 21.2143 14 21.2143C13.0375 21.2143 12.075 20.25 12.075 19.2857C12.075 18.3214 13.0375 17.3571 14 17.3571ZM20.2564 15.9107H7.74359C6.78107 15.9107 4.37476 24.1071 5.81854 24.1071H22.1815C23.6252 24.1071 21.2189 15.9107 20.2564 15.9107ZM9.18738 7.71429C9.66864 7.71429 9.66864 9.16071 9.18738 9.16071V11.5714C9.18738 12.5357 7.26233 12.5357 7.26233 11.5714V9.16071H5.33728C4.85602 9.16071 4.85602 7.71429 5.33728 7.71429H9.18738ZM22.6627 7.71429C23.144 7.71429 23.144 9.16071 22.6627 9.16071H20.7377V11.5714C20.7377 12.5357 18.8126 12.5357 18.8126 11.5714V9.16071C18.3314 9.16071 18.3314 7.71429 18.8126 7.71429H22.6627ZM16.8876 0C14 0 13.0375 0.964286 13.0375 3.85714V11.5714C13.0375 12.5357 14.9625 12.5357 14.9625 11.5714V4.82143C14.9625 2.89286 14.9625 1.92857 16.8876 1.92857C17.8501 1.92857 18.8126 2.41071 18.8126 3.375C18.8126 3.85714 20.7377 3.85714 20.7377 3.375C20.7377 0.964286 18.8126 0 16.8876 0Z" fill="#8298A8"/>
</svg>
