<svg width="22" height="25" viewBox="0 0 22 25" fill="none" xmlns="http://www.w3.org/2000/svg">
<path fill-rule="evenodd" clip-rule="evenodd" d="M21.875 18.08C21.8735 18.1399 21.8676 18.1997 21.8575 18.2588C21.8839 18.3945 21.8799 18.5343 21.8458 18.6683C21.8118 18.8023 21.7486 18.9271 21.6606 19.0338C21.5727 19.1404 21.4623 19.2264 21.3373 19.2853C21.2123 19.3443 21.0757 19.375 20.9375 19.375H3.4375C3.23231 19.375 3.02913 19.4154 2.83956 19.4939C2.64999 19.5725 2.47774 19.6876 2.33265 19.8326C2.18755 19.9777 2.07246 20.15 1.99394 20.3396C1.91542 20.5291 1.875 20.7323 1.875 20.9375C1.875 21.1427 1.91542 21.3459 1.99394 21.5354C2.07246 21.725 2.18755 21.8973 2.33265 22.0424C2.47774 22.1874 2.64999 22.3025 2.83956 22.3811C3.02913 22.4596 3.23231 22.5 3.4375 22.5H20.9375C21.1861 22.5 21.4246 22.5988 21.6004 22.7746C21.7762 22.9504 21.875 23.1889 21.875 23.4375C21.875 23.6861 21.7762 23.9246 21.6004 24.1004C21.4246 24.2762 21.1861 24.375 20.9375 24.375H3.4375C2.52582 24.375 1.65148 24.0128 1.00682 23.3682C0.362164 22.7235 0 21.8492 0 20.9375V3.4375C0 2.52582 0.362164 1.65148 1.00682 1.00682C1.65148 0.362164 2.52582 0 3.4375 0H20.1875C21.12 0 21.875 0.755 21.875 1.6875V18.08ZM7.1875 5C6.93886 5 6.7004 5.09877 6.52459 5.27459C6.34877 5.4504 6.25 5.68886 6.25 5.9375C6.25 6.18614 6.34877 6.4246 6.52459 6.60041C6.7004 6.77623 6.93886 6.875 7.1875 6.875H14.6875C14.9361 6.875 15.1746 6.77623 15.3504 6.60041C15.5262 6.4246 15.625 6.18614 15.625 5.9375C15.625 5.68886 15.5262 5.4504 15.3504 5.27459C15.1746 5.09877 14.9361 5 14.6875 5H7.1875Z" fill="#8298A8"/>
</svg>
