<svg width="20" height="25" viewBox="0 0 20 25" fill="none" xmlns="http://www.w3.org/2000/svg">
<path fill-rule="evenodd" clip-rule="evenodd" d="M0 2.67857C0 1.96817 0.263392 1.28686 0.732233 0.784535C1.20107 0.282206 1.83696 0 2.5 0L17.5 0C18.163 0 18.7989 0.282206 19.2678 0.784535C19.7366 1.28686 20 1.96817 20 2.67857V4.43036H0V2.67857ZM0 6.6625V22.3214C0 23.0318 0.263392 23.7131 0.732233 24.2155C1.20107 24.7178 1.83696 25 2.5 25H17.5C18.163 25 18.7989 24.7178 19.2678 24.2155C19.7366 23.7131 20 23.0318 20 22.3214V6.6625H0ZM3.98667 15.1786C3.98635 14.4474 4.10246 13.7215 4.33 13.0321C4.83186 11.5097 5.84883 10.2445 7.17968 9.48697C8.51052 8.72945 10.0583 8.53477 11.5167 8.94146C12.9751 9.34815 14.2379 10.3266 15.0552 11.6831C15.8725 13.0397 16.1848 14.6755 15.9302 16.2669C15.6757 17.8584 14.8728 19.2895 13.6806 20.277C12.4883 21.2646 10.9935 21.7366 9.49193 21.5998C7.99035 21.463 6.59142 20.7272 5.57194 19.5381C4.55246 18.349 3.98672 16.7932 3.98667 15.1786ZM5.83667 14.6429C5.86937 14.4347 5.96985 14.2457 6.12027 14.1094C6.27069 13.9731 6.46132 13.8982 6.65833 13.8982H7.24833C8.52333 13.8982 9.27 14.2321 9.94167 14.5304L10.0417 14.575C10.67 14.8554 11.305 15.1179 12.56 15.1179H13.3883C13.5093 15.1179 13.6288 15.1462 13.7385 15.2007C13.8483 15.2552 13.9456 15.3347 14.0238 15.4336C14.102 15.5325 14.1592 15.6485 14.1913 15.7734C14.2235 15.8983 14.2298 16.0293 14.21 16.1571C14.0039 17.3281 13.3773 18.3658 12.4648 19.0471C11.5523 19.7283 10.4268 19.9989 9.33008 19.8006C8.2334 19.6022 7.25311 18.9509 6.59987 17.9864C5.94664 17.022 5.67261 15.8215 5.83667 14.6429Z" fill="#8298A8"/>
</svg>
