<svg width="14" height="14" viewBox="0 0 14 14" fill="none" xmlns="http://www.w3.org/2000/svg">
<path d="M12.2786 13.1684C13.1933 13.1684 13.8802 12.3904 13.8802 11.4999V1.66847C13.8802 0.778003 13.1933 0 12.2786 0H6.5842C5.66953 0 4.98264 0.778003 4.98264 1.66847V6.14573C4.81159 6.08313 4.63093 6.05085 4.44878 6.05035H1.60156C0.686892 6.05035 0 6.82835 0 7.71882V11.4999C0 12.3904 0.686892 13.1684 1.60156 13.1684H12.2786ZM9.78733 8.63064C10.0521 8.63064 10.3212 8.86838 10.3212 9.23141V12.1007H8.54167V9.23141C8.54167 8.86838 8.81073 8.63064 9.07552 8.63064H9.78733ZM8.96875 5.91155V5.10222H8.22135C8.07977 5.10222 7.94398 5.04598 7.84386 4.94586C7.74374 4.84574 7.6875 4.70995 7.6875 4.56837C7.6875 4.42678 7.74374 4.29099 7.84386 4.19088C7.94398 4.09076 8.07977 4.03451 8.22135 4.03451H8.96875V3.22306C8.96875 3.08147 9.02499 2.94568 9.12511 2.84556C9.22523 2.74545 9.36102 2.6892 9.5026 2.6892C9.64419 2.6892 9.77998 2.74545 9.8801 2.84556C9.98021 2.94568 10.0365 3.08147 10.0365 3.22306V4.03451H10.7839L10.8387 4.03736C10.97 4.05098 11.0917 4.1128 11.1801 4.21087C11.2685 4.30895 11.3175 4.43631 11.3175 4.56837C11.3175 4.70042 11.2685 4.82779 11.1801 4.92586C11.0917 5.02394 10.97 5.08575 10.8387 5.09937L10.7839 5.10222H10.0365V5.91297C10.0365 6.05456 9.98021 6.19034 9.8801 6.29046C9.77998 6.39058 9.64419 6.44682 9.5026 6.44682C9.36102 6.44682 9.22523 6.39058 9.12511 6.29046C9.02499 6.19034 8.96875 6.05456 8.96875 5.91297M3.73698 10.0849L3.79179 10.0877C3.92314 10.1013 4.04478 10.1631 4.13321 10.2612C4.22164 10.3593 4.27058 10.4867 4.27058 10.6187C4.27058 10.7508 4.22164 10.8781 4.13321 10.9762C4.04478 11.0743 3.92314 11.1361 3.79179 11.1497L3.73698 11.1526H2.45573C2.31414 11.1526 2.17835 11.0963 2.07824 10.9962C1.97812 10.8961 1.92187 10.7603 1.92187 10.6187C1.92187 10.4771 1.97812 10.3413 2.07824 10.2412C2.17835 10.1411 2.31414 10.0849 2.45573 10.0849H3.73698ZM3.73698 8.0676C3.87857 8.0676 4.01435 8.12385 4.11447 8.22397C4.21459 8.32408 4.27083 8.45987 4.27083 8.60146C4.27083 8.74304 4.21459 8.87883 4.11447 8.97895C4.01435 9.07907 3.87857 9.13531 3.73698 9.13531H2.45573C2.31414 9.13531 2.17835 9.07907 2.07824 8.97895C1.97812 8.87883 1.92187 8.74304 1.92187 8.60146C1.92187 8.45987 1.97812 8.32408 2.07824 8.22397C2.17835 8.12385 2.31414 8.0676 2.45573 8.0676H3.73698Z" fill="#AB9FD5"/>
</svg>
