<svg width="17" height="17" viewBox="0 0 17 17" fill="none" xmlns="http://www.w3.org/2000/svg">
<path fill-rule="evenodd" clip-rule="evenodd" d="M8.06717 5.59726e-06C10.038 -0.000282008 11.9418 0.715786 13.4239 2.01484C14.906 3.3139 15.8654 5.10738 16.1234 7.06126C16.1393 7.18338 16.1311 7.30745 16.099 7.42638C16.067 7.54531 16.0119 7.65676 15.9368 7.75438C15.8617 7.852 15.7681 7.93387 15.6613 7.99531C15.5546 8.05676 15.4368 8.09658 15.3147 8.11251C15.1925 8.12843 15.0685 8.12014 14.9495 8.08811C14.8306 8.05609 14.7192 8.00095 14.6215 7.92585C14.5239 7.85075 14.4421 7.75716 14.3806 7.65042C14.3192 7.54368 14.2793 7.42588 14.2634 7.30376C14.109 6.14288 13.6316 5.04874 12.8856 4.14599C12.1396 3.24325 11.155 2.56821 10.044 2.1978C8.93303 1.82739 7.74034 1.7765 6.60185 2.05093C5.46336 2.32537 4.42486 2.91409 3.60467 3.75001H5.25467C5.50331 3.75001 5.74177 3.84878 5.91758 4.02459C6.0934 4.20041 6.19217 4.43887 6.19217 4.68751C6.19217 4.93615 6.0934 5.1746 5.91758 5.35042C5.74177 5.52623 5.50331 5.62501 5.25467 5.62501H1.50467C1.25603 5.62501 1.01757 5.52623 0.841757 5.35042C0.665942 5.1746 0.56717 4.93615 0.56717 4.68751V0.937506C0.56717 0.814391 0.591419 0.692483 0.638533 0.57874C0.685647 0.464997 0.754702 0.361648 0.841757 0.274593C0.928812 0.187538 1.03216 0.118482 1.1459 0.0713685C1.25965 0.0242547 1.38156 5.59726e-06 1.50467 5.59726e-06C1.62778 5.59726e-06 1.74969 0.0242547 1.86344 0.0713685C1.97718 0.118482 2.08053 0.187538 2.16758 0.274593C2.25464 0.361648 2.32369 0.464997 2.37081 0.57874C2.41792 0.692483 2.44217 0.814391 2.44217 0.937506V2.26251C3.95357 0.808584 5.96998 -0.00245825 8.06717 5.59726e-06ZM14.6297 16.25C14.8783 16.25 15.1168 16.1512 15.2926 15.9754C15.4684 15.7996 15.5672 15.5611 15.5672 15.3125V11.5625C15.5672 11.3139 15.4684 11.0754 15.2926 10.8996C15.1168 10.7238 14.8783 10.625 14.6297 10.625H10.8797C10.631 10.625 10.3926 10.7238 10.2168 10.8996C10.0409 11.0754 9.94217 11.3139 9.94217 11.5625C9.94217 11.8111 10.0409 12.0496 10.2168 12.2254C10.3926 12.4012 10.631 12.5 10.8797 12.5H12.5297C11.7095 13.3363 10.6709 13.9253 9.53226 14.2C8.39359 14.4746 7.20065 14.4238 6.08945 14.0534C4.97824 13.683 3.99347 13.0078 3.24739 12.1048C2.5013 11.2018 2.02392 10.1074 1.86967 8.94625C1.85637 8.82203 1.81837 8.70172 1.75791 8.59239C1.69745 8.48306 1.61575 8.38692 1.51761 8.30962C1.41947 8.23231 1.30686 8.1754 1.18641 8.14223C1.06596 8.10906 0.940101 8.1003 0.816218 8.11646C0.692335 8.13262 0.572932 8.17338 0.465025 8.23634C0.357119 8.29931 0.262885 8.3832 0.187861 8.4831C0.112838 8.583 0.0585374 8.69688 0.0281516 8.81806C-0.00223423 8.93925 -0.00809288 9.06528 0.01092 9.18876C0.207712 10.6778 0.813342 12.0832 1.76057 13.2488C2.70779 14.4145 3.95954 15.2948 5.37684 15.7921C6.79413 16.2893 8.32151 16.384 9.78938 16.0657C11.2573 15.7474 12.6082 15.0284 13.6922 13.9888V15.3125C13.6922 15.83 14.1122 16.25 14.6297 16.25Z" fill="#C4C4C4"/>
</svg>
