<svg width="63" height="68" viewBox="0 0 63 68" fill="none" xmlns="http://www.w3.org/2000/svg">
<g filter="url(#filter0_d_2766_11403)">
<mask id="path-1-inside-1_2766_11403" fill="white">
<path d="M31.5 12C42.2696 12 51 20.7304 51 31.5C51 40.3196 45.1446 47.771 37.1094 50.1804C36.9173 50.238 36.7445 50.3487 36.6156 50.5023L32.7658 55.0879C32.3662 55.5638 31.6338 55.5639 31.2341 55.088L27.667 50.8401C27.5233 50.6691 27.3258 50.5518 27.1081 50.5017C18.4538 48.5096 12 40.7592 12 31.5C12 20.7304 20.7304 12 31.5 12Z"/>
</mask>
<path d="M31.5 12C42.2696 12 51 20.7304 51 31.5C51 40.3196 45.1446 47.771 37.1094 50.1804C36.9173 50.238 36.7445 50.3487 36.6156 50.5023L32.7658 55.0879C32.3662 55.5638 31.6338 55.5639 31.2341 55.088L27.667 50.8401C27.5233 50.6691 27.3258 50.5518 27.1081 50.5017C18.4538 48.5096 12 40.7592 12 31.5C12 20.7304 20.7304 12 31.5 12Z" fill="#EA8B2B"/>
<path d="M27.667 50.8401L26.9012 51.4832L27.667 50.8401ZM27.1081 50.5017L27.3324 49.5272L27.1081 50.5017ZM32.7658 55.0879L31.9999 54.4449L32.7658 55.0879ZM31.2341 55.088L31.9999 54.4449L31.2341 55.088ZM37.1094 50.1804L37.3966 51.1383L37.1094 50.1804ZM36.6156 50.5023L37.3815 51.1452L36.6156 50.5023ZM31.5 12V13C41.7173 13 50 21.2827 50 31.5H51H52C52 20.1782 42.8218 11 31.5 11V12ZM51 31.5H50C50 39.8658 44.4461 46.9365 36.8221 49.2226L37.1094 50.1804L37.3966 51.1383C45.8431 48.6056 52 40.7734 52 31.5H51ZM36.6156 50.5023L35.8498 49.8593L31.9999 54.4449L32.7658 55.0879L33.5317 55.7309L37.3815 51.1452L36.6156 50.5023ZM31.2341 55.088L31.9999 54.4449L28.4328 50.197L27.667 50.8401L26.9012 51.4832L30.4683 55.731L31.2341 55.088ZM27.1081 50.5017L27.3324 49.5272C19.1219 47.6372 13 40.283 13 31.5H12H11C11 41.2355 17.7856 49.3819 26.8838 51.4762L27.1081 50.5017ZM12 31.5H13C13 21.2827 21.2827 13 31.5 13V12V11C20.1782 11 11 20.1782 11 31.5H12ZM27.667 50.8401L28.4328 50.197C28.1431 49.8521 27.752 49.6238 27.3324 49.5272L27.1081 50.5017L26.8838 51.4762C26.8911 51.4779 26.8963 51.4803 26.8993 51.4821C26.9021 51.4839 26.9023 51.4846 26.9012 51.4832L27.667 50.8401ZM32.7658 55.0879L31.9999 54.4449V54.4449L31.2341 55.088L30.4683 55.731C31.2676 56.6829 32.7324 56.6828 33.5317 55.7309L32.7658 55.0879ZM37.1094 50.1804L36.8221 49.2226C36.4517 49.3337 36.1096 49.5497 35.8498 49.8593L36.6156 50.5023L37.3815 51.1452C37.3795 51.1477 37.383 51.1424 37.3966 51.1383L37.1094 50.1804Z" fill="white" mask="url(#path-1-inside-1_2766_11403)"/>
</g>
<circle cx="31.5" cy="62.4448" r="3.5" fill="#EA8B2B" stroke="white"/>
<path d="M32.1587 39.2591C34.6334 38.7635 37.8333 36.983 37.8333 32.3795C37.8333 28.1908 34.7672 25.4009 32.5624 24.1192C32.0724 23.8342 31.5 24.2087 31.5 24.7747V26.2219C31.5 27.3635 31.0203 29.4471 29.6871 30.314C29.0062 30.7566 28.27 30.0939 28.1877 29.2864L28.1196 28.623C28.0404 27.8519 27.2551 27.3841 26.6392 27.8543C25.5316 28.6974 24.375 30.1779 24.375 32.3787C24.375 38.0082 28.5621 39.4166 30.6553 39.4166C30.7777 39.4166 30.9055 39.4126 31.0385 39.4047C30.0045 39.3169 28.3333 38.6756 28.3333 36.6014C28.3333 34.9785 29.5169 33.8821 30.4162 33.3477C30.6585 33.2052 30.9411 33.3912 30.9411 33.6723V34.1394C30.9411 34.4956 31.0796 35.0537 31.4082 35.4353C31.7803 35.8676 32.3257 35.4147 32.3692 34.8463C32.3835 34.6674 32.564 34.5534 32.7192 34.6436C33.2266 34.9405 33.875 35.5739 33.875 36.6014C33.875 38.2228 32.9812 38.9685 32.1587 39.2591Z" fill="white"/>
<defs>
<filter id="filter0_d_2766_11403" x="0" y="0" width="63" height="67.4448" filterUnits="userSpaceOnUse" color-interpolation-filters="sRGB">
<feFlood flood-opacity="0" result="BackgroundImageFix"/>
<feColorMatrix in="SourceAlpha" type="matrix" values="0 0 0 0 0 0 0 0 0 0 0 0 0 0 0 0 0 0 127 0" result="hardAlpha"/>
<feMorphology radius="1" operator="dilate" in="SourceAlpha" result="effect1_dropShadow_2766_11403"/>
<feOffset/>
<feGaussianBlur stdDeviation="5.5"/>
<feComposite in2="hardAlpha" operator="out"/>
<feColorMatrix type="matrix" values="0 0 0 0 0.917647 0 0 0 0 0.545098 0 0 0 0 0.168627 0 0 0 1 0"/>
<feBlend mode="normal" in2="BackgroundImageFix" result="effect1_dropShadow_2766_11403"/>
<feBlend mode="normal" in="SourceGraphic" in2="effect1_dropShadow_2766_11403" result="shape"/>
</filter>
</defs>
</svg>
