<svg width="63" height="68" viewBox="0 0 63 68" fill="none" xmlns="http://www.w3.org/2000/svg">
<g filter="url(#filter0_d_3243_5832)">
<mask id="path-1-inside-1_3243_5832" fill="white">
<path d="M31.5 12C42.2696 12 51 20.7304 51 31.5C51 40.3196 45.1446 47.771 37.1094 50.1804C36.9173 50.238 36.7445 50.3487 36.6156 50.5023L32.7658 55.0879C32.3662 55.5638 31.6338 55.5639 31.2341 55.088L27.667 50.8401C27.5233 50.6691 27.3258 50.5518 27.1081 50.5017C18.4538 48.5096 12 40.7592 12 31.5C12 20.7304 20.7304 12 31.5 12Z"/>
</mask>
<path d="M31.5 12C42.2696 12 51 20.7304 51 31.5C51 40.3196 45.1446 47.771 37.1094 50.1804C36.9173 50.238 36.7445 50.3487 36.6156 50.5023L32.7658 55.0879C32.3662 55.5638 31.6338 55.5639 31.2341 55.088L27.667 50.8401C27.5233 50.6691 27.3258 50.5518 27.1081 50.5017C18.4538 48.5096 12 40.7592 12 31.5C12 20.7304 20.7304 12 31.5 12Z" fill="#EA8B2B"/>
<path d="M27.667 50.8401L26.9012 51.4832L27.667 50.8401ZM27.1081 50.5017L27.3324 49.5272L27.1081 50.5017ZM32.7658 55.0879L31.9999 54.4449L32.7658 55.0879ZM31.2341 55.088L31.9999 54.4449L31.2341 55.088ZM37.1094 50.1804L37.3966 51.1383L37.1094 50.1804ZM36.6156 50.5023L37.3815 51.1452L36.6156 50.5023ZM31.5 12V13C41.7173 13 50 21.2827 50 31.5H51H52C52 20.1782 42.8218 11 31.5 11V12ZM51 31.5H50C50 39.8658 44.4461 46.9365 36.8221 49.2226L37.1094 50.1804L37.3966 51.1383C45.8431 48.6056 52 40.7734 52 31.5H51ZM36.6156 50.5023L35.8498 49.8593L31.9999 54.4449L32.7658 55.0879L33.5317 55.7309L37.3815 51.1452L36.6156 50.5023ZM31.2341 55.088L31.9999 54.4449L28.4328 50.197L27.667 50.8401L26.9012 51.4832L30.4683 55.731L31.2341 55.088ZM27.1081 50.5017L27.3324 49.5272C19.1219 47.6372 13 40.283 13 31.5H12H11C11 41.2355 17.7856 49.3819 26.8838 51.4762L27.1081 50.5017ZM12 31.5H13C13 21.2827 21.2827 13 31.5 13V12V11C20.1782 11 11 20.1782 11 31.5H12ZM27.667 50.8401L28.4328 50.197C28.1431 49.8521 27.752 49.6238 27.3324 49.5272L27.1081 50.5017L26.8838 51.4762C26.8911 51.4779 26.8963 51.4803 26.8993 51.4821C26.9021 51.4839 26.9023 51.4846 26.9012 51.4832L27.667 50.8401ZM32.7658 55.0879L31.9999 54.4449V54.4449L31.2341 55.088L30.4683 55.731C31.2676 56.6829 32.7324 56.6828 33.5317 55.7309L32.7658 55.0879ZM37.1094 50.1804L36.8221 49.2226C36.4517 49.3337 36.1096 49.5497 35.8498 49.8593L36.6156 50.5023L37.3815 51.1452C37.3795 51.1477 37.383 51.1424 37.3966 51.1383L37.1094 50.1804Z" fill="white" mask="url(#path-1-inside-1_3243_5832)"/>
</g>
<circle cx="31.5" cy="62.4448" r="3.5" fill="#EA8B2B" stroke="white"/>
<path d="M26.7512 25.7979C26.7512 24.75 27.6032 23.8979 28.6512 23.8979H34.3512C35.3991 23.8979 36.2512 24.75 36.2512 25.7979V27.6979H38.1512C39.1991 27.6979 40.0512 28.55 40.0512 29.5979V37.1979C40.0512 38.2459 39.1991 39.0979 38.1512 39.0979H24.8512C23.8032 39.0979 22.9512 38.2459 22.9512 37.1979V29.5979C22.9512 28.55 23.8032 27.6979 24.8512 27.6979H26.7512V25.7979ZM31.0262 34.3479C30.5007 34.3479 30.0762 34.7725 30.0762 35.2979V37.6729H32.9262V35.2979C32.9262 34.7725 32.5016 34.3479 31.9762 34.3479H31.0262ZM26.7512 34.8229V33.8729C26.7512 33.6117 26.5374 33.3979 26.2762 33.3979H25.3262C25.0649 33.3979 24.8512 33.6117 24.8512 33.8729V34.8229C24.8512 35.0842 25.0649 35.2979 25.3262 35.2979H26.2762C26.5374 35.2979 26.7512 35.0842 26.7512 34.8229ZM26.2762 31.4979C26.5374 31.4979 26.7512 31.2842 26.7512 31.0229V30.0729C26.7512 29.8117 26.5374 29.5979 26.2762 29.5979H25.3262C25.0649 29.5979 24.8512 29.8117 24.8512 30.0729V31.0229C24.8512 31.2842 25.0649 31.4979 25.3262 31.4979H26.2762ZM38.1512 34.8229V33.8729C38.1512 33.6117 37.9374 33.3979 37.6762 33.3979H36.7262C36.4649 33.3979 36.2512 33.6117 36.2512 33.8729V34.8229C36.2512 35.0842 36.4649 35.2979 36.7262 35.2979H37.6762C37.9374 35.2979 38.1512 35.0842 38.1512 34.8229ZM37.6762 31.4979C37.9374 31.4979 38.1512 31.2842 38.1512 31.0229V30.0729C38.1512 29.8117 37.9374 29.5979 37.6762 29.5979H36.7262C36.4649 29.5979 36.2512 29.8117 36.2512 30.0729V31.0229C36.2512 31.2842 36.4649 31.4979 36.7262 31.4979H37.6762ZM30.7887 26.9854V27.9354H29.8387C29.5774 27.9354 29.3637 28.1492 29.3637 28.4104V28.8854C29.3637 29.1467 29.5774 29.3604 29.8387 29.3604H30.7887V30.3104C30.7887 30.5717 31.0024 30.7854 31.2637 30.7854H31.7387C31.9999 30.7854 32.2137 30.5717 32.2137 30.3104V29.3604H33.1637C33.4249 29.3604 33.6387 29.1467 33.6387 28.8854V28.4104C33.6387 28.1492 33.4249 27.9354 33.1637 27.9354H32.2137V26.9854C32.2137 26.7242 31.9999 26.5104 31.7387 26.5104H31.2637C31.0024 26.5104 30.7887 26.7242 30.7887 26.9854Z" fill="white"/>
<defs>
<filter id="filter0_d_3243_5832" x="0" y="0" width="63" height="67.4448" filterUnits="userSpaceOnUse" color-interpolation-filters="sRGB">
<feFlood flood-opacity="0" result="BackgroundImageFix"/>
<feColorMatrix in="SourceAlpha" type="matrix" values="0 0 0 0 0 0 0 0 0 0 0 0 0 0 0 0 0 0 127 0" result="hardAlpha"/>
<feMorphology radius="1" operator="dilate" in="SourceAlpha" result="effect1_dropShadow_3243_5832"/>
<feOffset/>
<feGaussianBlur stdDeviation="5.5"/>
<feComposite in2="hardAlpha" operator="out"/>
<feColorMatrix type="matrix" values="0 0 0 0 0.917647 0 0 0 0 0.545098 0 0 0 0 0.168627 0 0 0 1 0"/>
<feBlend mode="normal" in2="BackgroundImageFix" result="effect1_dropShadow_3243_5832"/>
<feBlend mode="normal" in="SourceGraphic" in2="effect1_dropShadow_3243_5832" result="shape"/>
</filter>
</defs>
</svg>
