<svg width="316" height="316" viewBox="0 0 316 316" fill="none" xmlns="http://www.w3.org/2000/svg">
<g filter="url(#filter0_f_3243_5783)">
<circle cx="158" cy="158" r="108" fill="#FBBA78" fill-opacity="0.6"/>
</g>
<g filter="url(#filter1_d_3243_5783)">
<mask id="path-2-inside-1_3243_5783" fill="white">
<path d="M157.5 108C168.27 108 177 116.73 177 127.5C177 136.32 171.145 143.771 163.109 146.18C162.917 146.238 162.745 146.349 162.616 146.502L158.766 151.088C158.366 151.564 157.634 151.564 157.234 151.088L153.667 146.84C153.523 146.669 153.326 146.552 153.108 146.502C144.454 144.51 138 136.759 138 127.5C138 116.73 146.73 108 157.5 108Z"/>
</mask>
<path d="M157.5 108C168.27 108 177 116.73 177 127.5C177 136.32 171.145 143.771 163.109 146.18C162.917 146.238 162.745 146.349 162.616 146.502L158.766 151.088C158.366 151.564 157.634 151.564 157.234 151.088L153.667 146.84C153.523 146.669 153.326 146.552 153.108 146.502C144.454 144.51 138 136.759 138 127.5C138 116.73 146.73 108 157.5 108Z" fill="#EA8B2B"/>
<path d="M153.667 146.84L152.901 147.483L153.667 146.84ZM153.108 146.502L153.332 145.527L153.108 146.502ZM158.766 151.088L158 150.445L158.766 151.088ZM157.234 151.088L158 150.445L157.234 151.088ZM163.109 146.18L163.397 147.138L163.109 146.18ZM162.616 146.502L163.382 147.145L162.616 146.502ZM157.5 108V109C167.717 109 176 117.283 176 127.5H177H178C178 116.178 168.822 107 157.5 107V108ZM177 127.5H176C176 135.866 170.446 142.937 162.822 145.223L163.109 146.18L163.397 147.138C171.843 144.606 178 136.773 178 127.5H177ZM162.616 146.502L161.85 145.859L158 150.445L158.766 151.088L159.532 151.731L163.382 147.145L162.616 146.502ZM157.234 151.088L158 150.445L154.433 146.197L153.667 146.84L152.901 147.483L156.468 151.731L157.234 151.088ZM153.108 146.502L153.332 145.527C145.122 143.637 139 136.283 139 127.5H138H137C137 137.235 143.786 145.382 152.884 147.476L153.108 146.502ZM138 127.5H139C139 117.283 147.283 109 157.5 109V108V107C146.178 107 137 116.178 137 127.5H138ZM153.667 146.84L154.433 146.197C154.143 145.852 153.752 145.624 153.332 145.527L153.108 146.502L152.884 147.476C152.891 147.478 152.896 147.48 152.899 147.482C152.902 147.484 152.902 147.485 152.901 147.483L153.667 146.84ZM158.766 151.088L158 150.445V150.445L157.234 151.088L156.468 151.731C157.268 152.683 158.732 152.683 159.532 151.731L158.766 151.088ZM163.109 146.18L162.822 145.223C162.452 145.334 162.11 145.55 161.85 145.859L162.616 146.502L163.382 147.145C163.379 147.148 163.383 147.142 163.397 147.138L163.109 146.18Z" fill="white" mask="url(#path-2-inside-1_3243_5783)"/>
</g>
<circle cx="157.5" cy="158.445" r="3.5" fill="#EA8B2B" stroke="white"/>
<path d="M153.209 120.51C153.153 122.581 151.586 124.149 149.57 124.149V125.268C152.314 125.324 154.441 123.197 154.328 120.51H153.209ZM149.57 121.798V122.918C150.97 122.862 151.977 121.854 151.977 120.51H150.859C150.809 120.834 150.657 121.133 150.425 121.364C150.194 121.595 149.895 121.747 149.571 121.798M165.43 124.149C163.414 124.149 161.847 122.581 161.791 120.51H160.671C160.559 123.197 162.687 125.324 165.429 125.268L165.43 124.149ZM165.43 122.918V121.798C165.106 121.747 164.807 121.596 164.575 121.364C164.344 121.133 164.191 120.834 164.141 120.51H163.022C163.022 121.854 164.029 122.862 165.428 122.917M163.041 134.76V128.427H165.416L157.5 121.302L149.583 128.427H151.958V134.76H163.041Z" fill="white"/>
<defs>
<filter id="filter0_f_3243_5783" x="0" y="0" width="316" height="316" filterUnits="userSpaceOnUse" color-interpolation-filters="sRGB">
<feFlood flood-opacity="0" result="BackgroundImageFix"/>
<feBlend mode="normal" in="SourceGraphic" in2="BackgroundImageFix" result="shape"/>
<feGaussianBlur stdDeviation="25" result="effect1_foregroundBlur_3243_5783"/>
</filter>
<filter id="filter1_d_3243_5783" x="126" y="96" width="63" height="67.4448" filterUnits="userSpaceOnUse" color-interpolation-filters="sRGB">
<feFlood flood-opacity="0" result="BackgroundImageFix"/>
<feColorMatrix in="SourceAlpha" type="matrix" values="0 0 0 0 0 0 0 0 0 0 0 0 0 0 0 0 0 0 127 0" result="hardAlpha"/>
<feMorphology radius="1" operator="dilate" in="SourceAlpha" result="effect1_dropShadow_3243_5783"/>
<feOffset/>
<feGaussianBlur stdDeviation="5.5"/>
<feComposite in2="hardAlpha" operator="out"/>
<feColorMatrix type="matrix" values="0 0 0 0 0.917647 0 0 0 0 0.545098 0 0 0 0 0.168627 0 0 0 1 0"/>
<feBlend mode="normal" in2="BackgroundImageFix" result="effect1_dropShadow_3243_5783"/>
<feBlend mode="normal" in="SourceGraphic" in2="effect1_dropShadow_3243_5783" result="shape"/>
</filter>
</defs>
</svg>
