<svg width="316" height="316" viewBox="0 0 316 316" fill="none" xmlns="http://www.w3.org/2000/svg">
<g filter="url(#filter0_f_3243_5794)">
<circle cx="158" cy="158" r="108" fill="#FBBA78" fill-opacity="0.6"/>
</g>
<g filter="url(#filter1_d_3243_5794)">
<mask id="path-2-inside-1_3243_5794" fill="white">
<path d="M157.5 108C168.27 108 177 116.73 177 127.5C177 136.32 171.145 143.771 163.109 146.18C162.917 146.238 162.745 146.349 162.616 146.502L158.766 151.088C158.366 151.564 157.634 151.564 157.234 151.088L153.667 146.84C153.523 146.669 153.326 146.552 153.108 146.502C144.454 144.51 138 136.759 138 127.5C138 116.73 146.73 108 157.5 108Z"/>
</mask>
<path d="M157.5 108C168.27 108 177 116.73 177 127.5C177 136.32 171.145 143.771 163.109 146.18C162.917 146.238 162.745 146.349 162.616 146.502L158.766 151.088C158.366 151.564 157.634 151.564 157.234 151.088L153.667 146.84C153.523 146.669 153.326 146.552 153.108 146.502C144.454 144.51 138 136.759 138 127.5C138 116.73 146.73 108 157.5 108Z" fill="#EA8B2B"/>
<path d="M153.667 146.84L152.901 147.483L153.667 146.84ZM153.108 146.502L153.332 145.527L153.108 146.502ZM158.766 151.088L158 150.445L158.766 151.088ZM157.234 151.088L158 150.445L157.234 151.088ZM163.109 146.18L163.397 147.138L163.109 146.18ZM162.616 146.502L163.382 147.145L162.616 146.502ZM157.5 108V109C167.717 109 176 117.283 176 127.5H177H178C178 116.178 168.822 107 157.5 107V108ZM177 127.5H176C176 135.866 170.446 142.937 162.822 145.223L163.109 146.18L163.397 147.138C171.843 144.606 178 136.773 178 127.5H177ZM162.616 146.502L161.85 145.859L158 150.445L158.766 151.088L159.532 151.731L163.382 147.145L162.616 146.502ZM157.234 151.088L158 150.445L154.433 146.197L153.667 146.84L152.901 147.483L156.468 151.731L157.234 151.088ZM153.108 146.502L153.332 145.527C145.122 143.637 139 136.283 139 127.5H138H137C137 137.235 143.786 145.382 152.884 147.476L153.108 146.502ZM138 127.5H139C139 117.283 147.283 109 157.5 109V108V107C146.178 107 137 116.178 137 127.5H138ZM153.667 146.84L154.433 146.197C154.143 145.852 153.752 145.624 153.332 145.527L153.108 146.502L152.884 147.476C152.891 147.478 152.896 147.48 152.899 147.482C152.902 147.484 152.902 147.485 152.901 147.483L153.667 146.84ZM158.766 151.088L158 150.445V150.445L157.234 151.088L156.468 151.731C157.268 152.683 158.732 152.683 159.532 151.731L158.766 151.088ZM163.109 146.18L162.822 145.223C162.452 145.334 162.11 145.55 161.85 145.859L162.616 146.502L163.382 147.145C163.379 147.148 163.383 147.142 163.397 147.138L163.109 146.18Z" fill="white" mask="url(#path-2-inside-1_3243_5794)"/>
</g>
<circle cx="157.5" cy="158.445" r="3.5" fill="#EA8B2B" stroke="white"/>
<path fill-rule="evenodd" clip-rule="evenodd" d="M150.607 122.875C150.607 122.546 150.671 122.221 150.797 121.918C150.922 121.615 151.107 121.339 151.339 121.107C151.571 120.875 151.846 120.691 152.15 120.565C152.453 120.44 152.778 120.375 153.106 120.375C153.435 120.375 153.76 120.44 154.063 120.565C154.366 120.691 154.642 120.875 154.874 121.107C155.106 121.339 155.29 121.615 155.416 121.918C155.541 122.221 155.606 122.546 155.606 122.875C155.606 123.538 155.343 124.173 154.874 124.642C154.405 125.111 153.769 125.374 153.106 125.374C152.443 125.374 151.807 125.111 151.339 124.642C150.87 124.173 150.607 123.538 150.607 122.875ZM159.513 122.875C159.513 122.212 159.776 121.576 160.245 121.107C160.714 120.638 161.35 120.375 162.013 120.375C162.675 120.375 163.311 120.638 163.78 121.107C164.249 121.576 164.512 122.212 164.512 122.875C164.512 123.538 164.249 124.173 163.78 124.642C163.311 125.111 162.675 125.374 162.013 125.374C161.35 125.374 160.714 125.111 160.245 124.642C159.776 124.173 159.513 123.538 159.513 122.875ZM155 126.437C155 125.774 155.264 125.138 155.732 124.67C156.201 124.201 156.837 123.938 157.5 123.938C158.163 123.938 158.799 124.201 159.268 124.67C159.736 125.138 160 125.774 160 126.437C160 127.1 159.736 127.736 159.268 128.205C158.799 128.674 158.163 128.937 157.5 128.937C156.837 128.937 156.201 128.674 155.732 128.205C155.264 127.736 155 127.1 155 126.437ZM153.938 127.075C153.938 126.523 153.49 126.075 152.937 126.075H152.156C151.369 126.075 150.614 126.388 150.057 126.945C149.5 127.501 149.188 128.256 149.188 129.044V129.469C149.188 130.021 149.635 130.469 150.188 130.469H152.938C153.49 130.469 153.938 130.021 153.938 129.469V127.075ZM161.062 127.075C161.062 126.523 161.51 126.075 162.063 126.075H162.844C163.631 126.075 164.386 126.388 164.943 126.945C165.5 127.501 165.812 128.256 165.812 129.044V129.469C165.812 130.021 165.365 130.469 164.812 130.469H162.062C161.51 130.469 161.062 130.021 161.062 129.469V127.075ZM153.581 132.606C153.581 131.819 153.894 131.064 154.451 130.507C155.008 129.95 155.763 129.638 156.55 129.638H158.45C159.237 129.638 159.992 129.95 160.549 130.507C161.106 131.064 161.419 131.819 161.419 132.606V133.625C161.419 134.177 160.971 134.625 160.419 134.625H154.581C154.029 134.625 153.581 134.177 153.581 133.625V132.606Z" fill="white"/>
<defs>
<filter id="filter0_f_3243_5794" x="0" y="0" width="316" height="316" filterUnits="userSpaceOnUse" color-interpolation-filters="sRGB">
<feFlood flood-opacity="0" result="BackgroundImageFix"/>
<feBlend mode="normal" in="SourceGraphic" in2="BackgroundImageFix" result="shape"/>
<feGaussianBlur stdDeviation="25" result="effect1_foregroundBlur_3243_5794"/>
</filter>
<filter id="filter1_d_3243_5794" x="126" y="96" width="63" height="67.4448" filterUnits="userSpaceOnUse" color-interpolation-filters="sRGB">
<feFlood flood-opacity="0" result="BackgroundImageFix"/>
<feColorMatrix in="SourceAlpha" type="matrix" values="0 0 0 0 0 0 0 0 0 0 0 0 0 0 0 0 0 0 127 0" result="hardAlpha"/>
<feMorphology radius="1" operator="dilate" in="SourceAlpha" result="effect1_dropShadow_3243_5794"/>
<feOffset/>
<feGaussianBlur stdDeviation="5.5"/>
<feComposite in2="hardAlpha" operator="out"/>
<feColorMatrix type="matrix" values="0 0 0 0 0.917647 0 0 0 0 0.545098 0 0 0 0 0.168627 0 0 0 1 0"/>
<feBlend mode="normal" in2="BackgroundImageFix" result="effect1_dropShadow_3243_5794"/>
<feBlend mode="normal" in="SourceGraphic" in2="effect1_dropShadow_3243_5794" result="shape"/>
</filter>
</defs>
</svg>
