<svg width="63" height="68" viewBox="0 0 63 68" fill="none" xmlns="http://www.w3.org/2000/svg">
<g filter="url(#filter0_d_2766_11433)">
<mask id="path-1-inside-1_2766_11433" fill="white">
<path d="M31.5 12C42.2696 12 51 20.7304 51 31.5C51 40.3196 45.1446 47.771 37.1094 50.1804C36.9173 50.238 36.7445 50.3487 36.6156 50.5023L32.7658 55.0879C32.3662 55.5638 31.6338 55.5639 31.2341 55.088L27.667 50.8401C27.5233 50.6691 27.3258 50.5518 27.1081 50.5017C18.4538 48.5096 12 40.7592 12 31.5C12 20.7304 20.7304 12 31.5 12Z"/>
</mask>
<path d="M31.5 12C42.2696 12 51 20.7304 51 31.5C51 40.3196 45.1446 47.771 37.1094 50.1804C36.9173 50.238 36.7445 50.3487 36.6156 50.5023L32.7658 55.0879C32.3662 55.5638 31.6338 55.5639 31.2341 55.088L27.667 50.8401C27.5233 50.6691 27.3258 50.5518 27.1081 50.5017C18.4538 48.5096 12 40.7592 12 31.5C12 20.7304 20.7304 12 31.5 12Z" fill="#EA8B2B"/>
<path d="M27.667 50.8401L26.9012 51.4832L27.667 50.8401ZM27.1081 50.5017L27.3324 49.5272L27.1081 50.5017ZM32.7658 55.0879L31.9999 54.4449L32.7658 55.0879ZM31.2341 55.088L31.9999 54.4449L31.2341 55.088ZM37.1094 50.1804L37.3966 51.1383L37.1094 50.1804ZM36.6156 50.5023L37.3815 51.1452L36.6156 50.5023ZM31.5 12V13C41.7173 13 50 21.2827 50 31.5H51H52C52 20.1782 42.8218 11 31.5 11V12ZM51 31.5H50C50 39.8658 44.4461 46.9365 36.8221 49.2226L37.1094 50.1804L37.3966 51.1383C45.8431 48.6056 52 40.7734 52 31.5H51ZM36.6156 50.5023L35.8498 49.8593L31.9999 54.4449L32.7658 55.0879L33.5317 55.7309L37.3815 51.1452L36.6156 50.5023ZM31.2341 55.088L31.9999 54.4449L28.4328 50.197L27.667 50.8401L26.9012 51.4832L30.4683 55.731L31.2341 55.088ZM27.1081 50.5017L27.3324 49.5272C19.1219 47.6372 13 40.283 13 31.5H12H11C11 41.2355 17.7856 49.3819 26.8838 51.4762L27.1081 50.5017ZM12 31.5H13C13 21.2827 21.2827 13 31.5 13V12V11C20.1782 11 11 20.1782 11 31.5H12ZM27.667 50.8401L28.4328 50.197C28.1431 49.8521 27.752 49.6238 27.3324 49.5272L27.1081 50.5017L26.8838 51.4762C26.8911 51.4779 26.8963 51.4803 26.8993 51.4821C26.9021 51.4839 26.9023 51.4846 26.9012 51.4832L27.667 50.8401ZM32.7658 55.0879L31.9999 54.4449V54.4449L31.2341 55.088L30.4683 55.731C31.2676 56.6829 32.7324 56.6828 33.5317 55.7309L32.7658 55.0879ZM37.1094 50.1804L36.8221 49.2226C36.4517 49.3337 36.1096 49.5497 35.8498 49.8593L36.6156 50.5023L37.3815 51.1452C37.3795 51.1477 37.383 51.1424 37.3966 51.1383L37.1094 50.1804Z" fill="white" mask="url(#path-1-inside-1_2766_11433)"/>
</g>
<circle cx="31.5" cy="62.4448" r="3.5" fill="#EA8B2B" stroke="white"/>
<path d="M30.5464 24.8501H28.2842C27.4114 24.8501 26.6485 25.4468 26.4406 26.2929L23.941 36.3837C23.7183 37.2803 24.3981 38.1501 25.3244 38.1501H30.5464V36.2501C30.5464 35.7246 30.971 35.3001 31.4964 35.3001C32.0219 35.3001 32.4464 35.7246 32.4464 36.2501V38.1501H37.6744C38.6006 38.1501 39.2805 37.2803 39.0578 36.3837L36.5611 26.2929C36.3503 25.4468 35.5903 24.8501 34.7146 24.8501H32.4464V26.7501C32.4464 27.2756 32.0219 27.7001 31.4964 27.7001C30.971 27.7001 30.5464 27.2756 30.5464 26.7501V24.8501ZM32.4464 30.5501V32.4501C32.4464 32.9756 32.0219 33.4001 31.4964 33.4001C30.971 33.4001 30.5464 32.9756 30.5464 32.4501V30.5501C30.5464 30.0246 30.971 29.6001 31.4964 29.6001C32.0219 29.6001 32.4464 30.0246 32.4464 30.5501Z" fill="white"/>
<defs>
<filter id="filter0_d_2766_11433" x="0" y="0" width="63" height="67.4448" filterUnits="userSpaceOnUse" color-interpolation-filters="sRGB">
<feFlood flood-opacity="0" result="BackgroundImageFix"/>
<feColorMatrix in="SourceAlpha" type="matrix" values="0 0 0 0 0 0 0 0 0 0 0 0 0 0 0 0 0 0 127 0" result="hardAlpha"/>
<feMorphology radius="1" operator="dilate" in="SourceAlpha" result="effect1_dropShadow_2766_11433"/>
<feOffset/>
<feGaussianBlur stdDeviation="5.5"/>
<feComposite in2="hardAlpha" operator="out"/>
<feColorMatrix type="matrix" values="0 0 0 0 0.917647 0 0 0 0 0.545098 0 0 0 0 0.168627 0 0 0 1 0"/>
<feBlend mode="normal" in2="BackgroundImageFix" result="effect1_dropShadow_2766_11433"/>
<feBlend mode="normal" in="SourceGraphic" in2="effect1_dropShadow_2766_11433" result="shape"/>
</filter>
</defs>
</svg>
