<svg width="16" height="14" viewBox="0 0 16 14" fill="none" xmlns="http://www.w3.org/2000/svg">
<path d="M4.53474 11.25H6.78474V10.5H5.28474V9.75H6.78474V7.5H4.53474V8.25H6.03474V9H4.53474V11.25ZM9.78474 11.25H10.5347V7.5H9.78474V9H9.03474V7.5H8.28474V9.75H9.78474V11.25ZM14.2847 6.0375V12C14.2847 12.4125 14.138 12.7657 13.8445 13.0597C13.551 13.3538 13.1977 13.5005 12.7847 13.5H2.28474C1.87224 13.5 1.51924 13.3533 1.22574 13.0597C0.932239 12.7662 0.785239 12.413 0.784739 12V6.0375C0.497239 5.775 0.275489 5.4375 0.119489 5.025C-0.0365106 4.6125 -0.0397606 4.1625 0.109739 3.675L0.897239 1.125C0.997239 0.8 1.17549 0.53125 1.43199 0.31875C1.68849 0.10625 1.98524 0 2.32224 0H12.7472C13.0847 0 13.3785 0.10325 13.6285 0.30975C13.8785 0.51625 14.0597 0.788 14.1722 1.125L14.9597 3.675C15.1097 4.1625 15.1067 4.60625 14.9507 5.00625C14.7947 5.40625 14.5727 5.75 14.2847 6.0375ZM9.18474 5.25C9.52224 5.25 9.77849 5.1345 9.95349 4.9035C10.1285 4.6725 10.1972 4.413 10.1597 4.125L9.74724 1.5H8.28474V4.275C8.28474 4.5375 8.37224 4.76575 8.54724 4.95975C8.72224 5.15375 8.93474 5.2505 9.18474 5.25ZM5.80974 5.25C6.09724 5.25 6.33174 5.153 6.51324 4.959C6.69474 4.765 6.78524 4.537 6.78474 4.275V1.5H5.32224L4.90974 4.125C4.85974 4.425 4.92524 4.6875 5.10624 4.9125C5.28724 5.1375 5.52174 5.25 5.80974 5.25ZM2.47224 5.25C2.69724 5.25 2.89399 5.16875 3.06249 5.00625C3.23099 4.84375 3.33424 4.6375 3.37224 4.3875L3.78474 1.5H2.32224L1.57224 4.0125C1.49724 4.2625 1.53774 4.53125 1.69374 4.81875C1.84974 5.10625 2.10924 5.25 2.47224 5.25ZM12.5972 5.25C12.9597 5.25 13.2222 5.10625 13.3847 4.81875C13.5472 4.53125 13.5847 4.2625 13.4972 4.0125L12.7097 1.5H11.2847L11.6972 4.3875C11.7347 4.6375 11.838 4.84375 12.007 5.00625C12.176 5.16875 12.3727 5.25 12.5972 5.25Z" fill="#AB9FD5"/>
</svg>
