<svg width="18" height="18" viewBox="0 0 18 18" fill="none" xmlns="http://www.w3.org/2000/svg">
<path d="M4.50039 3.5981C4.50039 2.60528 5.30758 1.7981 6.30039 1.7981H11.7004C12.6932 1.7981 13.5004 2.60528 13.5004 3.5981V5.3981H15.3004C16.2932 5.3981 17.1004 6.20528 17.1004 7.1981V14.3981C17.1004 15.3909 16.2932 16.1981 15.3004 16.1981H2.70039C1.70758 16.1981 0.900391 15.3909 0.900391 14.3981V7.1981C0.900391 6.20528 1.70758 5.3981 2.70039 5.3981H4.50039V3.5981ZM8.55039 11.6981C8.05258 11.6981 7.65039 12.1003 7.65039 12.5981V14.8481H10.3504V12.5981C10.3504 12.1003 9.9482 11.6981 9.45039 11.6981H8.55039ZM4.50039 12.1481V11.2481C4.50039 11.0006 4.29789 10.7981 4.05039 10.7981H3.15039C2.90289 10.7981 2.70039 11.0006 2.70039 11.2481V12.1481C2.70039 12.3956 2.90289 12.5981 3.15039 12.5981H4.05039C4.29789 12.5981 4.50039 12.3956 4.50039 12.1481ZM4.05039 8.9981C4.29789 8.9981 4.50039 8.7956 4.50039 8.5481V7.6481C4.50039 7.4006 4.29789 7.1981 4.05039 7.1981H3.15039C2.90289 7.1981 2.70039 7.4006 2.70039 7.6481V8.5481C2.70039 8.7956 2.90289 8.9981 3.15039 8.9981H4.05039ZM15.3004 12.1481V11.2481C15.3004 11.0006 15.0979 10.7981 14.8504 10.7981H13.9504C13.7029 10.7981 13.5004 11.0006 13.5004 11.2481V12.1481C13.5004 12.3956 13.7029 12.5981 13.9504 12.5981H14.8504C15.0979 12.5981 15.3004 12.3956 15.3004 12.1481ZM14.8504 8.9981C15.0979 8.9981 15.3004 8.7956 15.3004 8.5481V7.6481C15.3004 7.4006 15.0979 7.1981 14.8504 7.1981H13.9504C13.7029 7.1981 13.5004 7.4006 13.5004 7.6481V8.5481C13.5004 8.7956 13.7029 8.9981 13.9504 8.9981H14.8504ZM8.32539 4.7231V5.6231H7.42539C7.17789 5.6231 6.97539 5.8256 6.97539 6.0731V6.5231C6.97539 6.7706 7.17789 6.9731 7.42539 6.9731H8.32539V7.8731C8.32539 8.1206 8.52789 8.3231 8.77539 8.3231H9.22539C9.47289 8.3231 9.67539 8.1206 9.67539 7.8731V6.9731H10.5754C10.8229 6.9731 11.0254 6.7706 11.0254 6.5231V6.0731C11.0254 5.8256 10.8229 5.6231 10.5754 5.6231H9.67539V4.7231C9.67539 4.4756 9.47289 4.2731 9.22539 4.2731H8.77539C8.52789 4.2731 8.32539 4.4756 8.32539 4.7231Z" fill="#AB9FD5"/>
</svg>
