<svg width="14" height="17" viewBox="0 0 14 17" fill="none" xmlns="http://www.w3.org/2000/svg">
<path d="M12 4.50171H1.5C1.30109 4.50171 1.11032 4.58073 0.96967 4.72138C0.829018 4.86203 0.75 5.0528 0.75 5.25171V15.0017C0.75 15.2006 0.829018 15.3914 0.96967 15.532C1.11032 15.6727 1.30109 15.7517 1.5 15.7517H12C12.1989 15.7517 12.3897 15.6727 12.5303 15.532C12.671 15.3914 12.75 15.2006 12.75 15.0017V5.25171C12.75 5.0528 12.671 4.86203 12.5303 4.72138C12.3897 4.58073 12.1989 4.50171 12 4.50171Z" fill="#AB9FD5" stroke="#AB9FD5" stroke-width="1.5" stroke-linecap="round" stroke-linejoin="round"/>
<path d="M4.125 6V3.375C4.125 3.03028 4.1929 2.68894 4.32482 2.37046C4.45673 2.05198 4.65009 1.7626 4.89384 1.51884C5.1376 1.27509 5.42698 1.08173 5.74546 0.949816C6.06394 0.817898 6.40528 0.75 6.75 0.75C7.09472 0.75 7.43606 0.817898 7.75454 0.949816C8.07302 1.08173 8.3624 1.27509 8.60615 1.51884C8.84991 1.7626 9.04327 2.05198 9.17518 2.37046C9.3071 2.68894 9.375 3.03028 9.375 3.375V6" stroke="#AB9FD5" stroke-width="1.5" stroke-linecap="round" stroke-linejoin="round"/>
</svg>
