<svg width="18" height="17" viewBox="0 0 18 17" fill="none" xmlns="http://www.w3.org/2000/svg">
<path d="M15.0938 16.1875C16.2181 16.1875 17.0625 15.2311 17.0625 14.1365V2.051C17.0625 0.956375 16.2181 0 15.0938 0H8.09375C6.96938 0 6.125 0.956375 6.125 2.051V7.55475C5.91473 7.4778 5.69265 7.43812 5.46875 7.4375H1.96875C0.844375 7.4375 0 8.39388 0 9.4885V14.1365C0 15.2311 0.844375 16.1875 1.96875 16.1875H15.0938ZM12.0312 10.6094C12.3567 10.6094 12.6875 10.9016 12.6875 11.3479V14.875H10.5V11.3479C10.5 10.9016 10.8308 10.6094 11.1562 10.6094H12.0312ZM11.025 7.26688V6.272H10.1062C9.9322 6.272 9.76528 6.20286 9.64221 6.07979C9.51914 5.95672 9.45 5.7898 9.45 5.61575C9.45 5.4417 9.51914 5.27478 9.64221 5.15171C9.76528 5.02864 9.9322 4.9595 10.1062 4.9595H11.025V3.962C11.025 3.78795 11.0941 3.62103 11.2172 3.49796C11.3403 3.37489 11.5072 3.30575 11.6813 3.30575C11.8553 3.30575 12.0222 3.37489 12.1453 3.49796C12.2684 3.62103 12.3375 3.78795 12.3375 3.962V4.9595H13.2562L13.3236 4.963C13.4851 4.97974 13.6346 5.05573 13.7433 5.17629C13.852 5.29685 13.9122 5.45342 13.9122 5.61575C13.9122 5.77808 13.852 5.93465 13.7433 6.05521C13.6346 6.17577 13.4851 6.25176 13.3236 6.2685L13.2562 6.272H12.3375V7.26863C12.3375 7.44267 12.2684 7.60959 12.1453 7.73266C12.0222 7.85573 11.8553 7.92488 11.6813 7.92488C11.5072 7.92488 11.3403 7.85573 11.2172 7.73266C11.0941 7.60959 11.025 7.44267 11.025 7.26863M4.59375 12.397L4.66113 12.4005C4.82259 12.4172 4.97212 12.4932 5.08082 12.6138C5.18952 12.7344 5.24969 12.8909 5.24969 13.0532C5.24969 13.2156 5.18952 13.3721 5.08082 13.4927C4.97212 13.6133 4.82259 13.6893 4.66113 13.706L4.59375 13.7095H3.01875C2.8447 13.7095 2.67778 13.6404 2.55471 13.5173C2.43164 13.3942 2.3625 13.2273 2.3625 13.0532C2.3625 12.8792 2.43164 12.7123 2.55471 12.5892C2.67778 12.4661 2.8447 12.397 3.01875 12.397H4.59375ZM4.59375 9.91725C4.7678 9.91725 4.93472 9.98639 5.05779 10.1095C5.18086 10.2325 5.25 10.3995 5.25 10.5735C5.25 10.7475 5.18086 10.9145 5.05779 11.0375C4.93472 11.1606 4.7678 11.2297 4.59375 11.2297H3.01875C2.8447 11.2297 2.67778 11.1606 2.55471 11.0375C2.43164 10.9145 2.3625 10.7475 2.3625 10.5735C2.3625 10.3995 2.43164 10.2325 2.55471 10.1095C2.67778 9.98639 2.8447 9.91725 3.01875 9.91725H4.59375Z" fill="white"/>
</svg>
