<svg width="22" height="32" viewBox="0 0 22 32" fill="none" xmlns="http://www.w3.org/2000/svg">
<path d="M21.0294 8.3457H19.4118C19.2402 8.3457 19.0756 8.27551 18.9542 8.15057C18.8329 8.02563 18.7647 7.85617 18.7647 7.67948V6.01393C18.7647 5.83724 18.8329 5.66778 18.9542 5.54284C19.0756 5.4179 19.2402 5.34771 19.4118 5.34771H20.3824C20.6398 5.34771 20.8866 5.24243 21.0687 5.05502C21.2507 4.86761 21.3529 4.61342 21.3529 4.34838C21.3529 4.08335 21.2507 3.82916 21.0687 3.64175C20.8866 3.45434 20.6398 3.34906 20.3824 3.34906H15.0894C14.9454 3.34981 14.8055 3.30009 14.6926 3.20807C14.5797 3.11605 14.5006 2.9872 14.4682 2.84273C14.2877 2.03481 13.8465 1.31379 13.2165 0.79746C12.5866 0.281128 11.8052 0 11 0C10.1948 0 9.41344 0.281128 8.78349 0.79746C8.15355 1.31379 7.71228 2.03481 7.53176 2.84273C7.49944 2.9872 7.42033 3.11605 7.30743 3.20807C7.19453 3.30009 7.05458 3.34981 6.91059 3.34906H1.61765C1.36023 3.34906 1.11336 3.45434 0.931337 3.64175C0.749317 3.82916 0.647059 4.08335 0.647059 4.34838C0.647059 4.61342 0.749317 4.86761 0.931337 5.05502C1.11336 5.24243 1.36023 5.34771 1.61765 5.34771H2.58824C2.75985 5.34771 2.92443 5.4179 3.04577 5.54284C3.16712 5.66778 3.23529 5.83724 3.23529 6.01393V7.67948C3.23529 7.85617 3.16712 8.02563 3.04577 8.15057C2.92443 8.27551 2.75985 8.3457 2.58824 8.3457H0.970588C0.713172 8.3457 0.466299 8.45099 0.284279 8.6384C0.102258 8.82581 0 9.07999 0 9.34503C0 9.61007 0.102258 9.86425 0.284279 10.0517C0.466299 10.2391 0.713172 10.3444 0.970588 10.3444H2.58824C2.75985 10.3444 2.92443 10.4145 3.04577 10.5395C3.16712 10.6644 3.23529 10.8339 3.23529 11.0106V16.6734C3.23529 20.1111 4.90471 21.337 6.47059 21.337H15.5294C17.0953 21.337 18.7647 20.1111 18.7647 16.6734V11.0106C18.7647 10.8339 18.8329 10.6644 18.9542 10.5395C19.0756 10.4145 19.2402 10.3444 19.4118 10.3444H21.0294C21.2868 10.3444 21.5337 10.2391 21.7157 10.0517C21.8977 9.86425 22 9.61007 22 9.34503C22 9.07999 21.8977 8.82581 21.7157 8.6384C21.5337 8.45099 21.2868 8.3457 21.0294 8.3457ZM12.3976 3.17584C12.373 3.22833 12.3344 3.27251 12.2863 3.30319C12.2381 3.33387 12.1825 3.34978 12.1259 3.34906H9.87412C9.81751 3.34978 9.76187 3.33387 9.71374 3.30319C9.6656 3.27251 9.62696 3.22833 9.60235 3.17584C9.57116 3.12623 9.55456 3.06839 9.55456 3.00928C9.55456 2.95018 9.57116 2.89234 9.60235 2.84273C9.74477 2.59111 9.94877 2.38234 10.194 2.23723C10.4392 2.09213 10.7172 2.01577 11 2.01577C11.2828 2.01577 11.5608 2.09213 11.806 2.23723C12.0512 2.38234 12.2552 2.59111 12.3976 2.84273C12.4288 2.89234 12.4454 2.95018 12.4454 3.00928C12.4454 3.06839 12.4288 3.12623 12.3976 3.17584ZM2.04471 24.9879C1.14837 26.1468 0.55576 27.5231 0.323529 28.9852C0.309115 29.3835 0.374471 29.7806 0.515529 30.1518C0.656588 30.5229 0.870331 30.8603 1.14346 31.1427C1.41658 31.4252 1.74325 31.6468 2.10313 31.7936C2.463 31.9405 2.84838 32.0096 3.23529 31.9965C3.62108 32.0095 4.00534 31.9408 4.36431 31.7947C4.72328 31.6486 5.04932 31.4283 5.32226 31.1473C5.59519 30.8662 5.80922 30.5306 5.95109 30.161C6.09296 29.7914 6.15966 29.3957 6.14706 28.9985C5.91483 27.5364 5.32222 26.1601 4.42588 25.0012C4.29166 24.8051 4.11388 24.645 3.90737 24.534C3.70086 24.423 3.47158 24.3644 3.23863 24.3631C3.00568 24.3618 2.77579 24.4178 2.56812 24.5265C2.36045 24.6352 2.18099 24.7933 2.04471 24.9879ZM9.70588 24.0019C8.67146 25.334 7.98538 26.9165 7.71294 28.5988C7.6908 29.0498 7.76057 29.5007 7.91775 29.9224C8.07494 30.344 8.31606 30.7272 8.62563 31.0472C8.9352 31.3672 9.30637 31.6169 9.71529 31.7804C10.1242 31.9439 10.5618 32.0175 11 31.9965C11.4305 32.0113 11.8593 31.935 12.2599 31.7722C12.6605 31.6093 13.0244 31.3635 13.3289 31.05C13.6335 30.7364 13.8722 30.3618 14.0304 29.9493C14.1885 29.5368 14.2627 29.0953 14.2482 28.6521C13.9985 26.9541 13.3252 25.3518 12.2941 24.0019C12.1568 23.7761 11.966 23.59 11.7396 23.461C11.5132 23.3319 11.2587 23.2642 11 23.2642C10.7413 23.2642 10.4868 23.3319 10.2604 23.461C10.034 23.59 9.84323 23.7761 9.70588 24.0019ZM17.5741 24.9879C16.6778 26.1468 16.0852 27.5231 15.8529 28.9852C15.8529 29.7803 16.1597 30.5428 16.7058 31.1051C17.2518 31.6673 17.9925 31.9832 18.7647 31.9832C19.537 31.9832 20.2776 31.6673 20.8236 31.1051C21.3697 30.5428 21.6765 29.7803 21.6765 28.9852C21.4442 27.5231 20.8516 26.1468 19.9553 24.9879C19.82 24.7926 19.6414 24.6334 19.4343 24.5236C19.2272 24.4138 18.9977 24.3565 18.7647 24.3565C18.5318 24.3565 18.3022 24.4138 18.0951 24.5236C17.888 24.6334 17.7094 24.7926 17.5741 24.9879Z" fill="#8298A8"/>
</svg>
