<svg width="22" height="31" viewBox="0 0 22 31" fill="none" xmlns="http://www.w3.org/2000/svg">
<path d="M3.14286 0H18.8571C19.6907 0 20.4901 0.326606 21.0795 0.907969C21.6689 1.48933 22 2.27783 22 3.1V10.85H0V3.1C0 2.27783 0.331121 1.48933 0.920521 0.907969C1.50992 0.326606 2.30932 0 3.14286 0ZM22 26.35C22 27.1722 21.6689 27.9607 21.0795 28.542C20.4901 29.1234 19.6907 29.45 18.8571 29.45V31H15.7143V29.45H6.28571V31H3.14286V29.45C2.30932 29.45 1.50992 29.1234 0.920521 28.542C0.331121 27.9607 0 27.1722 0 26.35V12.4H22V26.35ZM4.71429 4.65V7.75H7.85714V4.65H4.71429ZM4.71429 15.5V20.15H7.85714V15.5H4.71429Z" fill="#8298A8"/>
</svg>
