<svg width="25" height="23" viewBox="0 0 25 23" fill="none" xmlns="http://www.w3.org/2000/svg">
<path d="M8.75 20H12.5V12.4275L7.5 8.0675L2.5 12.4275V20H6.25V15H8.75V20ZM23.75 22.5H1.25C0.918479 22.5 0.600537 22.3683 0.366116 22.1339C0.131696 21.8995 7.48379e-09 21.5815 7.48379e-09 21.25V11.8588C-1.9536e-05 11.6801 0.0382386 11.5036 0.112197 11.341C0.186156 11.1784 0.294097 11.0336 0.42875 10.9162L5 6.93V1.25C5 0.918479 5.1317 0.600537 5.36612 0.366116C5.60054 0.131696 5.91848 0 6.25 0H23.75C24.0815 0 24.3995 0.131696 24.6339 0.366116C24.8683 0.600537 25 0.918479 25 1.25V21.25C25 21.5815 24.8683 21.8995 24.6339 22.1339C24.3995 22.3683 24.0815 22.5 23.75 22.5ZM17.5 10V12.5H20V10H17.5ZM17.5 15V17.5H20V15H17.5ZM17.5 5V7.5H20V5H17.5ZM12.5 5V7.5H15V5H12.5Z" fill="#8298A8"/>
</svg>
