<svg width="988" height="988" viewBox="0 0 988 988" fill="none" xmlns="http://www.w3.org/2000/svg">
<g filter="url(#filter0_f_3137_3276)">
<path d="M200 494C200 331.628 331.628 200 494 200V200C656.372 200 788 331.628 788 494V494C788 656.372 656.372 788 494 788V788C331.628 788 200 656.372 200 494V494Z" fill="#30CEA1" fill-opacity="0.05"/>
</g>
<g filter="url(#filter1_d_3137_3276)">
<path d="M485.75 477.387L458.08 504.999L39 505L144 180L485.75 180V477.387Z" fill="url(#paint0_linear_3137_3276)" shape-rendering="crispEdges"/>
<path d="M485.75 477.387L458.08 504.999L39 505L144 180L485.75 180V477.387Z" stroke="white" shape-rendering="crispEdges"/>
</g>
<g filter="url(#filter2_d_3137_3276)">
<path d="M36 793.5L369.75 533H36V793.5Z" fill="white"/>
<path d="M36 793.5L369.75 533H36V793.5Z" stroke="white"/>
</g>
<g filter="url(#filter3_d_3137_3276)">
<path d="M479.75 533V834.5H36L429.445 533H479.75Z" fill="white"/>
<path d="M479.75 533V834.5H36L429.445 533H479.75Z" stroke="white"/>
</g>
<g filter="url(#filter4_d_3137_3276)">
<path d="M651.75 336.543L508.75 479V172H651.75V336.543Z" fill="white"/>
<path d="M651.75 336.543L508.75 479V172H651.75V336.543Z" stroke="white"/>
</g>
<g filter="url(#filter5_d_3137_3276)">
<path d="M939 533H509V834H939V533Z" fill="white"/>
<path d="M939 533H509V834H939V533Z" stroke="white"/>
</g>
<g filter="url(#filter6_d_3137_3276)">
<path d="M651.285 363L508.75 505H938.5V363H651.285Z" fill="white"/>
<path d="M651.285 363L508.75 505H938.5V363H651.285Z" stroke="white"/>
</g>
<g opacity="0.6" filter="url(#filter7_d_3137_3276)">
<mask id="path-8-inside-1_3137_3276" fill="white">
<path d="M490.312 424.023C493.565 422.335 497.436 422.335 500.689 424.023L573.923 462.021C577.657 463.959 580.001 467.816 580.001 472.022V545.549C580.001 551.771 574.957 556.815 568.734 556.815H525.369L498.771 584.906C496.993 586.784 494.003 586.784 492.226 584.906L465.627 556.815H422.268C416.045 556.815 411.001 551.771 411.001 545.549V472.022C411.001 467.816 413.344 463.959 417.078 462.021L490.312 424.023ZM413.259 471.718C413.255 471.819 413.254 471.921 413.254 472.022L413.26 471.708L413.259 471.718Z"/>
</mask>
<path d="M490.312 424.023C493.565 422.335 497.436 422.335 500.689 424.023L573.923 462.021C577.657 463.959 580.001 467.816 580.001 472.022V545.549C580.001 551.771 574.957 556.815 568.734 556.815H525.369L498.771 584.906C496.993 586.784 494.003 586.784 492.226 584.906L465.627 556.815H422.268C416.045 556.815 411.001 551.771 411.001 545.549V472.022C411.001 467.816 413.344 463.959 417.078 462.021L490.312 424.023ZM413.259 471.718C413.255 471.819 413.254 471.921 413.254 472.022L413.26 471.708L413.259 471.718Z" fill="url(#paint1_linear_3137_3276)"/>
<path d="M490.312 424.023L490.772 424.911V424.911L490.312 424.023ZM500.689 424.023L500.229 424.911V424.911L500.689 424.023ZM573.923 462.021L574.383 461.134L574.383 461.134L573.923 462.021ZM580.001 472.022H581.001V472.022L580.001 472.022ZM568.734 556.815V557.815H568.734L568.734 556.815ZM525.369 556.815V555.815H524.939L524.643 556.128L525.369 556.815ZM498.771 584.906L498.044 584.219L498.044 584.219L498.771 584.906ZM492.226 584.906L492.952 584.219L492.952 584.219L492.226 584.906ZM465.627 556.815L466.353 556.128L466.057 555.815H465.627V556.815ZM411.001 472.022L410.001 472.022V472.022H411.001ZM417.078 462.021L416.618 461.134L416.618 461.134L417.078 462.021ZM413.259 471.718L412.264 471.618L412.26 471.651L412.259 471.684L413.259 471.718ZM413.254 472.022L412.254 472.022L414.254 472.041L413.254 472.022ZM413.26 471.708L414.26 471.727L412.265 471.609L413.26 471.708ZM490.312 424.023L490.772 424.911C493.737 423.373 497.264 423.373 500.229 424.911L500.689 424.023L501.15 423.136C497.608 421.298 493.393 421.298 489.851 423.136L490.312 424.023ZM500.689 424.023L500.229 424.911L573.462 462.909L573.923 462.021L574.383 461.134L501.15 423.136L500.689 424.023ZM573.923 462.021L573.462 462.909C576.865 464.675 579.001 468.189 579.001 472.022L580.001 472.022L581.001 472.022C581.001 467.442 578.449 463.243 574.383 461.134L573.923 462.021ZM580.001 472.022H579.001V545.549H580.001H581.001V472.022H580.001ZM580.001 545.549H579.001C579.001 551.219 574.404 555.815 568.734 555.815L568.734 556.815L568.734 557.815C575.509 557.815 581.001 552.323 581.001 545.549H580.001ZM568.734 556.815V555.815H525.369V556.815V557.815H568.734V556.815ZM525.369 556.815L524.643 556.128L498.044 584.219L498.771 584.906L499.497 585.594L526.095 557.503L525.369 556.815ZM498.771 584.906L498.044 584.219C496.661 585.68 494.335 585.68 492.952 584.219L492.226 584.906L491.499 585.594C493.672 587.888 497.324 587.888 499.497 585.594L498.771 584.906ZM492.226 584.906L492.952 584.219L466.353 556.128L465.627 556.815L464.901 557.503L491.499 585.594L492.226 584.906ZM465.627 556.815V555.815H422.268V556.815V557.815H465.627V556.815ZM422.268 556.815V555.815C416.597 555.815 412.001 551.219 412.001 545.549H411.001H410.001C410.001 552.324 415.493 557.815 422.268 557.815V556.815ZM411.001 545.549H412.001V472.022H411.001H410.001V545.549H411.001ZM411.001 472.022L412.001 472.022C412.001 468.189 414.136 464.675 417.539 462.909L417.078 462.021L416.618 461.134C412.552 463.243 410.001 467.443 410.001 472.022L411.001 472.022ZM417.078 462.021L417.539 462.909L490.772 424.911L490.312 424.023L489.851 423.136L416.618 461.134L417.078 462.021ZM413.259 471.718L412.259 471.684C412.255 471.798 412.254 471.911 412.254 472.022L413.254 472.022L414.254 472.022C414.254 471.93 414.255 471.84 414.258 471.752L413.259 471.718ZM413.254 472.022L414.254 472.041L414.26 471.727L413.26 471.708L412.26 471.689L412.254 472.004L413.254 472.022ZM413.26 471.708L412.265 471.609L412.264 471.618L413.259 471.718L414.254 471.817L414.255 471.808L413.26 471.708Z" fill="white" mask="url(#path-8-inside-1_3137_3276)"/>
<path d="M495.5 475.279C507.927 475.279 518 485.352 518 497.779C518 509.089 509.656 518.448 498.788 520.039C498.448 520.089 498.147 519.822 498.147 519.479V504.487C498.147 504.03 497.876 503.617 497.458 503.435L483.5 497.367C483.142 497.212 482.731 497.248 482.406 497.464L473.891 503.141C473.51 503.395 473 503.122 473 502.664V477.456C473 476.254 473.975 475.279 475.177 475.279H495.5Z" fill="white"/>
<rect x="473" y="511.569" width="8.70981" height="8.70976" rx="0.573513" fill="white"/>
</g>
<defs>
<filter id="filter0_f_3137_3276" x="0" y="0" width="988" height="988" filterUnits="userSpaceOnUse" color-interpolation-filters="sRGB">
<feFlood flood-opacity="0" result="BackgroundImageFix"/>
<feBlend mode="normal" in="SourceGraphic" in2="BackgroundImageFix" result="shape"/>
<feGaussianBlur stdDeviation="100" result="effect1_foregroundBlur_3137_3276"/>
</filter>
<filter id="filter1_d_3137_3276" x="28.313" y="179.5" width="487.937" height="366" filterUnits="userSpaceOnUse" color-interpolation-filters="sRGB">
<feFlood flood-opacity="0" result="BackgroundImageFix"/>
<feColorMatrix in="SourceAlpha" type="matrix" values="0 0 0 0 0 0 0 0 0 0 0 0 0 0 0 0 0 0 127 0" result="hardAlpha"/>
<feOffset dx="10" dy="20"/>
<feGaussianBlur stdDeviation="10"/>
<feComposite in2="hardAlpha" operator="out"/>
<feColorMatrix type="matrix" values="0 0 0 0 0.870588 0 0 0 0 0.980392 0 0 0 0 0.94902 0 0 0 1 0"/>
<feBlend mode="normal" in2="BackgroundImageFix" result="effect1_dropShadow_3137_3276"/>
<feBlend mode="normal" in="SourceGraphic" in2="effect1_dropShadow_3137_3276" result="shape"/>
</filter>
<filter id="filter2_d_3137_3276" x="25.5" y="516.5" width="375.703" height="302.024" filterUnits="userSpaceOnUse" color-interpolation-filters="sRGB">
<feFlood flood-opacity="0" result="BackgroundImageFix"/>
<feColorMatrix in="SourceAlpha" type="matrix" values="0 0 0 0 0 0 0 0 0 0 0 0 0 0 0 0 0 0 127 0" result="hardAlpha"/>
<feOffset dx="10" dy="4"/>
<feGaussianBlur stdDeviation="10"/>
<feComposite in2="hardAlpha" operator="out"/>
<feColorMatrix type="matrix" values="0 0 0 0 0.870588 0 0 0 0 0.980392 0 0 0 0 0.94902 0 0 0 1 0"/>
<feBlend mode="normal" in2="BackgroundImageFix" result="effect1_dropShadow_3137_3276"/>
<feBlend mode="normal" in="SourceGraphic" in2="effect1_dropShadow_3137_3276" result="shape"/>
</filter>
<filter id="filter3_d_3137_3276" x="14.5254" y="502.5" width="485.724" height="342.5" filterUnits="userSpaceOnUse" color-interpolation-filters="sRGB">
<feFlood flood-opacity="0" result="BackgroundImageFix"/>
<feColorMatrix in="SourceAlpha" type="matrix" values="0 0 0 0 0 0 0 0 0 0 0 0 0 0 0 0 0 0 127 0" result="hardAlpha"/>
<feOffset dy="-10"/>
<feGaussianBlur stdDeviation="10"/>
<feComposite in2="hardAlpha" operator="out"/>
<feColorMatrix type="matrix" values="0 0 0 0 0.870588 0 0 0 0 0.980392 0 0 0 0 0.94902 0 0 0 1 0"/>
<feBlend mode="normal" in2="BackgroundImageFix" result="effect1_dropShadow_3137_3276"/>
<feBlend mode="normal" in="SourceGraphic" in2="effect1_dropShadow_3137_3276" result="shape"/>
</filter>
<filter id="filter4_d_3137_3276" x="483.25" y="161.5" width="204" height="368.704" filterUnits="userSpaceOnUse" color-interpolation-filters="sRGB">
<feFlood flood-opacity="0" result="BackgroundImageFix"/>
<feColorMatrix in="SourceAlpha" type="matrix" values="0 0 0 0 0 0 0 0 0 0 0 0 0 0 0 0 0 0 127 0" result="hardAlpha"/>
<feOffset dx="5" dy="20"/>
<feGaussianBlur stdDeviation="15"/>
<feComposite in2="hardAlpha" operator="out"/>
<feColorMatrix type="matrix" values="0 0 0 0 0.870588 0 0 0 0 0.980392 0 0 0 0 0.94902 0 0 0 0.5 0"/>
<feBlend mode="normal" in2="BackgroundImageFix" result="effect1_dropShadow_3137_3276"/>
<feBlend mode="normal" in="SourceGraphic" in2="effect1_dropShadow_3137_3276" result="shape"/>
</filter>
<filter id="filter5_d_3137_3276" x="468.5" y="502.5" width="471" height="342" filterUnits="userSpaceOnUse" color-interpolation-filters="sRGB">
<feFlood flood-opacity="0" result="BackgroundImageFix"/>
<feColorMatrix in="SourceAlpha" type="matrix" values="0 0 0 0 0 0 0 0 0 0 0 0 0 0 0 0 0 0 127 0" result="hardAlpha"/>
<feOffset dx="-20" dy="-10"/>
<feGaussianBlur stdDeviation="10"/>
<feComposite in2="hardAlpha" operator="out"/>
<feColorMatrix type="matrix" values="0 0 0 0 0.870588 0 0 0 0 0.980392 0 0 0 0 0.94902 0 0 0 1 0"/>
<feBlend mode="normal" in2="BackgroundImageFix" result="effect1_dropShadow_3137_3276"/>
<feBlend mode="normal" in="SourceGraphic" in2="effect1_dropShadow_3137_3276" result="shape"/>
</filter>
<filter id="filter6_d_3137_3276" x="467.54" y="346.5" width="471.46" height="183" filterUnits="userSpaceOnUse" color-interpolation-filters="sRGB">
<feFlood flood-opacity="0" result="BackgroundImageFix"/>
<feColorMatrix in="SourceAlpha" type="matrix" values="0 0 0 0 0 0 0 0 0 0 0 0 0 0 0 0 0 0 127 0" result="hardAlpha"/>
<feOffset dx="-20" dy="4"/>
<feGaussianBlur stdDeviation="10"/>
<feComposite in2="hardAlpha" operator="out"/>
<feColorMatrix type="matrix" values="0 0 0 0 0.870588 0 0 0 0 0.980392 0 0 0 0 0.94902 0 0 0 1 0"/>
<feBlend mode="normal" in2="BackgroundImageFix" result="effect1_dropShadow_3137_3276"/>
<feBlend mode="normal" in="SourceGraphic" in2="effect1_dropShadow_3137_3276" result="shape"/>
</filter>
<filter id="filter7_d_3137_3276" x="311" y="316" width="369.001" height="370.314" filterUnits="userSpaceOnUse" color-interpolation-filters="sRGB">
<feFlood flood-opacity="0" result="BackgroundImageFix"/>
<feColorMatrix in="SourceAlpha" type="matrix" values="0 0 0 0 0 0 0 0 0 0 0 0 0 0 0 0 0 0 127 0" result="hardAlpha"/>
<feOffset dy="11"/>
<feGaussianBlur stdDeviation="8.2"/>
<feComposite in2="hardAlpha" operator="out"/>
<feColorMatrix type="matrix" values="0 0 0 0 0.116749 0 0 0 0 0.603854 0 0 0 0 0.465841 0 0 0 0.48 0"/>
<feBlend mode="normal" in2="BackgroundImageFix" result="effect1_dropShadow_3137_3276"/>
<feBlend mode="normal" in="SourceGraphic" in2="effect1_dropShadow_3137_3276" result="shape"/>
</filter>
<linearGradient id="paint0_linear_3137_3276" x1="371.75" y1="180" x2="371.75" y2="505" gradientUnits="userSpaceOnUse">
<stop stop-color="white" stop-opacity="0"/>
<stop offset="1" stop-color="white"/>
</linearGradient>
<linearGradient id="paint1_linear_3137_3276" x1="413.723" y1="422.758" x2="577.28" y2="586.314" gradientUnits="userSpaceOnUse">
<stop stop-color="#30CEA1"/>
<stop offset="1" stop-color="#78E7C8"/>
</linearGradient>
</defs>
</svg>
