<svg width="15" height="15" viewBox="0 0 15 15" fill="none" xmlns="http://www.w3.org/2000/svg">
<path d="M14.25 3.01575C14.2522 2.90625 14.2448 1.917 13.275 0.9645C12.3203 0.027 11.3573 0 11.25 0H3.747C3.56775 0 2.62725 0.0472501 1.716 0.9765C0.777 1.9335 0.75 2.89425 0.75 3V5.25H0V7.5H0.75V12C0.75 12.5505 1.0545 13.0298 1.5 13.2908V14.25C1.5 14.4489 1.57902 14.6397 1.71967 14.7803C1.86032 14.921 2.05109 15 2.25 15H3C3.19891 15 3.38968 14.921 3.53033 14.7803C3.67098 14.6397 3.75 14.4489 3.75 14.25V13.5H11.25V14.25C11.25 14.4489 11.329 14.6397 11.4697 14.7803C11.6103 14.921 11.8011 15 12 15H12.75C12.9489 15 13.1397 14.921 13.2803 14.7803C13.421 14.6397 13.5 14.4489 13.5 14.25V13.2922C13.7275 13.1618 13.9167 12.9736 14.0483 12.7467C14.18 12.5199 14.2496 12.2623 14.25 12V7.5H15V5.25H14.25V3.01575ZM5.25 1.5H9.75V3H5.25V1.5ZM3.375 12C3.07653 11.9999 2.79033 11.8812 2.57935 11.6701C2.36837 11.459 2.2499 11.1727 2.25 10.8743C2.2501 10.5758 2.36876 10.2896 2.57988 10.0786C2.791 9.86762 3.07728 9.74915 3.37575 9.74925C3.67422 9.74935 3.96042 9.86801 4.1714 10.0791C4.38238 10.2902 4.50085 10.5765 4.50075 10.875C4.50065 11.1735 4.38199 11.4597 4.17087 11.6707C3.95975 11.8816 3.67347 12.0001 3.375 12ZM6.75 8.25H2.25V4.5H6.75V8.25ZM11.625 12C11.3265 11.9999 11.0403 11.8812 10.8293 11.6701C10.6184 11.459 10.4999 11.1727 10.5 10.8743C10.5001 10.5758 10.6188 10.2896 10.8299 10.0786C11.041 9.86762 11.3273 9.74915 11.6257 9.74925C11.9242 9.74935 12.2104 9.86801 12.4214 10.0791C12.6324 10.2902 12.7508 10.5765 12.7507 10.875C12.7507 11.1735 12.632 11.4597 12.4209 11.6707C12.2098 11.8816 11.9235 12.0001 11.625 12ZM12.75 8.25H8.25V4.5H12.75V8.25Z" fill="#7CB7CD"/>
</svg>
