<svg width="15" height="13" viewBox="0 0 15 13" fill="none" xmlns="http://www.w3.org/2000/svg">
<path d="M3.8025 2.40188L3.06844 4.5H11.3316L10.5975 2.40188C10.4709 2.04187 10.1306 1.8 9.74813 1.8H4.65187C4.26937 1.8 3.92906 2.04187 3.8025 2.40188ZM1.11375 4.635L2.10375 1.80844C2.48344 0.725625 3.50437 0 4.65187 0H9.74813C10.8956 0 11.9166 0.725625 12.2963 1.80844L13.2863 4.635C13.9388 4.905 14.4 5.54906 14.4 6.3V11.7C14.4 12.1978 13.9978 12.6 13.5 12.6H12.6C12.1022 12.6 11.7 12.1978 11.7 11.7V10.8H2.7V11.7C2.7 12.1978 2.29781 12.6 1.8 12.6H0.9C0.402187 12.6 0 12.1978 0 11.7V6.3C0 5.54906 0.46125 4.905 1.11375 4.635ZM3.6 7.65C3.6 7.15219 3.19781 6.75 2.7 6.75C2.20219 6.75 1.8 7.15219 1.8 7.65C1.8 8.14781 2.20219 8.55 2.7 8.55C3.19781 8.55 3.6 8.14781 3.6 7.65ZM11.7 8.55C12.1978 8.55 12.6 8.14781 12.6 7.65C12.6 7.15219 12.1978 6.75 11.7 6.75C11.2022 6.75 10.8 7.15219 10.8 7.65C10.8 8.14781 11.2022 8.55 11.7 8.55Z" fill="#7CB7CD"/>
</svg>
