<svg width="29" height="29" viewBox="0 0 29 29" fill="none" xmlns="http://www.w3.org/2000/svg">
<rect width="29" height="29" rx="5" fill="#7CB7CD"/>
<path d="M17.9629 6.58325H11.0326C10.8553 6.58325 9.9251 6.63471 9.0511 7.65279C8.19056 8.65425 8.16602 9.64067 8.16602 9.74992V18.4583C8.16602 18.8782 8.33283 19.2809 8.62976 19.5778C8.9267 19.8748 9.32942 20.0416 9.74935 20.0416H10.541L8.95768 22.4166H10.8205L11.3485 21.6249H17.6818L18.2178 22.4166H20.041L18.4577 20.0416H19.2493C19.6693 20.0416 20.072 19.8748 20.3689 19.5778C20.6659 19.2809 20.8327 18.8782 20.8327 18.4583V9.74992C20.8335 9.60109 20.8073 8.61467 19.9389 7.64013C19.0237 6.61254 18.069 6.58325 17.9629 6.58325ZM12.916 8.16659H16.0827V9.74992H12.916V8.16659ZM10.9368 18.4583C10.6218 18.4581 10.3197 18.3329 10.097 18.11C9.8743 17.8872 9.74924 17.585 9.74935 17.27C9.74945 16.9549 9.87471 16.6528 10.0976 16.4301C10.3204 16.2074 10.6226 16.0824 10.9376 16.0825C11.2527 16.0826 11.5548 16.2078 11.7775 16.4307C12.0002 16.6535 12.1252 16.9557 12.1251 17.2708C12.125 17.5858 11.9998 17.8879 11.7769 18.1106C11.5541 18.3333 11.2519 18.4584 10.9368 18.4583ZM18.0618 18.4583C17.7468 18.4581 17.4447 18.3329 17.222 18.11C16.9993 17.8872 16.8742 17.585 16.8743 17.27C16.8745 16.9549 16.9997 16.6528 17.2226 16.4301C17.4454 16.2074 17.7476 16.0824 18.0626 16.0825C18.3777 16.0826 18.6798 16.2078 18.9025 16.4307C19.1252 16.6535 19.2502 16.9557 19.2501 17.2708C19.25 17.5858 19.1248 17.8879 18.9019 18.1106C18.6791 18.3333 18.3769 18.4584 18.0618 18.4583ZM19.2493 14.4999H9.74935V11.3333H19.2493V14.4999Z" fill="white"/>
</svg>
