<svg width="12" height="15" viewBox="0 0 12 15" fill="none" xmlns="http://www.w3.org/2000/svg">
<path d="M9.28125 0H2.71575C2.54775 0 1.6665 0.0487501 0.8385 1.01325C0.02325 1.962 0 2.8965 0 3V11.25C0 11.6478 0.158035 12.0294 0.43934 12.3107C0.720644 12.592 1.10218 12.75 1.5 12.75H2.25L0.75 15H2.51475L3.015 14.25H9.015L9.52275 15H11.25L9.75 12.75H10.5C10.8978 12.75 11.2794 12.592 11.5607 12.3107C11.842 12.0294 12 11.6478 12 11.25V3C12.0007 2.859 11.976 1.9245 11.1532 1.00125C10.2863 0.02775 9.38175 0 9.28125 0ZM4.5 1.5H7.5V3H4.5V1.5ZM2.625 11.25C2.32653 11.2499 2.04033 11.1312 1.82935 10.9201C1.61837 10.709 1.4999 10.4227 1.5 10.1242C1.5001 9.82578 1.61876 9.53958 1.82988 9.3286C2.041 9.11762 2.32728 8.99915 2.62575 8.99925C2.92422 8.99935 3.21042 9.11801 3.4214 9.32913C3.63238 9.54025 3.75085 9.82653 3.75075 10.125C3.75065 10.4235 3.63199 10.7097 3.42087 10.9207C3.20975 11.1316 2.92347 11.2501 2.625 11.25ZM9.375 11.25C9.07653 11.2499 8.79033 11.1312 8.57935 10.9201C8.36837 10.709 8.2499 10.4227 8.25 10.1242C8.2501 9.82578 8.36876 9.53958 8.57988 9.3286C8.791 9.11762 9.07728 8.99915 9.37575 8.99925C9.67422 8.99935 9.96042 9.11801 10.1714 9.32913C10.3824 9.54025 10.5008 9.82653 10.5007 10.125C10.5007 10.4235 10.382 10.7097 10.1709 10.9207C9.95975 11.1316 9.67347 11.2501 9.375 11.25ZM10.5 7.5H1.5V4.5H10.5V7.5Z" fill="#7CB7CD"/>
</svg>
