<svg width="13" height="16" viewBox="0 0 13 16" fill="none" xmlns="http://www.w3.org/2000/svg">
<path d="M9.79687 0H2.86662C2.68929 0 1.75908 0.0514584 0.885083 1.06954C0.0245416 2.071 0 3.05742 0 3.16667V11.875C0 12.2949 0.166815 12.6977 0.463747 12.9946C0.76068 13.2915 1.16341 13.4583 1.58333 13.4583H2.375L0.791667 15.8333H2.65446L3.1825 15.0417H9.51583L10.0518 15.8333H11.875L10.2917 13.4583H11.0833C11.5033 13.4583 11.906 13.2915 12.2029 12.9946C12.4998 12.6977 12.6667 12.2949 12.6667 11.875V3.16667C12.6675 3.01783 12.6413 2.03142 11.7729 1.05688C10.8577 0.0292917 9.90296 0 9.79687 0ZM4.75 1.58333H7.91667V3.16667H4.75V1.58333ZM2.77083 11.875C2.45578 11.8749 2.15368 11.7496 1.93098 11.5268C1.70828 11.3039 1.58323 11.0018 1.58333 10.6867C1.58344 10.3717 1.70869 10.0696 1.93154 9.84686C2.15439 9.62416 2.45658 9.4991 2.77162 9.49921C3.08667 9.49931 3.38878 9.62457 3.61148 9.84741C3.83418 10.0703 3.95923 10.3725 3.95913 10.6875C3.95902 11.0026 3.83377 11.3047 3.61092 11.5274C3.38807 11.7501 3.08588 11.8751 2.77083 11.875ZM9.89583 11.875C9.58078 11.8749 9.27868 11.7496 9.05598 11.5268C8.83328 11.3039 8.70823 11.0018 8.70833 10.6867C8.70844 10.3717 8.83369 10.0696 9.05654 9.84686C9.27939 9.62416 9.58157 9.4991 9.89662 9.49921C10.2117 9.49931 10.5138 9.62457 10.7365 9.84741C10.9592 10.0703 11.0842 10.3725 11.0841 10.6875C11.084 11.0026 10.9588 11.3047 10.7359 11.5274C10.5131 11.7501 10.2109 11.8751 9.89583 11.875ZM11.0833 7.91667H1.58333V4.75H11.0833V7.91667Z" fill="white"/>
</svg>
