<svg width="14" height="14" viewBox="0 0 14 14" fill="none" xmlns="http://www.w3.org/2000/svg">
<path fill-rule="evenodd" clip-rule="evenodd" d="M1.25 6.66667C1.25 8.10326 1.82068 9.48101 2.8365 10.4968C3.85233 11.5126 5.23008 12.0833 6.66667 12.0833C8.10326 12.0833 9.48101 11.5126 10.4968 10.4968C11.5126 9.48101 12.0833 8.10326 12.0833 6.66667C12.0833 5.23008 11.5126 3.85233 10.4968 2.8365C9.48101 1.82068 8.10326 1.25 6.66667 1.25C5.23008 1.25 3.85233 1.82068 2.8365 2.8365C1.82068 3.85233 1.25 5.23008 1.25 6.66667ZM6.66667 0C4.89856 0 3.20286 0.702379 1.95262 1.95262C0.702379 3.20286 0 4.89856 0 6.66667C0 8.43478 0.702379 10.1305 1.95262 11.3807C3.20286 12.631 4.89856 13.3333 6.66667 13.3333C8.43478 13.3333 10.1305 12.631 11.3807 11.3807C12.631 10.1305 13.3333 8.43478 13.3333 6.66667C13.3333 4.89856 12.631 3.20286 11.3807 1.95262C10.1305 0.702379 8.43478 0 6.66667 0ZM6.04167 10V8.75H7.29167V10H6.04167ZM6.04167 3.33333V7.5H7.29167V3.33333H6.04167Z" fill="#9D9D9D"/>
</svg>
