<svg width="139" height="24" viewBox="0 0 139 24" fill="none" xmlns="http://www.w3.org/2000/svg">
<path d="M12 0C18.6274 0 24 5.37258 24 12C24 18.0005 19.5957 22.9714 13.8435 23.8583C13.6146 23.8936 13.4119 23.7134 13.4119 23.4817V15.6841C13.4119 15.3759 13.2291 15.097 12.9464 14.9741L5.68122 11.8155C5.43998 11.7107 5.16199 11.7355 4.94311 11.8814L0.601808 14.7754C0.344561 14.9468 0 14.7624 0 14.4533V1.16129C1.74575e-07 0.519928 0.519928 0 1.16129 0H12Z" fill="#30CEA1"/>
<rect y="19.3551" width="4.64516" height="4.64516" rx="0.387097" fill="#30CEA1"/>
<path d="M32 21.944V2.05612H39.2691C45.4303 2.05612 49.7269 6.14267 49.7269 11.9728C49.7269 17.7757 45.4033 21.944 39.2691 21.944H32ZM35.8372 18.5113H38.9178C42.7821 18.5113 45.5924 15.7325 45.5924 11.9456C45.5924 8.18595 42.8091 5.48882 38.9178 5.48882H35.8372V18.5113Z" fill="#30CEA1"/>
<path d="M73.8257 2.05612V21.944H69.9885V13.6074H61.4223V21.944H57.585V2.05612H61.4223V10.0113H69.9885V2.05612H73.8257Z" fill="#30CEA1"/>
<path d="M76.256 12.0001C76.256 6.2244 80.8769 1.64746 86.7409 1.64746C92.6048 1.64746 97.2527 6.2244 97.2527 12.0001C97.2527 17.803 92.6048 22.3527 86.7409 22.3527C80.8769 22.3527 76.256 17.803 76.256 12.0001ZM80.3905 12.0001C80.3905 15.7052 83.1739 18.6203 86.7409 18.6203C90.3078 18.6203 93.1182 15.7052 93.1182 12.0001C93.1182 8.29492 90.3078 5.37985 86.7409 5.37985C83.1739 5.37985 80.3905 8.29492 80.3905 12.0001Z" fill="#30CEA1"/>
<path d="M120.944 2.05612V21.944H117.106V6.93274H116.944L111.864 21.944H108.81L103.622 6.68755H103.487V21.944H99.6497V2.05612H105.811L110.297 15.569H110.405L114.809 2.05612H120.944Z" fill="#30CEA1"/>
<path d="M123.981 21.944V2.05612H137.709V5.62504H127.819V10.1747H137.249L137.222 13.5802H127.819V18.3751H138.114V21.944H123.981Z" fill="#30CEA1"/>
<rect x="51" y="17" width="4" height="4" fill="#30CEA1"/>
</svg>
