<svg width="63" height="68" viewBox="0 0 63 68" fill="none" xmlns="http://www.w3.org/2000/svg">
<g filter="url(#filter0_d_2766_11502)">
<mask id="path-1-inside-1_2766_11502" fill="white">
<path d="M31.5 12C42.2696 12 51 20.7304 51 31.5C51 40.3196 45.1446 47.771 37.1094 50.1804C36.9173 50.238 36.7445 50.3487 36.6156 50.5023L32.7658 55.0879C32.3662 55.5638 31.6338 55.5639 31.2341 55.088L27.667 50.8401C27.5233 50.6691 27.3258 50.5518 27.1081 50.5017C18.4538 48.5096 12 40.7592 12 31.5C12 20.7304 20.7304 12 31.5 12Z"/>
</mask>
<path d="M31.5 12C42.2696 12 51 20.7304 51 31.5C51 40.3196 45.1446 47.771 37.1094 50.1804C36.9173 50.238 36.7445 50.3487 36.6156 50.5023L32.7658 55.0879C32.3662 55.5638 31.6338 55.5639 31.2341 55.088L27.667 50.8401C27.5233 50.6691 27.3258 50.5518 27.1081 50.5017C18.4538 48.5096 12 40.7592 12 31.5C12 20.7304 20.7304 12 31.5 12Z" fill="#E05353"/>
<path d="M27.667 50.8401L26.9012 51.4832L27.667 50.8401ZM27.1081 50.5017L27.3324 49.5272L27.1081 50.5017ZM32.7658 55.0879L31.9999 54.4449L32.7658 55.0879ZM31.2341 55.088L31.9999 54.4449L31.2341 55.088ZM37.1094 50.1804L37.3966 51.1383L37.1094 50.1804ZM36.6156 50.5023L37.3815 51.1452L36.6156 50.5023ZM31.5 12V13C41.7173 13 50 21.2827 50 31.5H51H52C52 20.1782 42.8218 11 31.5 11V12ZM51 31.5H50C50 39.8658 44.4461 46.9365 36.8221 49.2226L37.1094 50.1804L37.3966 51.1383C45.8431 48.6056 52 40.7734 52 31.5H51ZM36.6156 50.5023L35.8498 49.8593L31.9999 54.4449L32.7658 55.0879L33.5317 55.7309L37.3815 51.1452L36.6156 50.5023ZM31.2341 55.088L31.9999 54.4449L28.4328 50.197L27.667 50.8401L26.9012 51.4832L30.4683 55.731L31.2341 55.088ZM27.1081 50.5017L27.3324 49.5272C19.1219 47.6372 13 40.283 13 31.5H12H11C11 41.2355 17.7856 49.3819 26.8838 51.4762L27.1081 50.5017ZM12 31.5H13C13 21.2827 21.2827 13 31.5 13V12V11C20.1782 11 11 20.1782 11 31.5H12ZM27.667 50.8401L28.4328 50.197C28.1431 49.8521 27.752 49.6238 27.3324 49.5272L27.1081 50.5017L26.8838 51.4762C26.8911 51.4779 26.8963 51.4803 26.8993 51.4821C26.9021 51.4839 26.9023 51.4846 26.9012 51.4832L27.667 50.8401ZM32.7658 55.0879L31.9999 54.4449V54.4449L31.2341 55.088L30.4683 55.731C31.2676 56.6829 32.7324 56.6828 33.5317 55.7309L32.7658 55.0879ZM37.1094 50.1804L36.8221 49.2226C36.4517 49.3337 36.1096 49.5497 35.8498 49.8593L36.6156 50.5023L37.3815 51.1452C37.3795 51.1477 37.383 51.1424 37.3966 51.1383L37.1094 50.1804Z" fill="white" mask="url(#path-1-inside-1_2766_11502)"/>
</g>
<circle cx="31.5" cy="62.4448" r="3.5" fill="#E05353" stroke="white"/>
<path d="M36.7399 27.9076L27.0697 23.6508C26.974 23.6085 26.8708 23.5856 26.7662 23.5834C26.6615 23.5812 26.5575 23.5998 26.4601 23.6381C26.3628 23.6766 26.2741 23.734 26.199 23.8069C26.124 23.8799 26.0642 23.967 26.0231 24.0633L23.6481 29.6049C23.5654 29.7979 23.5627 30.0158 23.6407 30.2107C23.7186 30.4056 23.8708 30.5616 24.0637 30.6444L29.5714 33.0043L28.5897 35.4585H25.1673V33.0835H23.584V39.4168H25.1673V37.0418H28.5897C29.2412 37.0418 29.8184 36.6508 30.059 36.0459L31.0264 33.6282L33.7332 34.788C33.9252 34.8705 34.1422 34.8737 34.3366 34.7969C34.5311 34.7201 34.6872 34.5694 34.771 34.3779L37.146 28.9494C37.2301 28.7574 37.2345 28.5398 37.1584 28.3445C37.0822 28.1492 36.9317 27.9921 36.7399 27.9076ZM37.7786 34.9613L36.3077 34.3739L37.8894 30.4156L39.3603 31.0022L37.7786 34.9613Z" fill="white"/>
<defs>
<filter id="filter0_d_2766_11502" x="0" y="0" width="63" height="67.4448" filterUnits="userSpaceOnUse" color-interpolation-filters="sRGB">
<feFlood flood-opacity="0" result="BackgroundImageFix"/>
<feColorMatrix in="SourceAlpha" type="matrix" values="0 0 0 0 0 0 0 0 0 0 0 0 0 0 0 0 0 0 127 0" result="hardAlpha"/>
<feMorphology radius="1" operator="dilate" in="SourceAlpha" result="effect1_dropShadow_2766_11502"/>
<feOffset/>
<feGaussianBlur stdDeviation="5.5"/>
<feComposite in2="hardAlpha" operator="out"/>
<feColorMatrix type="matrix" values="0 0 0 0 0.976471 0 0 0 0 0.356863 0 0 0 0 0.356863 0 0 0 1 0"/>
<feBlend mode="normal" in2="BackgroundImageFix" result="effect1_dropShadow_2766_11502"/>
<feBlend mode="normal" in="SourceGraphic" in2="effect1_dropShadow_2766_11502" result="shape"/>
</filter>
</defs>
</svg>
