<svg width="63" height="68" viewBox="0 0 63 68" fill="none" xmlns="http://www.w3.org/2000/svg">
<g filter="url(#filter0_d_2766_11397)">
<mask id="path-1-inside-1_2766_11397" fill="white">
<path d="M31.5 12C42.2696 12 51 20.7304 51 31.5C51 40.3196 45.1446 47.771 37.1094 50.1804C36.9173 50.238 36.7445 50.3487 36.6156 50.5023L32.7658 55.0879C32.3662 55.5638 31.6338 55.5639 31.2341 55.088L27.667 50.8401C27.5233 50.6691 27.3258 50.5518 27.1081 50.5017C18.4538 48.5096 12 40.7592 12 31.5C12 20.7304 20.7304 12 31.5 12Z"/>
</mask>
<path d="M31.5 12C42.2696 12 51 20.7304 51 31.5C51 40.3196 45.1446 47.771 37.1094 50.1804C36.9173 50.238 36.7445 50.3487 36.6156 50.5023L32.7658 55.0879C32.3662 55.5638 31.6338 55.5639 31.2341 55.088L27.667 50.8401C27.5233 50.6691 27.3258 50.5518 27.1081 50.5017C18.4538 48.5096 12 40.7592 12 31.5C12 20.7304 20.7304 12 31.5 12Z" fill="#E05353"/>
<path d="M27.667 50.8401L26.9012 51.4832L27.667 50.8401ZM27.1081 50.5017L27.3324 49.5272L27.1081 50.5017ZM32.7658 55.0879L31.9999 54.4449L32.7658 55.0879ZM31.2341 55.088L31.9999 54.4449L31.2341 55.088ZM37.1094 50.1804L37.3966 51.1383L37.1094 50.1804ZM36.6156 50.5023L37.3815 51.1452L36.6156 50.5023ZM31.5 12V13C41.7173 13 50 21.2827 50 31.5H51H52C52 20.1782 42.8218 11 31.5 11V12ZM51 31.5H50C50 39.8658 44.4461 46.9365 36.8221 49.2226L37.1094 50.1804L37.3966 51.1383C45.8431 48.6056 52 40.7734 52 31.5H51ZM36.6156 50.5023L35.8498 49.8593L31.9999 54.4449L32.7658 55.0879L33.5317 55.7309L37.3815 51.1452L36.6156 50.5023ZM31.2341 55.088L31.9999 54.4449L28.4328 50.197L27.667 50.8401L26.9012 51.4832L30.4683 55.731L31.2341 55.088ZM27.1081 50.5017L27.3324 49.5272C19.1219 47.6372 13 40.283 13 31.5H12H11C11 41.2355 17.7856 49.3819 26.8838 51.4762L27.1081 50.5017ZM12 31.5H13C13 21.2827 21.2827 13 31.5 13V12V11C20.1782 11 11 20.1782 11 31.5H12ZM27.667 50.8401L28.4328 50.197C28.1431 49.8521 27.752 49.6238 27.3324 49.5272L27.1081 50.5017L26.8838 51.4762C26.8911 51.4779 26.8963 51.4803 26.8993 51.4821C26.9021 51.4839 26.9023 51.4846 26.9012 51.4832L27.667 50.8401ZM32.7658 55.0879L31.9999 54.4449V54.4449L31.2341 55.088L30.4683 55.731C31.2676 56.6829 32.7324 56.6828 33.5317 55.7309L32.7658 55.0879ZM37.1094 50.1804L36.8221 49.2226C36.4517 49.3337 36.1096 49.5497 35.8498 49.8593L36.6156 50.5023L37.3815 51.1452C37.3795 51.1477 37.383 51.1424 37.3966 51.1383L37.1094 50.1804Z" fill="white" mask="url(#path-1-inside-1_2766_11397)"/>
</g>
<circle cx="31.5" cy="62.4448" r="3.5" fill="#E05353" stroke="white"/>
<path d="M31.4993 32.6876L33.1816 33.974C33.2608 34.04 33.34 34.0434 33.4191 33.9843C33.4983 33.9252 33.5247 33.8492 33.4983 33.7563L32.8452 31.6584L34.6066 30.273C34.6726 30.207 34.6924 30.131 34.666 30.045C34.6396 29.959 34.5803 29.9162 34.4879 29.9167H32.3702L31.6973 27.799C31.6709 27.7067 31.6049 27.6605 31.4993 27.6605C31.3938 27.6605 31.3278 27.7067 31.3014 27.799L30.6285 29.9167H28.5108C28.4184 29.9167 28.3556 29.9597 28.3224 30.0458C28.2891 30.1318 28.3058 30.2075 28.3723 30.273L30.1139 31.6584L29.4608 33.7761C29.4344 33.8685 29.4608 33.9445 29.54 34.0041C29.6191 34.0637 29.6983 34.0603 29.7775 33.9938L31.4993 32.6876ZM31.4993 39.3376C31.407 39.3376 31.3212 39.331 31.2421 39.3178C31.1629 39.3046 31.0837 39.2848 31.0046 39.2584C29.2233 38.6646 27.8049 37.5661 26.7493 35.9627C25.6938 34.3593 25.166 32.6343 25.166 30.7876V27.0469C25.166 26.7171 25.2618 26.4202 25.4534 26.1563C25.645 25.8924 25.8922 25.7011 26.1952 25.5824L30.9452 23.8011C31.1299 23.7351 31.3146 23.7021 31.4993 23.7021C31.6841 23.7021 31.8688 23.7351 32.0535 23.8011L36.8035 25.5824C37.107 25.7011 37.3545 25.8924 37.5461 26.1563C37.7377 26.4202 37.8332 26.7171 37.8327 27.0469V30.7876C37.8327 32.6348 37.3049 34.3601 36.2493 35.9635C35.1938 37.5669 33.7754 38.6652 31.9941 39.2584C31.915 39.2848 31.8358 39.3046 31.7566 39.3178C31.6775 39.331 31.5917 39.3376 31.4993 39.3376Z" fill="white"/>
<defs>
<filter id="filter0_d_2766_11397" x="0" y="0" width="63" height="67.4448" filterUnits="userSpaceOnUse" color-interpolation-filters="sRGB">
<feFlood flood-opacity="0" result="BackgroundImageFix"/>
<feColorMatrix in="SourceAlpha" type="matrix" values="0 0 0 0 0 0 0 0 0 0 0 0 0 0 0 0 0 0 127 0" result="hardAlpha"/>
<feMorphology radius="1" operator="dilate" in="SourceAlpha" result="effect1_dropShadow_2766_11397"/>
<feOffset/>
<feGaussianBlur stdDeviation="5.5"/>
<feComposite in2="hardAlpha" operator="out"/>
<feColorMatrix type="matrix" values="0 0 0 0 0.976471 0 0 0 0 0.356863 0 0 0 0 0.356863 0 0 0 1 0"/>
<feBlend mode="normal" in2="BackgroundImageFix" result="effect1_dropShadow_2766_11397"/>
<feBlend mode="normal" in="SourceGraphic" in2="effect1_dropShadow_2766_11397" result="shape"/>
</filter>
</defs>
</svg>
