<svg width="48" height="48" viewBox="0 0 48 48" fill="none" xmlns="http://www.w3.org/2000/svg">
<g clip-path="url(#clip0_1519_28)">
<path d="M13.875 6C12.0117 6 10.5 7.51172 10.5 9.375V38.625C10.5 40.4883 12.0117 42 13.875 42H20.625V36.375C20.625 34.5117 22.1367 33 24 33C25.8633 33 27.375 34.5117 27.375 36.375V42H34.125C35.9883 42 37.5 40.4883 37.5 38.625V9.375C37.5 7.51172 35.9883 6 34.125 6H13.875ZM15 22.875C15 22.2563 15.5062 21.75 16.125 21.75H18.375C18.9937 21.75 19.5 22.2563 19.5 22.875V25.125C19.5 25.7437 18.9937 26.25 18.375 26.25H16.125C15.5062 26.25 15 25.7437 15 25.125V22.875ZM22.875 21.75H25.125C25.7437 21.75 26.25 22.2563 26.25 22.875V25.125C26.25 25.7437 25.7437 26.25 25.125 26.25H22.875C22.2563 26.25 21.75 25.7437 21.75 25.125V22.875C21.75 22.2563 22.2563 21.75 22.875 21.75ZM28.5 22.875C28.5 22.2563 29.0063 21.75 29.625 21.75H31.875C32.4937 21.75 33 22.2563 33 22.875V25.125C33 25.7437 32.4937 26.25 31.875 26.25H29.625C29.0063 26.25 28.5 25.7437 28.5 25.125V22.875ZM16.125 12.75H18.375C18.9937 12.75 19.5 13.2562 19.5 13.875V16.125C19.5 16.7437 18.9937 17.25 18.375 17.25H16.125C15.5062 17.25 15 16.7437 15 16.125V13.875C15 13.2562 15.5062 12.75 16.125 12.75ZM21.75 13.875C21.75 13.2562 22.2563 12.75 22.875 12.75H25.125C25.7437 12.75 26.25 13.2562 26.25 13.875V16.125C26.25 16.7437 25.7437 17.25 25.125 17.25H22.875C22.2563 17.25 21.75 16.7437 21.75 16.125V13.875ZM29.625 12.75H31.875C32.4937 12.75 33 13.2562 33 13.875V16.125C33 16.7437 32.4937 17.25 31.875 17.25H29.625C29.0063 17.25 28.5 16.7437 28.5 16.125V13.875C28.5 13.2562 29.0063 12.75 29.625 12.75Z" fill="#30CEA1"/>
</g>
<defs>
<clipPath id="clip0_1519_28">
<rect width="27" height="36" fill="white" transform="translate(10.5 6)"/>
</clipPath>
</defs>
</svg>
