<svg width="48" height="48" viewBox="0 0 48 48" fill="none" xmlns="http://www.w3.org/2000/svg">
<path d="M14.7407 8.91663C14.6211 13.3856 11.2386 16.7681 6.88916 16.7681V19.1837C12.8102 19.305 17.3988 14.7147 17.1562 8.91663H14.7407ZM6.88916 11.6944V14.1117C9.90949 13.9904 12.0825 11.8157 12.0825 8.91663H9.67033C9.56136 9.6145 9.23339 10.2597 8.73378 10.759C8.23418 11.2583 7.58881 11.5858 6.89087 11.6944M41.1122 16.7681C36.7628 16.7681 33.3803 13.3856 33.2607 8.91663H30.8434C30.6025 14.7147 35.1928 19.305 41.1105 19.1837L41.1122 16.7681ZM41.1122 14.1117V11.6944C40.414 11.5862 39.7682 11.2587 39.2683 10.7594C38.7683 10.2601 38.4401 9.61474 38.331 8.91663H35.9155C35.9155 11.8157 38.0902 13.9904 41.1088 14.11M35.9582 39.6666V26H41.0832L23.9998 10.625L6.91649 26H12.0415V39.6666H35.9582Z" fill="#FBBA78"/>
</svg>
