<svg width="48" height="48" viewBox="0 0 48 48" fill="none" xmlns="http://www.w3.org/2000/svg">
<path d="M36.8125 39.802C39.0077 39.802 40.6562 37.9348 40.6562 35.7977V12.2022C40.6562 10.0651 39.0077 8.19788 36.8125 8.19788H23.1458C20.9506 8.19788 19.3021 10.0651 19.3021 12.2022V22.9476C18.8916 22.7974 18.458 22.7199 18.0208 22.7187H11.1875C8.99229 22.7187 7.34375 24.5859 7.34375 26.723V35.7977C7.34375 37.9348 8.99229 39.802 11.1875 39.802H36.8125ZM30.8333 28.9114C31.4688 28.9114 32.1146 29.482 32.1146 30.3533V37.2395H27.8438V30.3533C27.8438 29.482 28.4895 28.9114 29.125 28.9114H30.8333ZM28.8688 22.3856V20.4432H27.075C26.7352 20.4432 26.4093 20.3082 26.169 20.0679C25.9287 19.8277 25.7938 19.5018 25.7938 19.162C25.7938 18.8222 25.9287 18.4963 26.169 18.256C26.4093 18.0157 26.7352 17.8807 27.075 17.8807H28.8688V15.9332C28.8688 15.5934 29.0037 15.2675 29.244 15.0272C29.4843 14.7869 29.8102 14.652 30.15 14.652C30.4898 14.652 30.8157 14.7869 31.056 15.0272C31.2963 15.2675 31.4313 15.5934 31.4313 15.9332V17.8807H33.225L33.3565 17.8875C33.6718 17.9202 33.9637 18.0686 34.1759 18.304C34.3882 18.5393 34.5056 18.845 34.5056 19.162C34.5056 19.4789 34.3882 19.7846 34.1759 20.0199C33.9637 20.2553 33.6718 20.4037 33.3565 20.4364L33.225 20.4432H31.4313V22.389C31.4313 22.7288 31.2963 23.0547 31.056 23.295C30.8157 23.5353 30.4898 23.6703 30.15 23.6703C29.8102 23.6703 29.4843 23.5353 29.244 23.295C29.0037 23.0547 28.8688 22.7288 28.8688 22.389M16.3125 32.4015L16.444 32.4084C16.7593 32.4411 17.0512 32.5894 17.2634 32.8248C17.4757 33.0602 17.5931 33.3659 17.5931 33.6828C17.5931 33.9997 17.4757 34.3054 17.2634 34.5408C17.0512 34.7762 16.7593 34.9245 16.444 34.9572L16.3125 34.964H13.2375C12.8977 34.964 12.5718 34.8291 12.3315 34.5888C12.0912 34.3485 11.9562 34.0226 11.9562 33.6828C11.9562 33.343 12.0912 33.0171 12.3315 32.7768C12.5718 32.5365 12.8977 32.4015 13.2375 32.4015H16.3125ZM16.3125 27.5601C16.6523 27.5601 16.9782 27.6951 17.2185 27.9354C17.4588 28.1757 17.5938 28.5016 17.5938 28.8414C17.5938 29.1812 17.4588 29.5071 17.2185 29.7474C16.9782 29.9876 16.6523 30.1226 16.3125 30.1226H13.2375C12.8977 30.1226 12.5718 29.9876 12.3315 29.7474C12.0912 29.5071 11.9562 29.1812 11.9562 28.8414C11.9562 28.5016 12.0912 28.1757 12.3315 27.9354C12.5718 27.6951 12.8977 27.5601 13.2375 27.5601H16.3125Z" fill="#AB9FD5"/>
</svg>
