<svg width="48" height="48" viewBox="0 0 48 48" fill="none" xmlns="http://www.w3.org/2000/svg">
<g clip-path="url(#clip0_1519_86)">
<path d="M25.2812 6.31132C24.9413 5.97153 24.4804 5.78064 23.9998 5.78064C23.5192 5.78064 23.0582 5.97153 22.7183 6.31132L15.4683 13.5614C15.1934 13.8362 15.0143 14.1921 14.9572 14.5766C14.9 14.961 14.968 15.3537 15.1511 15.6965C15.5988 16.5357 16.2984 17.1012 16.9817 17.4855L11.8432 22.624C11.5034 22.9639 11.3125 23.4248 11.3125 23.9054C11.3125 24.386 11.5034 24.847 11.8432 25.1869C12.7096 26.0533 13.8044 26.5825 14.8049 26.9124L10.0307 31.6866C9.81186 31.9056 9.6528 32.1771 9.56867 32.4751C9.48454 32.7731 9.47816 33.0877 9.55013 33.3889C9.62211 33.69 9.77004 33.9677 9.97981 34.1955C10.1896 34.4232 10.4542 34.5935 10.7485 34.6899C11.9991 35.1014 13.2914 35.3932 14.5819 35.6505C15.9957 35.9351 17.7466 36.216 19.7385 36.3973L18.6547 39.6453C18.5639 39.9178 18.5392 40.208 18.5826 40.4919C18.626 40.7758 18.7362 41.0453 18.9042 41.2782C19.0722 41.5112 19.2931 41.7009 19.5488 41.8317C19.8044 41.9625 20.0875 42.0307 20.3747 42.0306H27.6248C27.912 42.0307 28.1951 41.9625 28.4508 41.8317C28.7065 41.7009 28.9274 41.5112 29.0954 41.2782C29.2634 41.0453 29.3736 40.7758 29.417 40.4919C29.4604 40.208 29.4356 39.9178 29.3449 39.6453L28.261 36.3973C30.2548 36.216 32.0057 35.9351 33.4176 35.6524C34.7081 35.3932 36.0095 35.1013 37.2602 34.6881C37.5533 34.5905 37.8167 34.4195 38.0252 34.1914C38.2337 33.9633 38.3804 33.6857 38.4515 33.3849C38.5225 33.0842 38.5154 32.7703 38.4309 32.473C38.3465 32.1758 38.1874 31.905 37.9689 31.6866L33.1947 26.9124C34.1952 26.5843 35.29 26.0533 36.1563 25.1869C36.4961 24.847 36.687 24.386 36.687 23.9054C36.687 23.4248 36.4961 22.9639 36.1563 22.624L31.0178 17.4855C31.7012 17.1012 32.4008 16.5357 32.8485 15.6965C33.0315 15.3537 33.0995 14.961 33.0424 14.5766C32.9853 14.1921 32.8061 13.8362 32.5313 13.5614L25.2812 6.31132Z" fill="#82AA82"/>
</g>
<defs>
<clipPath id="clip0_1519_86">
<rect width="41" height="41" fill="white" transform="translate(3.5 3.5)"/>
</clipPath>
</defs>
</svg>
