<svg width="15" height="13" viewBox="0 0 15 13" fill="none" xmlns="http://www.w3.org/2000/svg">
<path d="M3.27146 0C3.22163 1.86208 1.81226 3.27146 0 3.27146V4.27795C2.46712 4.32849 4.37903 2.41587 4.27795 0H3.27146ZM0 1.1574V2.1646C1.25847 2.11406 2.16389 1.20793 2.16389 0H1.15882C1.11342 0.29078 0.976761 0.559602 0.768593 0.767642C0.560426 0.975682 0.29152 1.11217 0.000711839 1.1574M14.2596 3.27146C12.4473 3.27146 11.038 1.86208 10.9881 0H9.98094C9.88057 2.41587 11.7932 4.32849 14.2589 4.27795L14.2596 3.27146ZM14.2596 2.1646V1.1574C13.9687 1.11231 13.6996 0.975881 13.4913 0.76783C13.283 0.559779 13.1462 0.290881 13.1008 0H12.0943C12.0943 1.20793 13.0004 2.11406 14.2582 2.16389M12.1121 12.8125V7.11806H14.2475L7.12944 0.711806L0.0113889 7.11806H2.14681V12.8125H12.1121Z" fill="#9D9D9D"/>
</svg>
