<svg width="16" height="14" viewBox="0 0 16 14" fill="none" xmlns="http://www.w3.org/2000/svg">
<path fill-rule="evenodd" clip-rule="evenodd" d="M1.34437 2.36812C1.34437 2.05714 1.40563 1.7492 1.52464 1.46188C1.64365 1.17457 1.81808 0.913508 2.03798 0.693608C2.25788 0.473707 2.51894 0.299272 2.80626 0.180263C3.09357 0.0612533 3.40151 0 3.7125 0C4.02349 0 4.33143 0.0612533 4.61874 0.180263C4.90606 0.299272 5.16712 0.473707 5.38702 0.693608C5.60692 0.913508 5.78135 1.17457 5.90036 1.46188C6.01937 1.7492 6.08063 2.05714 6.08063 2.36812C6.08063 2.99619 5.83113 3.59853 5.38702 4.04264C4.94291 4.48675 4.34057 4.73625 3.7125 4.73625C3.08443 4.73625 2.48209 4.48675 2.03798 4.04264C1.59387 3.59853 1.34437 2.99619 1.34437 2.36812ZM9.78187 2.36812C9.78187 1.74006 10.0314 1.13772 10.4755 0.693608C10.9196 0.249498 11.5219 0 12.15 0C12.7781 0 13.3804 0.249498 13.8245 0.693608C14.2686 1.13772 14.5181 1.74006 14.5181 2.36812C14.5181 2.99619 14.2686 3.59853 13.8245 4.04264C13.3804 4.48675 12.7781 4.73625 12.15 4.73625C11.5219 4.73625 10.9196 4.48675 10.4755 4.04264C10.0314 3.59853 9.78187 2.99619 9.78187 2.36812ZM5.50688 5.74312C5.50688 5.11506 5.75637 4.51272 6.20048 4.06861C6.64459 3.6245 7.24693 3.375 7.875 3.375C8.50307 3.375 9.10541 3.6245 9.54952 4.06861C9.99363 4.51272 10.2431 5.11506 10.2431 5.74312C10.2431 6.37119 9.99363 6.97353 9.54952 7.41764C9.10541 7.86175 8.50307 8.11125 7.875 8.11125C7.24693 8.11125 6.64459 7.86175 6.20048 7.41764C5.75637 6.97353 5.50688 6.37119 5.50688 5.74312ZM4.5 6.4C4.5 5.84772 4.05228 5.4 3.5 5.4H2.8125C2.06658 5.4 1.35121 5.69632 0.823762 6.22376C0.296316 6.75121 0 7.46658 0 8.2125V8.5625C0 9.11478 0.447715 9.5625 1 9.5625H3.5C4.05228 9.5625 4.5 9.11479 4.5 8.5625V6.4ZM11.25 6.4C11.25 5.84772 11.6977 5.4 12.25 5.4H12.9375C13.6834 5.4 14.3988 5.69632 14.9262 6.22376C15.4537 6.75121 15.75 7.46658 15.75 8.2125V8.5625C15.75 9.11478 15.3023 9.5625 14.75 9.5625H12.25C11.6977 9.5625 11.25 9.11479 11.25 8.5625V6.4ZM4.1625 11.5875C4.1625 10.8416 4.45882 10.1262 4.98626 9.59876C5.51371 9.07132 6.22908 8.775 6.975 8.775H8.775C9.52092 8.775 10.2363 9.07132 10.7637 9.59876C11.2912 10.1262 11.5875 10.8416 11.5875 11.5875V12.5C11.5875 13.0523 11.1398 13.5 10.5875 13.5H5.1625C4.61021 13.5 4.1625 13.0523 4.1625 12.5V11.5875Z" fill="#FBBA78"/>
</svg>
