<svg width="18" height="18" viewBox="0 0 18 18" fill="none" xmlns="http://www.w3.org/2000/svg">
<path d="M9.624 16.3506C11.9685 15.8811 15 14.1944 15 9.83314C15 5.86489 12.0953 3.22189 10.0065 2.00764C9.54225 1.73764 9 2.09239 9 2.62864V3.99964C9 5.08114 8.5455 7.05514 7.2825 7.87639C6.6375 8.29564 5.94 7.66789 5.862 6.90289L5.7975 6.27439C5.7225 5.54389 4.9785 5.10064 4.395 5.54614C3.34575 6.34489 2.25 7.74739 2.25 9.83239C2.25 15.1656 6.21675 16.4999 8.19975 16.4999C8.31575 16.4999 8.43675 16.4961 8.56275 16.4886C7.58325 16.4054 6 15.7979 6 13.8329C6 12.2954 7.12125 11.2566 7.97325 10.7504C8.20275 10.6154 8.4705 10.7916 8.4705 11.0579V11.5004C8.4705 11.8379 8.60175 12.3666 8.913 12.7281C9.2655 13.1376 9.78225 12.7086 9.8235 12.1701C9.837 12.0006 10.008 11.8926 10.155 11.9781C10.6357 12.2594 11.25 12.8594 11.25 13.8329C11.25 15.3689 10.4032 16.0754 9.624 16.3506Z" fill="#FBBA78"/>
</svg>
