<svg width="17" height="15" viewBox="0 0 17 15" fill="none" xmlns="http://www.w3.org/2000/svg">
<path d="M3.6 1.8C3.6 0.807187 4.40719 0 5.4 0H10.8C11.7928 0 12.6 0.807187 12.6 1.8V3.6H14.4C15.3928 3.6 16.2 4.40719 16.2 5.4V12.6C16.2 13.5928 15.3928 14.4 14.4 14.4H1.8C0.807187 14.4 0 13.5928 0 12.6V5.4C0 4.40719 0.807187 3.6 1.8 3.6H3.6V1.8ZM7.65 9.9C7.15219 9.9 6.75 10.3022 6.75 10.8V13.05H9.45V10.8C9.45 10.3022 9.04781 9.9 8.55 9.9H7.65ZM3.6 10.35V9.45C3.6 9.2025 3.3975 9 3.15 9H2.25C2.0025 9 1.8 9.2025 1.8 9.45V10.35C1.8 10.5975 2.0025 10.8 2.25 10.8H3.15C3.3975 10.8 3.6 10.5975 3.6 10.35ZM3.15 7.2C3.3975 7.2 3.6 6.9975 3.6 6.75V5.85C3.6 5.6025 3.3975 5.4 3.15 5.4H2.25C2.0025 5.4 1.8 5.6025 1.8 5.85V6.75C1.8 6.9975 2.0025 7.2 2.25 7.2H3.15ZM14.4 10.35V9.45C14.4 9.2025 14.1975 9 13.95 9H13.05C12.8025 9 12.6 9.2025 12.6 9.45V10.35C12.6 10.5975 12.8025 10.8 13.05 10.8H13.95C14.1975 10.8 14.4 10.5975 14.4 10.35ZM13.95 7.2C14.1975 7.2 14.4 6.9975 14.4 6.75V5.85C14.4 5.6025 14.1975 5.4 13.95 5.4H13.05C12.8025 5.4 12.6 5.6025 12.6 5.85V6.75C12.6 6.9975 12.8025 7.2 13.05 7.2H13.95ZM7.425 2.925V3.825H6.525C6.2775 3.825 6.075 4.0275 6.075 4.275V4.725C6.075 4.9725 6.2775 5.175 6.525 5.175H7.425V6.075C7.425 6.3225 7.6275 6.525 7.875 6.525H8.325C8.5725 6.525 8.775 6.3225 8.775 6.075V5.175H9.675C9.9225 5.175 10.125 4.9725 10.125 4.725V4.275C10.125 4.0275 9.9225 3.825 9.675 3.825H8.775V2.925C8.775 2.6775 8.5725 2.475 8.325 2.475H7.875C7.6275 2.475 7.425 2.6775 7.425 2.925Z" fill="#FBBA78"/>
</svg>
