<svg width="16" height="14" viewBox="0 0 16 14" fill="none" xmlns="http://www.w3.org/2000/svg">
<path d="M3.447 0C3.3945 1.962 1.9095 3.447 0 3.447V4.5075C2.5995 4.56075 4.614 2.5455 4.5075 0H3.447ZM0 1.2195V2.28075C1.326 2.2275 2.28 1.27275 2.28 0H1.221C1.17316 0.306383 1.02917 0.589629 0.809835 0.808832C0.590497 1.02804 0.307162 1.17185 0.000750035 1.2195M15.0248 3.447C13.1153 3.447 11.6302 1.962 11.5778 0H10.5165C10.4108 2.5455 12.426 4.56075 15.024 4.5075L15.0248 3.447ZM15.0248 2.28075V1.2195C14.7182 1.17199 14.4347 1.02825 14.2152 0.809031C13.9957 0.589816 13.8516 0.30649 13.8038 0H12.7433C12.7433 1.27275 13.698 2.2275 15.0233 2.28M12.762 13.5V7.5H15.012L7.512 0.75L0.012 7.5H2.262V13.5H12.762Z" fill="#FBBA78"/>
</svg>
