<svg width="15" height="13" viewBox="0 0 15 13" fill="none" xmlns="http://www.w3.org/2000/svg">
<path d="M6.2981 0H4.15497C3.3281 0 2.60528 0.565313 2.40841 1.36688L0.0402834 10.9266C-0.170654 11.7759 0.473408 12.6 1.35091 12.6H6.2981V10.8C6.2981 10.3022 6.70028 9.9 7.1981 9.9C7.69591 9.9 8.09809 10.3022 8.09809 10.8V12.6H13.0509C13.9284 12.6 14.5725 11.7759 14.3615 10.9266L11.9962 1.36688C11.7965 0.565313 11.0765 0 10.2468 0H8.09809V1.8C8.09809 2.29781 7.69591 2.7 7.1981 2.7C6.70028 2.7 6.2981 2.29781 6.2981 1.8V0ZM8.09809 5.4V7.2C8.09809 7.69781 7.69591 8.1 7.1981 8.1C6.70028 8.1 6.2981 7.69781 6.2981 7.2V5.4C6.2981 4.90219 6.70028 4.5 7.1981 4.5C7.69591 4.5 8.09809 4.90219 8.09809 5.4Z" fill="#FBBA78"/>
</svg>
