<svg width="18" height="16" viewBox="0 0 18 16" fill="none" xmlns="http://www.w3.org/2000/svg">
<path d="M4.0215 0C3.96025 2.289 2.22775 4.0215 0 4.0215V5.25875C3.03275 5.32088 5.383 2.96975 5.25875 0H4.0215ZM0 1.42275V2.66087C1.547 2.59875 2.66 1.48487 2.66 0H1.4245C1.36869 0.357446 1.2007 0.687901 0.944808 0.943638C0.688914 1.19937 0.358356 1.36716 0.000875041 1.42275M17.5289 4.0215C15.3011 4.0215 13.5686 2.289 13.5074 0H12.2693C12.1459 2.96975 14.497 5.32088 17.528 5.25875L17.5289 4.0215ZM17.5289 2.66087V1.42275C17.1712 1.36733 16.8405 1.19962 16.5844 0.943869C16.3284 0.688118 16.1602 0.357571 16.1044 0H14.8671C14.8671 1.48487 15.981 2.59875 17.5271 2.66M14.889 15.75V8.75H17.514L8.764 0.875L0.014 8.75H2.639V15.75H14.889Z" fill="white"/>
</svg>
