<svg width="83" height="81" viewBox="0 0 83 81" fill="none" xmlns="http://www.w3.org/2000/svg">
<g filter="url(#filter0_d_3167_10120)">
<mask id="path-1-inside-1_3167_10120" fill="white">
<path d="M39.1973 0.5625C40.6411 -0.186636 42.3589 -0.186638 43.8027 0.5625L76.3027 17.4258C77.9599 18.2856 79 19.9974 79 21.8643V54.4941C79 57.2556 76.7614 59.4941 74 59.4941H54.7559L42.9521 71.96C42.1632 72.7932 40.8368 72.7932 40.0479 71.96L28.2441 59.4941H9C6.23858 59.4941 4 57.2556 4 54.4941V21.8643C4 19.9974 5.04015 18.2856 6.69727 17.4258L39.1973 0.5625Z"/>
</mask>
<path d="M39.1973 0.5625C40.6411 -0.186636 42.3589 -0.186638 43.8027 0.5625L76.3027 17.4258C77.9599 18.2856 79 19.9974 79 21.8643V54.4941C79 57.2556 76.7614 59.4941 74 59.4941H54.7559L42.9521 71.96C42.1632 72.7932 40.8368 72.7932 40.0479 71.96L28.2441 59.4941H9C6.23858 59.4941 4 57.2556 4 54.4941V21.8643C4 19.9974 5.04015 18.2856 6.69727 17.4258L39.1973 0.5625Z" fill="#063152"/>
<path d="M39.1973 0.5625L38.7367 -0.32513L38.7367 -0.325127L39.1973 0.5625ZM43.8027 0.5625L44.2633 -0.325127L44.2633 -0.325129L43.8027 0.5625ZM76.3027 17.4258L75.8422 18.3134V18.3134L76.3027 17.4258ZM54.7559 59.4941V58.4941H54.3256L54.0297 58.8066L54.7559 59.4941ZM42.9521 71.96L42.226 71.2724L42.226 71.2724L42.9521 71.96ZM40.0479 71.96L40.774 71.2724L40.774 71.2724L40.0479 71.96ZM28.2441 59.4941L28.9703 58.8066L28.6744 58.4941H28.2441V59.4941ZM9 59.4941L9 60.4941H9V59.4941ZM6.69727 17.4258L6.2367 16.5382H6.2367L6.69727 17.4258ZM39.1973 0.5625L39.6578 1.45013C40.8129 0.85082 42.1871 0.85082 43.3422 1.45013L43.8027 0.5625L44.2633 -0.325129C42.5307 -1.22409 40.4693 -1.22409 38.7367 -0.32513L39.1973 0.5625ZM43.8027 0.5625L43.3422 1.45013L75.8422 18.3134L76.3027 17.4258L76.7633 16.5382L44.2633 -0.325127L43.8027 0.5625ZM76.3027 17.4258L75.8422 18.3134C77.1678 19.0012 78 20.3707 78 21.8643H79H80C80 19.624 78.7519 17.57 76.7633 16.5382L76.3027 17.4258ZM79 21.8643H78V54.4941H79H80V21.8643H79ZM79 54.4941H78C78 56.7033 76.2091 58.4941 74 58.4941V59.4941V60.4941C77.3137 60.4941 80 57.8078 80 54.4941H79ZM74 59.4941V58.4941H54.7559V59.4941V60.4941H74V59.4941ZM54.7559 59.4941L54.0297 58.8066L42.226 71.2724L42.9521 71.96L43.6783 72.6475L55.482 60.1817L54.7559 59.4941ZM42.9521 71.96L42.226 71.2724C41.8315 71.689 41.1685 71.689 40.774 71.2724L40.0479 71.96L39.3217 72.6475C40.5051 73.8973 42.4949 73.8973 43.6783 72.6475L42.9521 71.96ZM40.0479 71.96L40.774 71.2724L28.9703 58.8066L28.2441 59.4941L27.518 60.1817L39.3217 72.6475L40.0479 71.96ZM28.2441 59.4941V58.4941H9V59.4941V60.4941H28.2441V59.4941ZM9 59.4941L9 58.4941C6.79086 58.4941 5 56.7033 5 54.4941H4H3C3 57.8078 5.68629 60.4941 9 60.4941L9 59.4941ZM4 54.4941H5V21.8643H4H3V54.4941H4ZM4 21.8643H5C5 20.3707 5.83218 19.0012 7.15783 18.3134L6.69727 17.4258L6.2367 16.5382C4.24813 17.57 3 19.624 3 21.8643H4ZM6.69727 17.4258L7.15783 18.3134L39.6578 1.45013L39.1973 0.5625L38.7367 -0.325127L6.2367 16.5382L6.69727 17.4258Z" fill="white" mask="url(#path-1-inside-1_3167_10120)"/>
</g>
<defs>
<filter id="filter0_d_3167_10120" x="0" y="0" width="83" height="80.585" filterUnits="userSpaceOnUse" color-interpolation-filters="sRGB">
<feFlood flood-opacity="0" result="BackgroundImageFix"/>
<feColorMatrix in="SourceAlpha" type="matrix" values="0 0 0 0 0 0 0 0 0 0 0 0 0 0 0 0 0 0 127 0" result="hardAlpha"/>
<feOffset dy="4"/>
<feGaussianBlur stdDeviation="2"/>
<feComposite in2="hardAlpha" operator="out"/>
<feColorMatrix type="matrix" values="0 0 0 0 0 0 0 0 0 0 0 0 0 0 0 0 0 0 0.15 0"/>
<feBlend mode="normal" in2="BackgroundImageFix" result="effect1_dropShadow_3167_10120"/>
<feBlend mode="normal" in="SourceGraphic" in2="effect1_dropShadow_3167_10120" result="shape"/>
</filter>
</defs>
</svg>
