<svg width="283" height="242" viewBox="0 0 283 242" fill="none" xmlns="http://www.w3.org/2000/svg">
<g filter="url(#filter0_d_2798_13870)">
<circle cx="142" cy="120.8" r="104" fill="#2EA98C" fill-opacity="0.3" shape-rendering="crispEdges"/>
<circle cx="142" cy="120.8" r="103" stroke="#2EA98C" stroke-width="2" shape-rendering="crispEdges"/>
</g>
<g filter="url(#filter1_d_2798_13870)">
<mask id="path-3-inside-1_2798_13870" fill="white">
<path fill-rule="evenodd" clip-rule="evenodd" d="M140.197 83.3602C141.641 82.6111 143.359 82.6111 144.803 83.3602L177.303 100.223C178.96 101.083 180 102.795 180 104.662V137.292C180 140.053 177.761 142.292 175 142.292H155.756L143.952 154.758C143.163 155.591 141.837 155.591 141.048 154.758L129.244 142.292H110C107.239 142.292 105 140.053 105 137.292V104.662C105 102.795 106.04 101.083 107.697 100.223L140.197 83.3602Z"/>
</mask>
<path fill-rule="evenodd" clip-rule="evenodd" d="M140.197 83.3602C141.641 82.6111 143.359 82.6111 144.803 83.3602L177.303 100.223C178.96 101.083 180 102.795 180 104.662V137.292C180 140.053 177.761 142.292 175 142.292H155.756L143.952 154.758C143.163 155.591 141.837 155.591 141.048 154.758L129.244 142.292H110C107.239 142.292 105 140.053 105 137.292V104.662C105 102.795 106.04 101.083 107.697 100.223L140.197 83.3602Z" fill="#17876E"/>
<path d="M140.197 83.3602L139.737 82.4726L139.737 82.4726L140.197 83.3602ZM144.803 83.3602L145.263 82.4726L145.263 82.4726L144.803 83.3602ZM177.303 100.223L177.763 99.3358V99.3358L177.303 100.223ZM155.756 142.292V141.292H155.326L155.03 141.604L155.756 142.292ZM143.952 154.758L143.226 154.07L143.226 154.07L143.952 154.758ZM141.048 154.758L141.774 154.07L141.774 154.07L141.048 154.758ZM129.244 142.292L129.97 141.604L129.674 141.292H129.244V142.292ZM110 142.292L110 143.292H110V142.292ZM107.697 100.223L107.237 99.3358H107.237L107.697 100.223ZM140.197 83.3602L140.658 84.2478C141.813 83.6485 143.187 83.6485 144.342 84.2478L144.803 83.3602L145.263 82.4726C143.531 81.5736 141.469 81.5736 139.737 82.4726L140.197 83.3602ZM144.803 83.3602L144.342 84.2478L176.842 101.111L177.303 100.223L177.763 99.3358L145.263 82.4726L144.803 83.3602ZM177.303 100.223L176.842 101.111C178.168 101.799 179 103.168 179 104.662H180H181C181 102.422 179.752 100.368 177.763 99.3358L177.303 100.223ZM180 104.662H179V137.292H180H181V104.662H180ZM180 137.292H179C179 139.501 177.209 141.292 175 141.292V142.292V143.292C178.314 143.292 181 140.606 181 137.292H180ZM175 142.292V141.292H155.756V142.292V143.292H175V142.292ZM155.756 142.292L155.03 141.604L143.226 154.07L143.952 154.758L144.678 155.445L156.482 142.979L155.756 142.292ZM143.952 154.758L143.226 154.07C142.832 154.487 142.168 154.487 141.774 154.07L141.048 154.758L140.322 155.445C141.505 156.695 143.495 156.695 144.678 155.445L143.952 154.758ZM141.048 154.758L141.774 154.07L129.97 141.604L129.244 142.292L128.518 142.979L140.322 155.445L141.048 154.758ZM129.244 142.292V141.292H110V142.292V143.292H129.244V142.292ZM110 142.292L110 141.292C107.791 141.292 106 139.501 106 137.292H105H104C104 140.606 106.686 143.292 110 143.292L110 142.292ZM105 137.292H106V104.662H105H104V137.292H105ZM105 104.662H106C106 103.168 106.832 101.799 108.158 101.111L107.697 100.223L107.237 99.3358C105.248 100.368 104 102.422 104 104.662H105ZM107.697 100.223L108.158 101.111L140.658 84.2478L140.197 83.3602L139.737 82.4726L107.237 99.3358L107.697 100.223Z" fill="white" mask="url(#path-3-inside-1_2798_13870)"/>
<path fill-rule="evenodd" clip-rule="evenodd" d="M141.946 112.693C141.946 112.693 136.5 108.106 136.5 103.592C136.5 102.001 137.132 100.475 138.257 99.3496C139.383 98.2244 140.909 97.5923 142.5 97.5923C144.091 97.5923 145.617 98.2244 146.743 99.3496C147.868 100.475 148.5 102.001 148.5 103.592C148.5 108.106 143.054 112.693 143.054 112.693C142.75 112.972 142.252 112.969 141.946 112.693ZM142.5 106.217C142.845 106.217 143.186 106.149 143.505 106.017C143.823 105.886 144.112 105.692 144.356 105.448C144.6 105.205 144.793 104.915 144.925 104.597C145.057 104.278 145.125 103.937 145.125 103.592C145.125 103.248 145.057 102.906 144.925 102.588C144.793 102.269 144.6 101.98 144.356 101.736C144.112 101.492 143.823 101.299 143.505 101.167C143.186 101.035 142.845 100.967 142.5 100.967C141.804 100.967 141.136 101.244 140.644 101.736C140.152 102.228 139.875 102.896 139.875 103.592C139.875 104.288 140.152 104.956 140.644 105.448C141.136 105.941 141.804 106.217 142.5 106.217Z" fill="white"/>
<path d="M122.172 122.834H116.008V121.413H122.172V122.834ZM119.641 128.17H117.914V124.624H119.641V128.17ZM123.195 122.444C123.185 123.157 123.159 123.814 123.117 124.413C123.081 125.006 122.995 125.668 122.859 126.397L121.141 126.249C121.286 125.493 121.38 124.829 121.422 124.256C121.469 123.683 121.495 123.066 121.5 122.405V122.241V121.413H123.195V122.241V122.444ZM126.578 130.936H124.797V120.358H126.578V130.936ZM128.406 126.225H125.852V124.764H128.406V126.225ZM127.023 134.217H117.266V132.795H127.023V134.217ZM119.016 133.249H117.266V129.999H119.016V133.249ZM115.164 127.522C116.924 127.517 118.513 127.486 119.93 127.428C121.352 127.371 122.701 127.251 123.977 127.069L124.07 128.327C122.768 128.556 121.385 128.712 119.922 128.795C118.464 128.874 116.93 128.913 115.32 128.913L115.164 127.522ZM140.898 128.358H139.156V120.374H140.898V128.358ZM140.898 134.303H131.539V129.061H140.898V134.303ZM133.25 132.905H139.195V130.444H133.25V132.905ZM134.07 122.28C134.07 123.155 133.911 123.98 133.594 124.756C133.276 125.532 132.812 126.207 132.203 126.78C131.594 127.353 130.859 127.782 130 128.069L129.141 126.694C129.885 126.454 130.521 126.111 131.047 125.663C131.573 125.209 131.966 124.691 132.227 124.108C132.487 123.519 132.617 122.91 132.617 122.28V120.905H134.07V122.28ZM134.414 122.28C134.414 122.884 134.544 123.462 134.805 124.014C135.065 124.561 135.451 125.051 135.961 125.483C136.477 125.91 137.094 126.241 137.812 126.475L136.953 127.811C136.115 127.54 135.396 127.134 134.797 126.592C134.198 126.051 133.742 125.413 133.43 124.678C133.117 123.939 132.961 123.139 132.961 122.28V120.905H134.414V122.28ZM155.156 134.467H153.484V120.358H155.156V134.467ZM154.055 127.241H151.547V125.827H154.055V127.241ZM151.984 133.803H150.344V120.6H151.984V133.803ZM148.953 130.85H143.406V121.889H148.953V130.85ZM145.031 129.475H147.32V123.256H145.031V129.475ZM164.078 129.139H162.344V127.084H164.078V129.139ZM169.664 127.467H156.805V126.092H169.664V127.467ZM168.016 125.194H158.414V120.795H168.016V125.194ZM160.125 123.834H166.289V122.155H160.125V123.834ZM168.07 131.999H160.039V133.436H158.32V130.749H166.352V129.85H158.312V128.53H168.07V131.999ZM168.453 134.358H158.32V133.03H168.453V134.358Z" fill="white"/>
</g>
<g filter="url(#filter2_d_2798_13870)">
<rect x="4" y="165.8" width="275" height="36" rx="18" fill="white" shape-rendering="crispEdges"/>
<path d="M34.625 181.617H31.4243V180.284H34.625V181.617ZM29.0879 179.69C29.0879 180.579 28.9463 181.407 28.6631 182.173C28.3799 182.935 27.9648 183.602 27.418 184.173C26.8711 184.739 26.2046 185.171 25.4185 185.469L24.5469 184.173C25.2402 183.934 25.8286 183.587 26.312 183.133C26.7954 182.674 27.1592 182.149 27.4033 181.558C27.6523 180.967 27.7769 180.345 27.7769 179.69V178.182H29.0879V179.69ZM29.4102 179.712C29.4102 180.308 29.5273 180.879 29.7617 181.426C30.001 181.973 30.355 182.461 30.8237 182.891C31.2925 183.321 31.8564 183.653 32.5156 183.887L31.6221 185.147C30.8799 184.864 30.2451 184.454 29.7178 183.917C29.1953 183.375 28.7974 182.745 28.5239 182.027C28.2505 181.309 28.1138 180.538 28.1138 179.712V178.182H29.4102V179.712ZM35.687 187.198H34.061V177.376H35.687V187.198ZM35.9727 190.354H26.9565V189.021H35.9727V190.354ZM28.6118 189.71H26.9565V186.136H28.6118V189.71ZM38.9463 183.521C40.0352 183.516 40.9214 183.492 41.605 183.448C42.2886 183.404 42.9746 183.321 43.6631 183.199L43.8242 184.517C43.0869 184.649 42.3643 184.739 41.6562 184.788C40.9531 184.832 40.0498 184.854 38.9463 184.854H38.0674V183.521H38.9463ZM43.2676 179.595H39.6274V184.246H38.0674V178.27H43.2676V179.595ZM43.1284 182.122H39.1514V180.877H43.1284V182.122ZM48.8853 185.433H47.3325V177.376H48.8853V185.433ZM47.7866 181.99H45.5161V180.687H47.7866V181.99ZM45.9482 185.345H44.4395V177.618H45.9482V185.345ZM48.8853 190.589H47.2739V187.337H39.8179V186.026H48.8853V190.589ZM60.9702 187.271H59.3442V177.376H60.9702V187.271ZM62.8232 182.876H60.4868V181.536H62.8232V182.876ZM58.3921 180.137H50.5332V178.841H58.3921V180.137ZM54.4663 180.687C55.0962 180.687 55.6553 180.792 56.1436 181.001C56.6367 181.211 57.02 181.509 57.2935 181.895C57.5669 182.276 57.7036 182.718 57.7036 183.221C57.7036 183.714 57.5669 184.148 57.2935 184.524C57.02 184.9 56.6367 185.193 56.1436 185.403C55.6553 185.613 55.0962 185.718 54.4663 185.718C53.8364 185.718 53.2725 185.613 52.7744 185.403C52.2812 185.193 51.8979 184.9 51.6245 184.524C51.356 184.148 51.2217 183.714 51.2217 183.221C51.2217 182.718 51.356 182.276 51.6245 181.895C51.8979 181.509 52.2812 181.211 52.7744 181.001C53.2725 180.792 53.8364 180.687 54.4663 180.687ZM54.4663 181.946C54.1392 181.946 53.8462 181.995 53.5874 182.093C53.3335 182.19 53.1382 182.339 53.0015 182.54C52.8647 182.735 52.7964 182.962 52.7964 183.221C52.7964 183.479 52.8647 183.704 53.0015 183.895C53.1382 184.08 53.3335 184.222 53.5874 184.319C53.8462 184.417 54.1392 184.466 54.4663 184.466C54.8032 184.466 55.0986 184.417 55.3525 184.319C55.6064 184.222 55.8042 184.08 55.9458 183.895C56.0874 183.704 56.1582 183.479 56.1582 183.221C56.1582 182.962 56.0874 182.735 55.9458 182.54C55.8042 182.339 55.6064 182.19 55.3525 182.093C55.0986 181.995 54.8032 181.946 54.4663 181.946ZM55.2866 179.485H53.6533V177.369H55.2866V179.485ZM61.4902 190.354H52.4888V189.021H61.4902V190.354ZM54.1074 189.578H52.4888V186.495H54.1074V189.578ZM78.4897 190.589H76.9224V177.361H78.4897V190.589ZM77.457 183.814H75.106V182.488H77.457V183.814ZM75.5161 189.966H73.978V177.588H75.5161V189.966ZM72.6743 187.198H67.4741V178.797H72.6743V187.198ZM68.9976 185.909H71.1436V180.079H68.9976V185.909ZM86.854 185.594H85.228V183.667H86.854V185.594ZM92.0908 184.026H80.0352V182.737H92.0908V184.026ZM90.5454 181.895H81.5439V177.771H90.5454V181.895ZM83.1479 180.621H88.9268V179.046H83.1479V180.621ZM90.5967 188.274H83.0674V189.622H81.4561V187.103H88.9854V186.26H81.4487V185.022H90.5967V188.274ZM90.9556 190.486H81.4561V189.241H90.9556V190.486ZM97.291 178.27C97.9844 178.27 98.6069 178.406 99.1587 178.68C99.7104 178.953 100.143 179.334 100.455 179.822C100.768 180.306 100.924 180.857 100.924 181.478C100.924 182.098 100.768 182.652 100.455 183.14C100.143 183.624 99.7104 184.002 99.1587 184.275C98.6118 184.549 97.9893 184.686 97.291 184.686C96.6074 184.686 95.9873 184.549 95.4307 184.275C94.874 184.002 94.437 183.624 94.1196 183.14C93.8071 182.652 93.6509 182.098 93.6509 181.478C93.6509 180.857 93.8071 180.306 94.1196 179.822C94.437 179.334 94.874 178.953 95.4307 178.68C95.9873 178.406 96.6074 178.27 97.291 178.27ZM97.291 179.683C96.9053 179.683 96.5586 179.756 96.251 179.903C95.9434 180.049 95.7017 180.259 95.5259 180.533C95.3501 180.801 95.2622 181.116 95.2622 181.478C95.2622 181.839 95.3501 182.154 95.5259 182.422C95.7017 182.691 95.9434 182.901 96.251 183.052C96.5586 183.199 96.9053 183.272 97.291 183.272C97.6865 183.272 98.0381 183.199 98.3457 183.052C98.6533 182.901 98.8926 182.691 99.0635 182.422C99.2393 182.154 99.3271 181.839 99.3271 181.478C99.3271 181.116 99.2393 180.801 99.0635 180.533C98.8926 180.259 98.6533 180.049 98.3457 179.903C98.0381 179.756 97.6865 179.683 97.291 179.683ZM104.015 190.625H102.403V177.361H104.015V190.625ZM93.2554 186.517C94.8618 186.512 96.3462 186.48 97.7085 186.421C99.0757 186.363 100.375 186.248 101.605 186.077L101.729 187.264C100.816 187.43 99.8691 187.557 98.8877 187.645C97.9062 187.732 96.9834 187.789 96.1191 187.813C95.2598 187.837 94.3052 187.85 93.2554 187.85L93.0503 186.517H93.2554ZM116.048 179.236C116.048 180.008 115.824 180.716 115.375 181.36C114.93 182.005 114.31 182.544 113.514 182.979C112.718 183.409 111.805 183.702 110.775 183.858L110.16 182.583C111.039 182.466 111.817 182.239 112.496 181.902C113.175 181.565 113.7 181.165 114.071 180.701C114.442 180.232 114.627 179.744 114.627 179.236V178.782H116.048V179.236ZM116.502 179.236C116.502 179.744 116.686 180.232 117.052 180.701C117.423 181.165 117.948 181.565 118.626 181.902C119.31 182.239 120.091 182.466 120.97 182.583L120.384 183.858C119.344 183.702 118.424 183.409 117.623 182.979C116.822 182.549 116.197 182.012 115.748 181.368C115.304 180.718 115.082 180.008 115.082 179.236V178.782H116.502V179.236ZM116.334 190.596H114.73V185.66H116.334V190.596ZM121.593 186.055H109.537V184.744H121.593V186.055ZM120.487 179.39H110.628V178.108H120.487V179.39ZM132.535 180.987H128.976V179.654H132.535V180.987ZM132.586 183.807H128.976V182.496H132.586V183.807ZM133.583 187.146H131.957V177.376H133.583V187.146ZM133.868 190.354H124.852V189.021H133.868V190.354ZM126.507 189.747H124.852V186.18H126.507V189.747ZM124.728 180.379H127.687V178.248H129.291V185H123.094V178.248H124.728V180.379ZM127.687 183.704V181.631H124.728V183.704H127.687ZM148.934 181.99H146.239V180.665H148.934V181.99ZM150.121 185.235H148.495V177.361H150.121V185.235ZM145.646 185.564C146.583 185.564 147.389 185.665 148.062 185.865C148.741 186.06 149.261 186.348 149.623 186.729C149.984 187.105 150.165 187.557 150.165 188.084C150.165 188.611 149.984 189.063 149.623 189.439C149.261 189.815 148.741 190.101 148.062 190.296C147.389 190.496 146.583 190.601 145.646 190.611C144.718 190.601 143.915 190.496 143.236 190.296C142.562 190.101 142.042 189.815 141.676 189.439C141.314 189.063 141.134 188.611 141.134 188.084C141.134 187.557 141.314 187.105 141.676 186.729C142.042 186.348 142.562 186.06 143.236 185.865C143.915 185.665 144.718 185.564 145.646 185.564ZM145.646 186.81C145.035 186.81 144.513 186.858 144.078 186.956C143.644 187.049 143.314 187.19 143.089 187.381C142.865 187.571 142.752 187.806 142.752 188.084C142.752 188.348 142.865 188.575 143.089 188.765C143.314 188.956 143.644 189.102 144.078 189.205C144.513 189.302 145.035 189.351 145.646 189.351C146.266 189.351 146.791 189.302 147.22 189.205C147.655 189.102 147.982 188.956 148.202 188.765C148.426 188.575 148.539 188.348 148.539 188.084C148.539 187.806 148.426 187.571 148.202 187.381C147.982 187.19 147.655 187.049 147.22 186.956C146.791 186.858 146.266 186.81 145.646 186.81ZM143.573 179.639C143.573 180.474 143.426 181.263 143.133 182.005C142.845 182.742 142.42 183.389 141.859 183.946C141.302 184.502 140.631 184.92 139.845 185.198L138.995 183.902C139.688 183.663 140.279 183.323 140.768 182.884C141.256 182.439 141.622 181.937 141.866 181.375C142.115 180.813 142.24 180.235 142.24 179.639V178.694H143.573V179.639ZM143.895 179.625C143.895 180.176 144.012 180.708 144.247 181.221C144.486 181.734 144.84 182.195 145.309 182.605C145.782 183.011 146.349 183.328 147.008 183.558L146.195 184.847C145.423 184.583 144.767 184.19 144.225 183.667C143.683 183.14 143.27 182.53 142.987 181.836C142.708 181.138 142.569 180.401 142.569 179.625V178.694H143.895V179.625ZM146.642 179.544H139.479V178.218H146.642V179.544ZM164.103 189.007H152.003V187.674H164.103V189.007ZM158.822 188.025H157.218V184.7H158.822V188.025ZM154.962 180.408H161.092V178.24H162.711V185.088H153.329V178.24H154.962V180.408ZM161.092 183.785V181.705H154.962V183.785H161.092ZM177.052 184.59H164.952V183.367H177.052V184.59ZM175.587 188.399H167.992V189.703H166.358V187.352H173.968V186.539H166.351V185.381H175.587V188.399ZM175.982 190.457H166.358V189.329H175.982V190.457ZM175.558 180.643H168.102V181.866H166.483V179.588H173.917V178.782H166.446V177.654H175.558V180.643ZM175.785 182.62H166.483V181.507H175.785V182.62ZM186.339 185.301H184.713V183.477H186.339V185.301ZM191.993 186.333H190.36V177.376H191.993V186.333ZM193.78 182.576H191.393V181.236H193.78V182.576ZM181.593 184.744C183.106 184.744 184.537 184.72 185.885 184.671C187.232 184.617 188.497 184.515 189.679 184.363L189.803 185.491C188.563 185.706 187.286 185.848 185.973 185.916C184.659 185.979 183.187 186.014 181.556 186.019L181.38 184.744H181.593ZM191.993 190.589H190.36V188.172H183.043V186.897H191.993V190.589ZM189.32 179.625H181.717V178.431H189.32V179.625ZM185.511 179.991C186.156 179.991 186.717 180.071 187.196 180.232C187.679 180.389 188.053 180.616 188.316 180.914C188.58 181.207 188.712 181.553 188.712 181.954C188.712 182.354 188.58 182.703 188.316 183.001C188.053 183.299 187.679 183.531 187.196 183.697C186.717 183.858 186.156 183.938 185.511 183.938C184.876 183.938 184.317 183.858 183.834 183.697C183.355 183.531 182.982 183.299 182.713 183.001C182.45 182.703 182.318 182.354 182.318 181.954C182.318 181.553 182.45 181.207 182.713 180.914C182.982 180.616 183.355 180.389 183.834 180.232C184.317 180.071 184.876 179.991 185.511 179.991ZM185.511 181.097C185.169 181.087 184.876 181.116 184.632 181.185C184.393 181.248 184.208 181.346 184.076 181.478C183.944 181.604 183.878 181.763 183.878 181.954C183.878 182.139 183.944 182.298 184.076 182.43C184.208 182.562 184.396 182.664 184.64 182.737C184.884 182.806 185.174 182.84 185.511 182.84C185.858 182.84 186.153 182.806 186.397 182.737C186.642 182.664 186.827 182.562 186.954 182.43C187.086 182.298 187.152 182.139 187.152 181.954C187.152 181.763 187.086 181.604 186.954 181.478C186.827 181.346 186.642 181.248 186.397 181.185C186.158 181.116 185.863 181.087 185.511 181.097ZM186.339 179.002H184.713V177.259H186.339V179.002ZM205.484 186.941H203.851V177.376H205.484V186.941ZM205.858 190.354H196.725V189.021H205.858V190.354ZM198.365 189.542H196.725V185.975H198.365V189.542ZM198.27 178.24C198.939 178.24 199.544 178.382 200.086 178.665C200.633 178.948 201.061 179.341 201.368 179.844C201.681 180.347 201.837 180.914 201.837 181.543C201.837 182.188 201.681 182.764 201.368 183.272C201.061 183.775 200.633 184.168 200.086 184.451C199.544 184.734 198.939 184.876 198.27 184.876C197.601 184.876 196.996 184.734 196.454 184.451C195.917 184.168 195.489 183.775 195.172 183.272C194.859 182.764 194.703 182.188 194.703 181.543C194.703 180.914 194.859 180.347 195.172 179.844C195.489 179.341 195.917 178.948 196.454 178.665C196.996 178.382 197.601 178.24 198.27 178.24ZM198.27 179.668C197.894 179.664 197.555 179.739 197.252 179.896C196.954 180.047 196.72 180.267 196.549 180.555C196.378 180.843 196.292 181.172 196.292 181.543C196.292 181.924 196.378 182.261 196.549 182.554C196.72 182.842 196.954 183.064 197.252 183.221C197.555 183.372 197.894 183.448 198.27 183.448C198.641 183.448 198.976 183.372 199.273 183.221C199.571 183.064 199.803 182.842 199.969 182.554C200.14 182.261 200.226 181.924 200.226 181.543C200.226 181.172 200.14 180.843 199.969 180.555C199.803 180.267 199.571 180.047 199.273 179.896C198.976 179.739 198.641 179.664 198.27 179.668ZM213.878 180.774H207.403V179.471H213.878V180.774ZM210.655 181.47C211.217 181.47 211.715 181.602 212.149 181.866C212.589 182.125 212.933 182.488 213.182 182.957C213.431 183.426 213.556 183.96 213.556 184.561C213.556 185.162 213.431 185.699 213.182 186.172C212.933 186.641 212.589 187.01 212.149 187.278C211.715 187.547 211.217 187.681 210.655 187.681C210.104 187.681 209.608 187.547 209.168 187.278C208.734 187.01 208.392 186.639 208.143 186.165C207.894 185.691 207.77 185.157 207.77 184.561C207.77 183.97 207.894 183.438 208.143 182.964C208.392 182.491 208.734 182.125 209.168 181.866C209.608 181.602 210.104 181.47 210.655 181.47ZM210.655 182.825C210.377 182.82 210.128 182.891 209.908 183.038C209.688 183.184 209.518 183.389 209.396 183.653C209.273 183.912 209.212 184.214 209.212 184.561C209.212 184.908 209.273 185.213 209.396 185.477C209.522 185.74 209.693 185.94 209.908 186.077C210.128 186.214 210.377 186.282 210.655 186.282C210.938 186.282 211.19 186.214 211.41 186.077C211.629 185.94 211.803 185.74 211.93 185.477C212.057 185.213 212.12 184.908 212.12 184.561C212.12 184.214 212.057 183.912 211.93 183.653C211.803 183.389 211.629 183.184 211.41 183.038C211.19 182.891 210.938 182.82 210.655 182.825ZM218.807 190.589H217.254V177.361H218.807V190.589ZM217.767 184.122H215.445V182.811H217.767V184.122ZM215.965 189.996H214.435V177.647H215.965V189.996ZM211.461 180.284H209.857V177.742H211.461V180.284ZM232.496 189.007H220.396V187.674H232.496V189.007ZM227.215 188.025H225.611V184.7H227.215V188.025ZM223.355 180.408H229.486V178.24H231.104V185.088H221.722V178.24H223.355V180.408ZM229.486 183.785V181.705H223.355V183.785H229.486ZM240.978 183.265H238.604V181.924H240.978V183.265ZM237.169 180.906C237.169 181.902 237.057 182.854 236.832 183.763C236.612 184.666 236.275 185.477 235.821 186.194C235.367 186.907 234.808 187.466 234.144 187.872L233.141 186.663C233.756 186.287 234.271 185.794 234.686 185.184C235.101 184.573 235.409 183.904 235.609 183.177C235.814 182.449 235.917 181.692 235.917 180.906V178.541H237.169V180.906ZM237.491 180.84C237.491 181.597 237.579 182.32 237.755 183.008C237.936 183.692 238.214 184.324 238.59 184.905C238.971 185.486 239.447 185.958 240.018 186.319L239.125 187.579C238.465 187.183 237.923 186.634 237.499 185.931C237.074 185.228 236.761 184.446 236.561 183.587C236.361 182.728 236.261 181.812 236.261 180.84V178.541H237.491V180.84ZM244.779 190.589H243.211V177.361H244.779V190.589ZM242.018 189.966H240.494V177.588H242.018V189.966ZM250.726 187.923H249.122V184.129H250.726V187.923ZM255.626 187.923H253.985V184.129H255.626V187.923ZM258.424 189H246.324V187.659H258.424V189ZM252.352 178.072C253.299 178.072 254.144 178.218 254.886 178.511C255.633 178.799 256.219 179.209 256.644 179.742C257.069 180.274 257.281 180.884 257.281 181.573C257.281 182.266 257.069 182.876 256.644 183.404C256.224 183.931 255.641 184.339 254.894 184.627C254.151 184.915 253.304 185.062 252.352 185.066C251.4 185.062 250.55 184.915 249.803 184.627C249.061 184.339 248.478 183.931 248.053 183.404C247.633 182.876 247.423 182.266 247.423 181.573C247.423 180.884 247.633 180.274 248.053 179.742C248.478 179.209 249.063 178.799 249.811 178.511C250.558 178.218 251.405 178.072 252.352 178.072ZM252.352 179.375C251.693 179.371 251.112 179.456 250.609 179.632C250.111 179.808 249.72 180.062 249.437 180.394C249.159 180.726 249.02 181.119 249.02 181.573C249.02 182.022 249.159 182.415 249.437 182.752C249.72 183.084 250.111 183.343 250.609 183.528C251.112 183.709 251.693 183.799 252.352 183.799C253.001 183.799 253.578 183.709 254.081 183.528C254.583 183.343 254.974 183.084 255.252 182.752C255.536 182.415 255.677 182.022 255.677 181.573C255.677 181.119 255.536 180.728 255.252 180.401C254.974 180.069 254.583 179.815 254.081 179.639C253.583 179.458 253.006 179.371 252.352 179.375Z" fill="#2EA98C"/>
</g>
<defs>
<filter id="filter0_d_2798_13870" x="21.2" y="-0.000195503" width="241.6" height="241.6" filterUnits="userSpaceOnUse" color-interpolation-filters="sRGB">
<feFlood flood-opacity="0" result="BackgroundImageFix"/>
<feColorMatrix in="SourceAlpha" type="matrix" values="0 0 0 0 0 0 0 0 0 0 0 0 0 0 0 0 0 0 127 0" result="hardAlpha"/>
<feMorphology radius="6" operator="dilate" in="SourceAlpha" result="effect1_dropShadow_2798_13870"/>
<feOffset/>
<feGaussianBlur stdDeviation="5.4"/>
<feComposite in2="hardAlpha" operator="out"/>
<feColorMatrix type="matrix" values="0 0 0 0 1 0 0 0 0 1 0 0 0 0 1 0 0 0 0.4 0"/>
<feBlend mode="normal" in2="BackgroundImageFix" result="effect1_dropShadow_2798_13870"/>
<feBlend mode="normal" in="SourceGraphic" in2="effect1_dropShadow_2798_13870" result="shape"/>
</filter>
<filter id="filter1_d_2798_13870" x="101" y="79.7998" width="83" height="83.5825" filterUnits="userSpaceOnUse" color-interpolation-filters="sRGB">
<feFlood flood-opacity="0" result="BackgroundImageFix"/>
<feColorMatrix in="SourceAlpha" type="matrix" values="0 0 0 0 0 0 0 0 0 0 0 0 0 0 0 0 0 0 127 0" result="hardAlpha"/>
<feOffset dy="4"/>
<feGaussianBlur stdDeviation="2"/>
<feComposite in2="hardAlpha" operator="out"/>
<feColorMatrix type="matrix" values="0 0 0 0 0 0 0 0 0 0 0 0 0 0 0 0 0 0 0.15 0"/>
<feBlend mode="normal" in2="BackgroundImageFix" result="effect1_dropShadow_2798_13870"/>
<feBlend mode="normal" in="SourceGraphic" in2="effect1_dropShadow_2798_13870" result="shape"/>
</filter>
<filter id="filter2_d_2798_13870" x="0" y="165.8" width="283" height="44" filterUnits="userSpaceOnUse" color-interpolation-filters="sRGB">
<feFlood flood-opacity="0" result="BackgroundImageFix"/>
<feColorMatrix in="SourceAlpha" type="matrix" values="0 0 0 0 0 0 0 0 0 0 0 0 0 0 0 0 0 0 127 0" result="hardAlpha"/>
<feOffset dy="4"/>
<feGaussianBlur stdDeviation="2"/>
<feComposite in2="hardAlpha" operator="out"/>
<feColorMatrix type="matrix" values="0 0 0 0 0 0 0 0 0 0 0 0 0 0 0 0 0 0 0.15 0"/>
<feBlend mode="normal" in2="BackgroundImageFix" result="effect1_dropShadow_2798_13870"/>
<feBlend mode="normal" in="SourceGraphic" in2="effect1_dropShadow_2798_13870" result="shape"/>
</filter>
</defs>
</svg>
