<svg width="41" height="41" viewBox="0 0 41 41" fill="none" xmlns="http://www.w3.org/2000/svg">
<path fill-rule="evenodd" clip-rule="evenodd" d="M22.2084 5.125C23.0703 5.12473 23.9006 5.45028 24.5326 6.03639C25.1647 6.6225 25.5518 7.42586 25.6165 8.28542L25.625 8.54167V32.4583H27.3334V16.2292C27.3333 16.0292 27.4033 15.8356 27.5313 15.6821C27.6593 15.5285 27.8371 15.4247 28.0338 15.3887L28.1875 15.375H30.75C31.612 15.3747 32.4422 15.7003 33.0743 16.2864C33.7063 16.8725 34.0935 17.6759 34.1581 18.5354L34.1667 18.7917V32.4583H35.875C36.3104 32.4588 36.7292 32.6255 37.0459 32.9244C37.3625 33.2234 37.553 33.6319 37.5785 34.0665C37.604 34.5012 37.4626 34.9292 37.1832 35.2631C36.9037 35.597 36.5073 35.8116 36.0749 35.863L35.875 35.875H5.12502C4.6896 35.8745 4.2708 35.7078 3.95418 35.4089C3.63757 35.11 3.44704 34.7015 3.42152 34.2668C3.396 33.8321 3.53742 33.4041 3.81689 33.0702C4.09636 32.7363 4.49277 32.5217 4.92514 32.4703L5.12502 32.4583H6.83335V8.54167C6.83308 7.67968 7.15863 6.84945 7.74474 6.2174C8.33086 5.58535 9.13421 5.19819 9.99377 5.13354L10.25 5.125H22.2084ZM18.7917 25.625H13.6667V29.0417H18.7917V25.625ZM18.7917 18.7917H13.6667V22.2083H18.7917V18.7917ZM18.7917 11.9583H13.6667V15.375H18.7917V11.9583Z" fill="#30CEA1"/>
</svg>
