<svg width="41" height="41" viewBox="0 0 41 41" fill="none" xmlns="http://www.w3.org/2000/svg">
<path d="M6 38.5C5.44771 38.5 5 38.0523 5 37.5V15.7203C5 15.407 5.14687 15.1117 5.39678 14.9227L19.8968 3.95622C20.2536 3.68632 20.7464 3.68632 21.1032 3.95622L35.6032 14.9227C35.8531 15.1117 36 15.407 36 15.7203V37.5C36 38.0523 35.5523 38.5 35 38.5H31.4643C30.912 38.5 30.4643 38.0523 30.4643 37.5V19.5038C30.4643 18.9515 30.0166 18.5038 29.4643 18.5038H11.5357C10.9834 18.5038 10.5357 18.9515 10.5357 19.5038V37.5C10.5357 38.0523 10.088 38.5 9.53571 38.5H6ZM12.75 35.2388C12.75 35.7911 13.1977 36.2388 13.75 36.2388H27.25C27.8023 36.2388 28.25 35.7911 28.25 35.2388V30.5882C28.25 30.0359 27.8023 29.5882 27.25 29.5882H13.75C13.1977 29.5882 12.75 30.0359 12.75 30.5882V35.2388ZM12.75 26.3713C12.75 26.9236 13.1977 27.3713 13.75 27.3713H27.25C27.8023 27.3713 28.25 26.9236 28.25 26.3713V21.7207C28.25 21.1684 27.8023 20.7207 27.25 20.7207H13.75C13.1977 20.7207 12.75 21.1684 12.75 21.7207V26.3713Z" fill="#30CEA1"/>
</svg>
