<svg width="35" height="31" viewBox="0 0 35 31" fill="none" xmlns="http://www.w3.org/2000/svg">
<path fill-rule="evenodd" clip-rule="evenodd" d="M18.7898 1.71291e-07C19.6518 -0.000272615 20.482 0.325278 21.114 0.911391C21.7461 1.4975 22.1332 2.30086 22.1979 3.16042L22.2064 3.41667V27.3333H23.9148V11.1042C23.9147 10.9042 23.9848 10.7106 24.1127 10.5571C24.2407 10.4035 24.4185 10.2997 24.6152 10.2637L24.7689 10.25H27.3314C28.1934 10.2497 29.0237 10.5753 29.6557 11.1614C30.2878 11.7475 30.6749 12.5509 30.7396 13.4104L30.7481 13.6667V27.3333H32.4564C32.8919 27.3338 33.3107 27.5005 33.6273 27.7994C33.9439 28.0984 34.1344 28.5069 34.1599 28.9415C34.1855 29.3762 34.044 29.8042 33.7646 30.1381C33.4851 30.472 33.0887 30.6866 32.6563 30.738L32.4564 30.75H1.70644C1.27102 30.7495 0.852219 30.5828 0.535603 30.2839C0.218987 29.985 0.028456 29.5765 0.00293839 29.1418C-0.0225792 28.7071 0.118843 28.2791 0.39831 27.9452C0.677777 27.6113 1.07419 27.3967 1.50657 27.3453L1.70644 27.3333H3.41477V3.41667C3.4145 2.55468 3.74005 1.72445 4.32616 1.0924C4.91228 0.460346 5.71563 0.0731908 6.57519 0.00854203L6.83144 1.71291e-07H18.7898ZM15.3731 20.5H10.2481V23.9167H15.3731V20.5ZM15.3731 13.6667H10.2481V17.0833H15.3731V13.6667ZM15.3731 6.83333H10.2481V10.25H15.3731V6.83333Z" fill="#C4C4C4"/>
</svg>
