<svg width="23" height="30" viewBox="0 0 23 30" fill="none" xmlns="http://www.w3.org/2000/svg">
<path d="M2.875 0C1.28776 0 0 1.25977 0 2.8125V27.1875C0 28.7402 1.28776 30 2.875 30H8.625V25.3125C8.625 23.7598 9.91276 22.5 11.5 22.5C13.0872 22.5 14.375 23.7598 14.375 25.3125V30H20.125C21.7122 30 23 28.7402 23 27.1875V2.8125C23 1.25977 21.7122 0 20.125 0H2.875ZM3.83333 14.0625C3.83333 13.5469 4.26458 13.125 4.79167 13.125H6.70833C7.23542 13.125 7.66667 13.5469 7.66667 14.0625V15.9375C7.66667 16.4531 7.23542 16.875 6.70833 16.875H4.79167C4.26458 16.875 3.83333 16.4531 3.83333 15.9375V14.0625ZM10.5417 13.125H12.4583C12.9854 13.125 13.4167 13.5469 13.4167 14.0625V15.9375C13.4167 16.4531 12.9854 16.875 12.4583 16.875H10.5417C10.0146 16.875 9.58333 16.4531 9.58333 15.9375V14.0625C9.58333 13.5469 10.0146 13.125 10.5417 13.125ZM15.3333 14.0625C15.3333 13.5469 15.7646 13.125 16.2917 13.125H18.2083C18.7354 13.125 19.1667 13.5469 19.1667 14.0625V15.9375C19.1667 16.4531 18.7354 16.875 18.2083 16.875H16.2917C15.7646 16.875 15.3333 16.4531 15.3333 15.9375V14.0625ZM4.79167 5.625H6.70833C7.23542 5.625 7.66667 6.04688 7.66667 6.5625V8.4375C7.66667 8.95312 7.23542 9.375 6.70833 9.375H4.79167C4.26458 9.375 3.83333 8.95312 3.83333 8.4375V6.5625C3.83333 6.04688 4.26458 5.625 4.79167 5.625ZM9.58333 6.5625C9.58333 6.04688 10.0146 5.625 10.5417 5.625H12.4583C12.9854 5.625 13.4167 6.04688 13.4167 6.5625V8.4375C13.4167 8.95312 12.9854 9.375 12.4583 9.375H10.5417C10.0146 9.375 9.58333 8.95312 9.58333 8.4375V6.5625ZM16.2917 5.625H18.2083C18.7354 5.625 19.1667 6.04688 19.1667 6.5625V8.4375C19.1667 8.95312 18.7354 9.375 18.2083 9.375H16.2917C15.7646 9.375 15.3333 8.95312 15.3333 8.4375V6.5625C15.3333 6.04688 15.7646 5.625 16.2917 5.625Z" fill="#C4C4C4"/>
</svg>
