<svg width="31" height="35" viewBox="0 0 31 35" fill="none" xmlns="http://www.w3.org/2000/svg">
<path d="M0.999999 34.7461C0.447714 34.7461 0 34.2984 0 33.7461V11.9664C0 11.6531 0.14687 11.3578 0.396783 11.1688L14.8968 0.202314C15.2536 -0.0675831 15.7464 -0.0675834 16.1032 0.202314L30.6032 11.1688C30.8531 11.3578 31 11.6531 31 11.9664V33.7461C31 34.2984 30.5523 34.7461 30 34.7461H26.4643C25.912 34.7461 25.4643 34.2984 25.4643 33.7461V15.7499C25.4643 15.1976 25.0166 14.7499 24.4643 14.7499H6.53571C5.98343 14.7499 5.53571 15.1976 5.53571 15.7499V33.7461C5.53571 34.2984 5.088 34.7461 4.53571 34.7461H0.999999ZM7.75 31.4849C7.75 32.0372 8.19771 32.4849 8.75 32.4849H22.25C22.8023 32.4849 23.25 32.0372 23.25 31.4849V26.8343C23.25 26.282 22.8023 25.8343 22.25 25.8343H8.75C8.19771 25.8343 7.75 26.282 7.75 26.8343V31.4849ZM7.75 22.6174C7.75 23.1697 8.19771 23.6174 8.75 23.6174H22.25C22.8023 23.6174 23.25 23.1697 23.25 22.6174V17.9668C23.25 17.4145 22.8023 16.9668 22.25 16.9668H8.75C8.19771 16.9668 7.75 17.4145 7.75 17.9668V22.6174Z" fill="#C4C4C4"/>
</svg>
