<svg width="31" height="35" viewBox="0 0 31 35" fill="none" xmlns="http://www.w3.org/2000/svg">
<path d="M0.999999 34.7461C0.447714 34.7461 0 34.2984 0 33.7461V11.9664C0 11.6531 0.14687 11.3578 0.396783 11.1688L14.8968 0.202314C15.2536 -0.0675831 15.7464 -0.0675835 16.1032 0.202314L30.6032 11.1688C30.8531 11.3578 31 11.6531 31 11.9664V33.7461C31 34.2984 30.5523 34.7461 30 34.7461H26.4643C25.912 34.7461 25.4643 34.2984 25.4643 33.7461V15.7499C25.4643 15.1976 25.0166 14.7499 24.4643 14.7499H6.53571C5.98343 14.7499 5.53571 15.1976 5.53571 15.7499V33.7461C5.53571 34.2984 5.088 34.7461 4.53571 34.7461H0.999999ZM7.75 31.7461C7.75 32.2984 8.19771 32.7461 8.75 32.7461H22.25C22.8023 32.7461 23.25 32.2984 23.25 31.7461L23.25 17.9668C23.25 17.4145 22.8023 16.9668 22.25 16.9668H8.75C8.19772 16.9668 7.75 17.4145 7.75 17.9668L7.75 31.7461Z" fill="#C4C4C4"/>
</svg>
