<svg width="63" height="68" viewBox="0 0 63 68" fill="none" xmlns="http://www.w3.org/2000/svg">
<g filter="url(#filter0_d_2766_11427)">
<mask id="path-1-inside-1_2766_11427" fill="white">
<path d="M31.5 12C42.2696 12 51 20.7304 51 31.5C51 40.3196 45.1446 47.771 37.1094 50.1804C36.9173 50.238 36.7445 50.3487 36.6156 50.5023L32.7658 55.0879C32.3662 55.5638 31.6338 55.5639 31.2341 55.088L27.667 50.8401C27.5233 50.6691 27.3258 50.5518 27.1081 50.5017C18.4538 48.5096 12 40.7592 12 31.5C12 20.7304 20.7304 12 31.5 12Z"/>
</mask>
<path d="M31.5 12C42.2696 12 51 20.7304 51 31.5C51 40.3196 45.1446 47.771 37.1094 50.1804C36.9173 50.238 36.7445 50.3487 36.6156 50.5023L32.7658 55.0879C32.3662 55.5638 31.6338 55.5639 31.2341 55.088L27.667 50.8401C27.5233 50.6691 27.3258 50.5518 27.1081 50.5017C18.4538 48.5096 12 40.7592 12 31.5C12 20.7304 20.7304 12 31.5 12Z" fill="#0192C8"/>
<path d="M27.667 50.8401L26.9012 51.4832L27.667 50.8401ZM27.1081 50.5017L27.3324 49.5272L27.1081 50.5017ZM32.7658 55.0879L31.9999 54.4449L32.7658 55.0879ZM31.2341 55.088L31.9999 54.4449L31.2341 55.088ZM37.1094 50.1804L37.3966 51.1383L37.1094 50.1804ZM36.6156 50.5023L37.3815 51.1452L36.6156 50.5023ZM31.5 12V13C41.7173 13 50 21.2827 50 31.5H51H52C52 20.1782 42.8218 11 31.5 11V12ZM51 31.5H50C50 39.8658 44.4461 46.9365 36.8221 49.2226L37.1094 50.1804L37.3966 51.1383C45.8431 48.6056 52 40.7734 52 31.5H51ZM36.6156 50.5023L35.8498 49.8593L31.9999 54.4449L32.7658 55.0879L33.5317 55.7309L37.3815 51.1452L36.6156 50.5023ZM31.2341 55.088L31.9999 54.4449L28.4328 50.197L27.667 50.8401L26.9012 51.4832L30.4683 55.731L31.2341 55.088ZM27.1081 50.5017L27.3324 49.5272C19.1219 47.6372 13 40.283 13 31.5H12H11C11 41.2355 17.7856 49.3819 26.8838 51.4762L27.1081 50.5017ZM12 31.5H13C13 21.2827 21.2827 13 31.5 13V12V11C20.1782 11 11 20.1782 11 31.5H12ZM27.667 50.8401L28.4328 50.197C28.1431 49.8521 27.752 49.6238 27.3324 49.5272L27.1081 50.5017L26.8838 51.4762C26.8911 51.4779 26.8963 51.4803 26.8993 51.4821C26.9021 51.4839 26.9023 51.4846 26.9012 51.4832L27.667 50.8401ZM32.7658 55.0879L31.9999 54.4449V54.4449L31.2341 55.088L30.4683 55.731C31.2676 56.6829 32.7324 56.6828 33.5317 55.7309L32.7658 55.0879ZM37.1094 50.1804L36.8221 49.2226C36.4517 49.3337 36.1096 49.5497 35.8498 49.8593L36.6156 50.5023L37.3815 51.1452C37.3795 51.1477 37.383 51.1424 37.3966 51.1383L37.1094 50.1804Z" fill="white" mask="url(#path-1-inside-1_2766_11427)"/>
</g>
<circle cx="31.5" cy="62.4448" r="3.5" fill="#0192C8" stroke="white"/>
<path d="M38.6257 26.7685C38.628 26.6529 38.6201 25.6087 37.5965 24.6033C36.5887 23.6137 35.5722 23.5852 35.459 23.5852H27.5392C27.3499 23.5852 26.3572 23.6351 25.3953 24.616C24.4042 25.6261 24.3757 26.6402 24.3757 26.7519V29.1269H23.584V31.5019H24.3757V36.2519C24.3757 36.833 24.6971 37.3388 25.1673 37.6143V38.6269C25.1673 38.8368 25.2507 39.0382 25.3992 39.1867C25.5477 39.3351 25.749 39.4185 25.959 39.4185H26.7507C26.9606 39.4185 27.162 39.3351 27.3104 39.1867C27.4589 39.0382 27.5423 38.8368 27.5423 38.6269V37.8352H35.459V38.6269C35.459 38.8368 35.5424 39.0382 35.6909 39.1867C35.8393 39.3351 36.0407 39.4185 36.2507 39.4185H37.0423C37.2523 39.4185 37.4536 39.3351 37.6021 39.1867C37.7506 39.0382 37.834 38.8368 37.834 38.6269V37.6159C38.0742 37.4782 38.2738 37.2796 38.4128 37.0401C38.5518 36.8006 38.6252 36.5288 38.6257 36.2519V31.5019H39.4173V29.1269H38.6257V26.7685ZM29.1257 25.1685H33.8757V26.7519H29.1257V25.1685ZM27.1465 36.2519C26.8314 36.2518 26.5293 36.1265 26.3066 35.9037C26.0839 35.6808 25.9589 35.3786 25.959 35.0636C25.9591 34.7485 26.0843 34.4464 26.3072 34.2237C26.53 34.001 26.8322 33.876 27.1473 33.8761C27.4623 33.8762 27.7644 34.0014 27.9871 34.2243C28.2098 34.4471 28.3349 34.7493 28.3348 35.0644C28.3347 35.3794 28.2094 35.6815 27.9866 35.9042C27.7637 36.1269 27.4615 36.252 27.1465 36.2519ZM30.709 32.2935H25.959V28.3352H30.709V32.2935ZM35.8548 36.2519C35.5398 36.2518 35.2377 36.1265 35.015 35.9037C34.7923 35.6808 34.6672 35.3786 34.6673 35.0636C34.6674 34.7485 34.7927 34.4464 35.0155 34.2237C35.2384 34.001 35.5406 33.876 35.8556 33.8761C36.1707 33.8762 36.4728 34.0014 36.6955 34.2243C36.9182 34.4471 37.0432 34.7493 37.0431 35.0644C37.043 35.3794 36.9178 35.6815 36.6949 35.9042C36.4721 36.1269 36.1699 36.252 35.8548 36.2519ZM37.0423 32.2935H32.2923V28.3352H37.0423V32.2935Z" fill="white"/>
<defs>
<filter id="filter0_d_2766_11427" x="0" y="0" width="63" height="67.4448" filterUnits="userSpaceOnUse" color-interpolation-filters="sRGB">
<feFlood flood-opacity="0" result="BackgroundImageFix"/>
<feColorMatrix in="SourceAlpha" type="matrix" values="0 0 0 0 0 0 0 0 0 0 0 0 0 0 0 0 0 0 127 0" result="hardAlpha"/>
<feMorphology radius="1" operator="dilate" in="SourceAlpha" result="effect1_dropShadow_2766_11427"/>
<feOffset/>
<feGaussianBlur stdDeviation="5.5"/>
<feComposite in2="hardAlpha" operator="out"/>
<feColorMatrix type="matrix" values="0 0 0 0 0.00392157 0 0 0 0 0.572549 0 0 0 0 0.784314 0 0 0 1 0"/>
<feBlend mode="normal" in2="BackgroundImageFix" result="effect1_dropShadow_2766_11427"/>
<feBlend mode="normal" in="SourceGraphic" in2="effect1_dropShadow_2766_11427" result="shape"/>
</filter>
</defs>
</svg>
