<svg width="63" height="68" viewBox="0 0 63 68" fill="none" xmlns="http://www.w3.org/2000/svg">
<g filter="url(#filter0_d_2766_11465)">
<mask id="path-1-inside-1_2766_11465" fill="white">
<path d="M31.5 12C42.2696 12 51 20.7304 51 31.5C51 40.3196 45.1446 47.771 37.1094 50.1804C36.9173 50.238 36.7445 50.3487 36.6156 50.5023L32.7658 55.0879C32.3662 55.5638 31.6338 55.5639 31.2341 55.088L27.667 50.8401C27.5233 50.6691 27.3258 50.5518 27.1081 50.5017C18.4538 48.5096 12 40.7592 12 31.5C12 20.7304 20.7304 12 31.5 12Z"/>
</mask>
<path d="M31.5 12C42.2696 12 51 20.7304 51 31.5C51 40.3196 45.1446 47.771 37.1094 50.1804C36.9173 50.238 36.7445 50.3487 36.6156 50.5023L32.7658 55.0879C32.3662 55.5638 31.6338 55.5639 31.2341 55.088L27.667 50.8401C27.5233 50.6691 27.3258 50.5518 27.1081 50.5017C18.4538 48.5096 12 40.7592 12 31.5C12 20.7304 20.7304 12 31.5 12Z" fill="#0192C8"/>
<path d="M27.667 50.8401L26.9012 51.4832L27.667 50.8401ZM27.1081 50.5017L27.3324 49.5272L27.1081 50.5017ZM32.7658 55.0879L31.9999 54.4449L32.7658 55.0879ZM31.2341 55.088L31.9999 54.4449L31.2341 55.088ZM37.1094 50.1804L37.3966 51.1383L37.1094 50.1804ZM36.6156 50.5023L37.3815 51.1452L36.6156 50.5023ZM31.5 12V13C41.7173 13 50 21.2827 50 31.5H51H52C52 20.1782 42.8218 11 31.5 11V12ZM51 31.5H50C50 39.8658 44.4461 46.9365 36.8221 49.2226L37.1094 50.1804L37.3966 51.1383C45.8431 48.6056 52 40.7734 52 31.5H51ZM36.6156 50.5023L35.8498 49.8593L31.9999 54.4449L32.7658 55.0879L33.5317 55.7309L37.3815 51.1452L36.6156 50.5023ZM31.2341 55.088L31.9999 54.4449L28.4328 50.197L27.667 50.8401L26.9012 51.4832L30.4683 55.731L31.2341 55.088ZM27.1081 50.5017L27.3324 49.5272C19.1219 47.6372 13 40.283 13 31.5H12H11C11 41.2355 17.7856 49.3819 26.8838 51.4762L27.1081 50.5017ZM12 31.5H13C13 21.2827 21.2827 13 31.5 13V12V11C20.1782 11 11 20.1782 11 31.5H12ZM27.667 50.8401L28.4328 50.197C28.1431 49.8521 27.752 49.6238 27.3324 49.5272L27.1081 50.5017L26.8838 51.4762C26.8911 51.4779 26.8963 51.4803 26.8993 51.4821C26.9021 51.4839 26.9023 51.4846 26.9012 51.4832L27.667 50.8401ZM32.7658 55.0879L31.9999 54.4449V54.4449L31.2341 55.088L30.4683 55.731C31.2676 56.6829 32.7324 56.6828 33.5317 55.7309L32.7658 55.0879ZM37.1094 50.1804L36.8221 49.2226C36.4517 49.3337 36.1096 49.5497 35.8498 49.8593L36.6156 50.5023L37.3815 51.1452C37.3795 51.1477 37.383 51.1424 37.3966 51.1383L37.1094 50.1804Z" fill="white" mask="url(#path-1-inside-1_2766_11465)"/>
</g>
<circle cx="31.5" cy="62.4448" r="3.5" fill="#0192C8" stroke="white"/>
<g clip-path="url(#clip0_2766_11465)">
<path d="M28.8649 25.5482C28.8649 24.8749 29.4112 24.3286 30.0845 24.3286C30.7578 24.3286 31.3041 24.8749 31.3041 25.5482C31.3041 26.2215 30.7578 26.7677 30.0845 26.7677C29.4112 26.7677 28.8649 26.2215 28.8649 25.5482ZM40.7031 27.9849C40.7031 29.3981 39.48 30.3777 38.6143 30.3777C37.8211 30.3777 36.8176 30.3777 36.8176 30.3777C36.5504 30.3777 36.4637 30.4205 36.3082 30.5582L29.0347 37.8115C28.4481 38.3637 27.738 38.5881 27.1514 38.5881C26.5647 38.5881 24.6671 38.5881 24.6671 38.5881C23.1388 38.5881 22.2969 37.2367 22.2969 36.1668C22.2969 35.0969 23.1388 33.8357 24.5424 33.8357H25.9377C26.3605 33.8357 26.3866 33.8262 26.6016 33.6113L28.8828 31.3301H28.878V28.1951C28.878 26.5754 31.2922 26.5576 31.2922 28.1951V28.9634L33.9166 26.3414C34.3666 25.8914 35.1207 25.6515 35.7073 25.6515H38.5431C39.4705 25.6551 40.7031 26.5872 40.7031 27.9849ZM39.4705 27.9671C39.4705 27.5527 39.0525 26.8592 38.4314 26.8592H35.8795C35.3582 26.8592 35.0554 26.8972 34.749 27.2036L27.2951 34.6575C27.0196 34.933 26.7013 35.0719 26.218 35.0719H24.5602C24.0199 35.0719 23.4986 35.4591 23.4986 36.1478C23.4986 36.8377 24.0461 37.3626 24.6671 37.3626H27.0849C27.5682 37.3626 27.9446 37.2451 28.2403 36.9482L35.5708 29.6177C35.9448 29.2437 36.2322 29.1522 36.8817 29.1522H38.416C39.1736 29.1534 39.4705 28.3816 39.4705 27.9671Z" fill="white"/>
</g>
<defs>
<filter id="filter0_d_2766_11465" x="0" y="0" width="63" height="67.4448" filterUnits="userSpaceOnUse" color-interpolation-filters="sRGB">
<feFlood flood-opacity="0" result="BackgroundImageFix"/>
<feColorMatrix in="SourceAlpha" type="matrix" values="0 0 0 0 0 0 0 0 0 0 0 0 0 0 0 0 0 0 127 0" result="hardAlpha"/>
<feMorphology radius="1" operator="dilate" in="SourceAlpha" result="effect1_dropShadow_2766_11465"/>
<feOffset/>
<feGaussianBlur stdDeviation="5.5"/>
<feComposite in2="hardAlpha" operator="out"/>
<feColorMatrix type="matrix" values="0 0 0 0 0.00392157 0 0 0 0 0.572549 0 0 0 0 0.784314 0 0 0 1 0"/>
<feBlend mode="normal" in2="BackgroundImageFix" result="effect1_dropShadow_2766_11465"/>
<feBlend mode="normal" in="SourceGraphic" in2="effect1_dropShadow_2766_11465" result="shape"/>
</filter>
<clipPath id="clip0_2766_11465">
<rect width="19" height="19" fill="white" transform="translate(22 22)"/>
</clipPath>
</defs>
</svg>
