<svg width="83" height="84" viewBox="0 0 83 84" fill="none" xmlns="http://www.w3.org/2000/svg">
<g filter="url(#filter0_d_3326_4362)">
<mask id="path-1-inside-1_3326_4362" fill="white">
<path d="M39.1973 3.56032C40.641 2.81127 42.359 2.81127 43.8027 3.56032L76.3027 20.4236C77.9597 21.2834 78.9999 22.9953 79 24.8621V57.492C79 60.2534 76.7614 62.492 74 62.492H54.7559L42.9521 74.9588C42.1633 75.7917 40.8367 75.7917 40.0479 74.9588L28.2441 62.492H9C6.23858 62.492 4 60.2534 4 57.492V24.8621C4.00012 22.9953 5.04025 21.2834 6.69727 20.4236L39.1973 3.56032ZM78 24.8621L77.9912 24.6013C77.9911 24.5994 77.9904 24.5974 77.9902 24.5955C77.9961 24.6838 78 24.7727 78 24.8621Z"/>
</mask>
<path d="M39.1973 3.56032C40.641 2.81127 42.359 2.81127 43.8027 3.56032L76.3027 20.4236C77.9597 21.2834 78.9999 22.9953 79 24.8621V57.492C79 60.2534 76.7614 62.492 74 62.492H54.7559L42.9521 74.9588C42.1633 75.7917 40.8367 75.7917 40.0479 74.9588L28.2441 62.492H9C6.23858 62.492 4 60.2534 4 57.492V24.8621C4.00012 22.9953 5.04025 21.2834 6.69727 20.4236L39.1973 3.56032ZM78 24.8621L77.9912 24.6013C77.9911 24.5994 77.9904 24.5974 77.9902 24.5955C77.9961 24.6838 78 24.7727 78 24.8621Z" fill="#17876E"/>
<path d="M39.1973 3.56032L38.7367 2.67267L38.7367 2.67269L39.1973 3.56032ZM43.8027 3.56032L44.2633 2.67269L44.2633 2.67267L43.8027 3.56032ZM76.3027 20.4236L76.7633 19.536V19.536L76.3027 20.4236ZM79 24.8621H80V24.862L79 24.8621ZM54.7559 62.492V61.492H54.3256L54.0297 61.8044L54.7559 62.492ZM42.9521 74.9588L43.6782 75.6464L43.6783 75.6463L42.9521 74.9588ZM40.0479 74.9588L39.3217 75.6463L39.3218 75.6464L40.0479 74.9588ZM28.2441 62.492L28.9703 61.8044L28.6744 61.492H28.2441V62.492ZM9 62.492L9 63.492H9V62.492ZM4 24.8621L3 24.862V24.8621H4ZM6.69727 20.4236L6.2367 19.536H6.2367L6.69727 20.4236ZM78 24.8621L77.0006 24.8958L79 24.8621H78ZM77.9912 24.6013L78.9906 24.5676L78.9901 24.5519L78.9891 24.5363L77.9912 24.6013ZM77.9902 24.5955L78.988 24.5289L76.9924 24.6619L77.9902 24.5955ZM39.1973 3.56032L39.6578 4.44796C40.8128 3.84873 42.1872 3.84873 43.3422 4.44796L43.8027 3.56032L44.2633 2.67267C42.5308 1.77382 40.4692 1.77382 38.7367 2.67267L39.1973 3.56032ZM43.8027 3.56032L43.3422 4.44794L75.8422 21.3112L76.3027 20.4236L76.7633 19.536L44.2633 2.67269L43.8027 3.56032ZM76.3027 20.4236L75.8422 21.3112C77.1677 21.999 77.9999 23.3686 78 24.8621L79 24.8621L80 24.862C79.9999 22.622 78.7518 20.5678 76.7633 19.536L76.3027 20.4236ZM79 24.8621H78V57.492H79H80V24.8621H79ZM79 57.492H78C78 59.7011 76.2091 61.492 74 61.492V62.492V63.492C77.3137 63.492 80 60.8057 80 57.492H79ZM74 62.492V61.492H54.7559V62.492V63.492H74V62.492ZM54.7559 62.492L54.0297 61.8044L42.226 74.2712L42.9521 74.9588L43.6783 75.6463L55.482 63.1795L54.7559 62.492ZM42.9521 74.9588L42.2261 74.2711C41.8317 74.6876 41.1683 74.6876 40.7739 74.2711L40.0479 74.9588L39.3218 75.6464C40.5051 76.8958 42.4949 76.8958 43.6782 75.6464L42.9521 74.9588ZM40.0479 74.9588L40.774 74.2712L28.9703 61.8044L28.2441 62.492L27.518 63.1795L39.3217 75.6463L40.0479 74.9588ZM28.2441 62.492V61.492H9V62.492V63.492H28.2441V62.492ZM9 62.492L9 61.492C6.79086 61.492 5 59.7011 5 57.492H4H3C3 60.8057 5.68629 63.492 9 63.492L9 62.492ZM4 57.492H5V24.8621H4H3V57.492H4ZM4 24.8621L5 24.8621C5.0001 23.3686 5.83232 21.999 7.15783 21.3112L6.69727 20.4236L6.2367 19.536C4.24818 20.5678 3.00015 22.622 3 24.862L4 24.8621ZM6.69727 20.4236L7.15783 21.3112L39.6578 4.44794L39.1973 3.56032L38.7367 2.67269L6.2367 19.536L6.69727 20.4236ZM78 24.8621L78.9994 24.8284L78.9906 24.5676L77.9912 24.6013L76.9918 24.635L77.0006 24.8958L78 24.8621ZM77.9912 24.6013L78.9891 24.5363C78.9875 24.5112 78.9851 24.489 78.9826 24.4704C78.9802 24.4518 78.9776 24.4359 78.9754 24.4237C78.9732 24.4115 78.9712 24.4017 78.97 24.3957C78.9693 24.3926 78.9688 24.3901 78.9685 24.3885C78.9683 24.3877 78.9681 24.3871 78.968 24.3866C78.968 24.3862 78.9679 24.3859 78.9679 24.3858C78.9676 24.3848 78.9686 24.389 78.9696 24.3939C78.9707 24.3993 78.9726 24.4085 78.9747 24.42C78.9767 24.4317 78.9793 24.4469 78.9817 24.4649C78.984 24.4829 78.9864 24.5045 78.988 24.5289L77.9902 24.5955L76.9925 24.662C76.9941 24.687 76.9965 24.709 76.999 24.7275C77.0014 24.746 77.004 24.7617 77.0062 24.7738C77.0084 24.7859 77.0103 24.7956 77.0116 24.8015C77.0122 24.8045 77.0127 24.8069 77.013 24.8085C77.0132 24.8092 77.0133 24.8099 77.0134 24.8103C77.0135 24.8105 77.0135 24.8106 77.0135 24.8108C77.0135 24.8109 77.0136 24.811 77.0136 24.811C77.0138 24.8119 77.0128 24.8076 77.0118 24.8026C77.0106 24.797 77.0088 24.7877 77.0067 24.776C77.0046 24.7643 77.002 24.7489 76.9996 24.7308C76.9973 24.7127 76.9949 24.691 76.9933 24.6664L77.9912 24.6013ZM77.9902 24.5955L76.9924 24.6619C76.9973 24.7355 77 24.8012 77 24.8621H78H79C79 24.7443 78.9949 24.6321 78.988 24.529L77.9902 24.5955Z" fill="white" mask="url(#path-1-inside-1_3326_4362)"/>
<path fill-rule="evenodd" clip-rule="evenodd" d="M40.9465 31.6005C40.9465 31.6005 35.5 27.0135 35.5 22.5C35.5 20.9087 36.1321 19.3826 37.2574 18.2574C38.3826 17.1321 39.9087 16.5 41.5 16.5C43.0913 16.5 44.6174 17.1321 45.7426 18.2574C46.8679 19.3826 47.5 20.9087 47.5 22.5C47.5 27.0135 42.0535 31.6005 42.0535 31.6005C41.7505 31.8795 41.2518 31.8765 40.9465 31.6005ZM41.5 25.125C41.8447 25.125 42.1861 25.0571 42.5045 24.9252C42.823 24.7933 43.1124 24.5999 43.3562 24.3562C43.5999 24.1124 43.7933 23.823 43.9252 23.5045C44.0571 23.1861 44.125 22.8447 44.125 22.5C44.125 22.1553 44.0571 21.8139 43.9252 21.4955C43.7933 21.177 43.5999 20.8876 43.3562 20.6438C43.1124 20.4001 42.823 20.2067 42.5045 20.0748C42.1861 19.9429 41.8447 19.875 41.5 19.875C40.8038 19.875 40.1361 20.1516 39.6438 20.6438C39.1516 21.1361 38.875 21.8038 38.875 22.5C38.875 23.1962 39.1516 23.8639 39.6438 24.3562C40.1361 24.8484 40.8038 25.125 41.5 25.125Z" fill="white"/>
<path d="M21.1719 41.7422H15.0078V40.3203H21.1719V41.7422ZM18.6406 47.0781H16.9141V43.5312H18.6406V47.0781ZM22.1953 41.3516C22.1849 42.0651 22.1589 42.7214 22.1172 43.3203C22.0807 43.9141 21.9948 44.5755 21.8594 45.3047L20.1406 45.1562C20.2865 44.401 20.3802 43.737 20.4219 43.1641C20.4688 42.5911 20.4948 41.974 20.5 41.3125V41.1484V40.3203H22.1953V41.1484V41.3516ZM25.5781 49.8438H23.7969V39.2656H25.5781V49.8438ZM27.4062 45.1328H24.8516V43.6719H27.4062V45.1328ZM26.0234 53.125H16.2656V51.7031H26.0234V53.125ZM18.0156 52.1562H16.2656V48.9062H18.0156V52.1562ZM14.1641 46.4297C15.9245 46.4245 17.513 46.3932 18.9297 46.3359C20.3516 46.2786 21.7005 46.1589 22.9766 45.9766L23.0703 47.2344C21.7682 47.4635 20.3854 47.6198 18.9219 47.7031C17.4635 47.7812 15.9297 47.8203 14.3203 47.8203L14.1641 46.4297ZM39.8984 47.2656H38.1562V39.2812H39.8984V47.2656ZM39.8984 53.2109H30.5391V47.9688H39.8984V53.2109ZM32.25 51.8125H38.1953V49.3516H32.25V51.8125ZM33.0703 41.1875C33.0703 42.0625 32.9115 42.888 32.5938 43.6641C32.276 44.4401 31.8125 45.1146 31.2031 45.6875C30.5938 46.2604 29.8594 46.6901 29 46.9766L28.1406 45.6016C28.8854 45.362 29.5208 45.0182 30.0469 44.5703C30.5729 44.1172 30.9661 43.599 31.2266 43.0156C31.487 42.4271 31.6172 41.8177 31.6172 41.1875V39.8125H33.0703V41.1875ZM33.4141 41.1875C33.4141 41.7917 33.5443 42.3698 33.8047 42.9219C34.0651 43.4688 34.4505 43.9583 34.9609 44.3906C35.4766 44.8177 36.0938 45.1484 36.8125 45.3828L35.9531 46.7188C35.1146 46.4479 34.3958 46.0417 33.7969 45.5C33.1979 44.9583 32.7422 44.3203 32.4297 43.5859C32.1172 42.8464 31.9609 42.0469 31.9609 41.1875V39.8125H33.4141V41.1875ZM54.1562 53.375H52.4844V39.2656H54.1562V53.375ZM53.0547 46.1484H50.5469V44.7344H53.0547V46.1484ZM50.9844 52.7109H49.3438V39.5078H50.9844V52.7109ZM47.9531 49.7578H42.4062V40.7969H47.9531V49.7578ZM44.0312 48.3828H46.3203V42.1641H44.0312V48.3828ZM63.0781 48.0469H61.3438V45.9922H63.0781V48.0469ZM68.6641 46.375H55.8047V45H68.6641V46.375ZM67.0156 44.1016H57.4141V39.7031H67.0156V44.1016ZM59.125 42.7422H65.2891V41.0625H59.125V42.7422ZM67.0703 50.9062H59.0391V52.3438H57.3203V49.6562H65.3516V48.7578H57.3125V47.4375H67.0703V50.9062ZM67.4531 53.2656H57.3203V51.9375H67.4531V53.2656Z" fill="white"/>
</g>
<defs>
<filter id="filter0_d_3326_4362" x="0" y="0" width="83" height="83.5835" filterUnits="userSpaceOnUse" color-interpolation-filters="sRGB">
<feFlood flood-opacity="0" result="BackgroundImageFix"/>
<feColorMatrix in="SourceAlpha" type="matrix" values="0 0 0 0 0 0 0 0 0 0 0 0 0 0 0 0 0 0 127 0" result="hardAlpha"/>
<feOffset dy="4"/>
<feGaussianBlur stdDeviation="2"/>
<feComposite in2="hardAlpha" operator="out"/>
<feColorMatrix type="matrix" values="0 0 0 0 0 0 0 0 0 0 0 0 0 0 0 0 0 0 0.15 0"/>
<feBlend mode="normal" in2="BackgroundImageFix" result="effect1_dropShadow_3326_4362"/>
<feBlend mode="normal" in="SourceGraphic" in2="effect1_dropShadow_3326_4362" result="shape"/>
</filter>
</defs>
</svg>
