<svg width="270" height="242" viewBox="0 0 270 242" fill="none" xmlns="http://www.w3.org/2000/svg">
<g filter="url(#filter0_d_2798_13520)">
<circle cx="134" cy="120.8" r="104" fill="#2EA98C" fill-opacity="0.3" shape-rendering="crispEdges"/>
<circle cx="134" cy="120.8" r="103" stroke="#2EA98C" stroke-width="2" shape-rendering="crispEdges"/>
</g>
<g filter="url(#filter1_d_2798_13520)">
<mask id="path-3-inside-1_2798_13520" fill="white">
<path fill-rule="evenodd" clip-rule="evenodd" d="M132.197 83.3602C133.641 82.6111 135.359 82.6111 136.803 83.3602L169.303 100.223C170.96 101.083 172 102.795 172 104.662V137.292C172 140.053 169.761 142.292 167 142.292H147.756L135.952 154.758C135.163 155.591 133.837 155.591 133.048 154.758L121.244 142.292H102C99.2386 142.292 97 140.053 97 137.292V104.662C97 102.795 98.0402 101.083 99.6973 100.223L132.197 83.3602Z"/>
</mask>
<path fill-rule="evenodd" clip-rule="evenodd" d="M132.197 83.3602C133.641 82.6111 135.359 82.6111 136.803 83.3602L169.303 100.223C170.96 101.083 172 102.795 172 104.662V137.292C172 140.053 169.761 142.292 167 142.292H147.756L135.952 154.758C135.163 155.591 133.837 155.591 133.048 154.758L121.244 142.292H102C99.2386 142.292 97 140.053 97 137.292V104.662C97 102.795 98.0402 101.083 99.6973 100.223L132.197 83.3602Z" fill="#17876E"/>
<path d="M132.197 83.3602L131.737 82.4726L131.737 82.4726L132.197 83.3602ZM136.803 83.3602L137.263 82.4726L137.263 82.4726L136.803 83.3602ZM169.303 100.223L169.763 99.3358V99.3358L169.303 100.223ZM147.756 142.292V141.292H147.326L147.03 141.604L147.756 142.292ZM135.952 154.758L135.226 154.07L135.226 154.07L135.952 154.758ZM133.048 154.758L133.774 154.07L133.774 154.07L133.048 154.758ZM121.244 142.292L121.97 141.604L121.674 141.292H121.244V142.292ZM102 142.292L102 143.292H102V142.292ZM99.6973 100.223L99.2367 99.3358H99.2367L99.6973 100.223ZM132.197 83.3602L132.658 84.2478C133.813 83.6485 135.187 83.6485 136.342 84.2478L136.803 83.3602L137.263 82.4726C135.531 81.5736 133.469 81.5736 131.737 82.4726L132.197 83.3602ZM136.803 83.3602L136.342 84.2478L168.842 101.111L169.303 100.223L169.763 99.3358L137.263 82.4726L136.803 83.3602ZM169.303 100.223L168.842 101.111C170.168 101.799 171 103.168 171 104.662H172H173C173 102.422 171.752 100.368 169.763 99.3358L169.303 100.223ZM172 104.662H171V137.292H172H173V104.662H172ZM172 137.292H171C171 139.501 169.209 141.292 167 141.292V142.292V143.292C170.314 143.292 173 140.606 173 137.292H172ZM167 142.292V141.292H147.756V142.292V143.292H167V142.292ZM147.756 142.292L147.03 141.604L135.226 154.07L135.952 154.758L136.678 155.445L148.482 142.979L147.756 142.292ZM135.952 154.758L135.226 154.07C134.832 154.487 134.168 154.487 133.774 154.07L133.048 154.758L132.322 155.445C133.505 156.695 135.495 156.695 136.678 155.445L135.952 154.758ZM133.048 154.758L133.774 154.07L121.97 141.604L121.244 142.292L120.518 142.979L132.322 155.445L133.048 154.758ZM121.244 142.292V141.292H102V142.292V143.292H121.244V142.292ZM102 142.292L102 141.292C99.7909 141.292 98 139.501 98 137.292H97H96C96 140.606 98.6863 143.292 102 143.292L102 142.292ZM97 137.292H98V104.662H97H96V137.292H97ZM97 104.662H98C98 103.168 98.8322 101.799 100.158 101.111L99.6973 100.223L99.2367 99.3358C97.2481 100.368 96 102.422 96 104.662H97ZM99.6973 100.223L100.158 101.111L132.658 84.2478L132.197 83.3602L131.737 82.4726L99.2367 99.3358L99.6973 100.223Z" fill="white" mask="url(#path-3-inside-1_2798_13520)"/>
<path fill-rule="evenodd" clip-rule="evenodd" d="M133.946 111.4C133.946 111.4 128.5 106.813 128.5 102.3C128.5 100.709 129.132 99.1824 130.257 98.0572C131.383 96.9319 132.909 96.2998 134.5 96.2998C136.091 96.2998 137.617 96.9319 138.743 98.0572C139.868 99.1824 140.5 100.709 140.5 102.3C140.5 106.813 135.054 111.4 135.054 111.4C134.75 111.679 134.252 111.676 133.946 111.4ZM134.5 104.925C134.845 104.925 135.186 104.857 135.505 104.725C135.823 104.593 136.112 104.4 136.356 104.156C136.6 103.912 136.793 103.623 136.925 103.304C137.057 102.986 137.125 102.645 137.125 102.3C137.125 101.955 137.057 101.614 136.925 101.295C136.793 100.977 136.6 100.687 136.356 100.444C136.112 100.2 135.823 100.007 135.505 99.8746C135.186 99.7427 134.845 99.6748 134.5 99.6748C133.804 99.6748 133.136 99.9514 132.644 100.444C132.152 100.936 131.875 101.604 131.875 102.3C131.875 102.996 132.152 103.664 132.644 104.156C133.136 104.648 133.804 104.925 134.5 104.925Z" fill="white"/>
<path d="M114.172 121.542H108.008V120.12H114.172V121.542ZM111.641 126.878H109.914V123.331H111.641V126.878ZM115.195 121.151C115.185 121.865 115.159 122.521 115.117 123.12C115.081 123.714 114.995 124.375 114.859 125.104L113.141 124.956C113.286 124.201 113.38 123.537 113.422 122.964C113.469 122.391 113.495 121.774 113.5 121.112V120.948V120.12H115.195V120.948V121.151ZM118.578 129.644H116.797V119.065H118.578V129.644ZM120.406 124.933H117.852V123.472H120.406V124.933ZM119.023 132.925H109.266V131.503H119.023V132.925ZM111.016 131.956H109.266V128.706H111.016V131.956ZM107.164 126.229C108.924 126.224 110.513 126.193 111.93 126.136C113.352 126.078 114.701 125.959 115.977 125.776L116.07 127.034C114.768 127.263 113.385 127.42 111.922 127.503C110.464 127.581 108.93 127.62 107.32 127.62L107.164 126.229ZM132.898 127.065H131.156V119.081H132.898V127.065ZM132.898 133.011H123.539V127.769H132.898V133.011ZM125.25 131.612H131.195V129.151H125.25V131.612ZM126.07 120.987C126.07 121.862 125.911 122.688 125.594 123.464C125.276 124.24 124.812 124.914 124.203 125.487C123.594 126.06 122.859 126.49 122 126.776L121.141 125.401C121.885 125.162 122.521 124.818 123.047 124.37C123.573 123.917 123.966 123.399 124.227 122.815C124.487 122.227 124.617 121.618 124.617 120.987V119.612H126.07V120.987ZM126.414 120.987C126.414 121.591 126.544 122.17 126.805 122.722C127.065 123.269 127.451 123.758 127.961 124.19C128.477 124.618 129.094 124.948 129.812 125.183L128.953 126.519C128.115 126.248 127.396 125.841 126.797 125.3C126.198 124.758 125.742 124.12 125.43 123.386C125.117 122.646 124.961 121.847 124.961 120.987V119.612H126.414V120.987ZM147.156 133.175H145.484V119.065H147.156V133.175ZM146.055 125.948H143.547V124.534H146.055V125.948ZM143.984 132.511H142.344V119.308H143.984V132.511ZM140.953 129.558H135.406V120.597H140.953V129.558ZM137.031 128.183H139.32V121.964H137.031V128.183ZM156.078 127.847H154.344V125.792H156.078V127.847ZM161.664 126.175H148.805V124.8H161.664V126.175ZM160.016 123.901H150.414V119.503H160.016V123.901ZM152.125 122.542H158.289V120.862H152.125V122.542ZM160.07 130.706H152.039V132.144H150.32V129.456H158.352V128.558H150.312V127.237H160.07V130.706ZM160.453 133.065H150.32V131.737H160.453V133.065Z" fill="white"/>
</g>
<g filter="url(#filter2_d_2798_13520)">
<rect x="4" y="165.8" width="262" height="36" rx="18" fill="white" shape-rendering="crispEdges"/>
<path d="M34.6069 181.617H31.4062V180.284H34.6069V181.617ZM29.0698 179.69C29.0698 180.579 28.9282 181.407 28.645 182.173C28.3618 182.935 27.9468 183.602 27.3999 184.173C26.853 184.739 26.1865 185.171 25.4004 185.469L24.5288 184.173C25.2222 183.934 25.8105 183.587 26.2939 183.133C26.7773 182.674 27.1411 182.149 27.3853 181.558C27.6343 180.967 27.7588 180.345 27.7588 179.69V178.182H29.0698V179.69ZM29.3921 179.712C29.3921 180.308 29.5093 180.879 29.7437 181.426C29.9829 181.973 30.3369 182.461 30.8057 182.891C31.2744 183.321 31.8384 183.653 32.4976 183.887L31.604 185.147C30.8618 184.864 30.2271 184.454 29.6997 183.917C29.1772 183.375 28.7793 182.745 28.5059 182.027C28.2324 181.309 28.0957 180.538 28.0957 179.712V178.182H29.3921V179.712ZM35.6689 187.198H34.043V177.376H35.6689V187.198ZM35.9546 190.354H26.9385V189.021H35.9546V190.354ZM28.5938 189.71H26.9385V186.136H28.5938V189.71ZM38.9282 183.521C40.0171 183.516 40.9033 183.492 41.5869 183.448C42.2705 183.404 42.9565 183.321 43.645 183.199L43.8062 184.517C43.0688 184.649 42.3462 184.739 41.6382 184.788C40.9351 184.832 40.0317 184.854 38.9282 184.854H38.0493V183.521H38.9282ZM43.2495 179.595H39.6094V184.246H38.0493V178.27H43.2495V179.595ZM43.1104 182.122H39.1333V180.877H43.1104V182.122ZM48.8672 185.433H47.3145V177.376H48.8672V185.433ZM47.7686 181.99H45.498V180.687H47.7686V181.99ZM45.9302 185.345H44.4214V177.618H45.9302V185.345ZM48.8672 190.589H47.2559V187.337H39.7998V186.026H48.8672V190.589ZM60.9521 187.271H59.3262V177.376H60.9521V187.271ZM62.8052 182.876H60.4688V181.536H62.8052V182.876ZM58.374 180.137H50.5151V178.841H58.374V180.137ZM54.4482 180.687C55.0781 180.687 55.6372 180.792 56.1255 181.001C56.6187 181.211 57.002 181.509 57.2754 181.895C57.5488 182.276 57.6855 182.718 57.6855 183.221C57.6855 183.714 57.5488 184.148 57.2754 184.524C57.002 184.9 56.6187 185.193 56.1255 185.403C55.6372 185.613 55.0781 185.718 54.4482 185.718C53.8184 185.718 53.2544 185.613 52.7563 185.403C52.2632 185.193 51.8799 184.9 51.6064 184.524C51.3379 184.148 51.2036 183.714 51.2036 183.221C51.2036 182.718 51.3379 182.276 51.6064 181.895C51.8799 181.509 52.2632 181.211 52.7563 181.001C53.2544 180.792 53.8184 180.687 54.4482 180.687ZM54.4482 181.946C54.1211 181.946 53.8281 181.995 53.5693 182.093C53.3154 182.19 53.1201 182.339 52.9834 182.54C52.8467 182.735 52.7783 182.962 52.7783 183.221C52.7783 183.479 52.8467 183.704 52.9834 183.895C53.1201 184.08 53.3154 184.222 53.5693 184.319C53.8281 184.417 54.1211 184.466 54.4482 184.466C54.7852 184.466 55.0806 184.417 55.3345 184.319C55.5884 184.222 55.7861 184.08 55.9277 183.895C56.0693 183.704 56.1401 183.479 56.1401 183.221C56.1401 182.962 56.0693 182.735 55.9277 182.54C55.7861 182.339 55.5884 182.19 55.3345 182.093C55.0806 181.995 54.7852 181.946 54.4482 181.946ZM55.2686 179.485H53.6353V177.369H55.2686V179.485ZM61.4722 190.354H52.4707V189.021H61.4722V190.354ZM54.0894 189.578H52.4707V186.495H54.0894V189.578ZM71.748 179.419C71.748 180.206 71.5991 180.945 71.3013 181.639C71.0034 182.327 70.5688 182.925 69.9976 183.433C69.4312 183.941 68.7524 184.324 67.9614 184.583L67.1265 183.301C67.8247 183.096 68.4204 182.796 68.9136 182.4C69.4067 182 69.7803 181.543 70.0342 181.031C70.293 180.518 70.4224 179.981 70.4224 179.419V178.504H71.748V179.419ZM72.0703 179.419C72.0703 179.947 72.1973 180.455 72.4512 180.943C72.7051 181.426 73.0762 181.856 73.5645 182.232C74.0527 182.603 74.6387 182.886 75.3223 183.082L74.502 184.363C73.7109 184.124 73.0322 183.763 72.4658 183.279C71.9043 182.791 71.4746 182.215 71.1768 181.551C70.8838 180.887 70.7373 180.176 70.7373 179.419V178.504H72.0703V179.419ZM74.8608 179.449H67.5732V178.152H74.8608V179.449ZM78.0688 184.539H76.4355V177.361H78.0688V184.539ZM70.9204 186.48H76.4429V185.118H78.0688V190.435H69.3164V185.118H70.9204V186.48ZM76.4429 189.124V187.754H70.9204V189.124H76.4429ZM84.3091 178.27C85.0024 178.27 85.625 178.406 86.1768 178.68C86.7285 178.953 87.1606 179.334 87.4731 179.822C87.7856 180.306 87.9419 180.857 87.9419 181.478C87.9419 182.098 87.7856 182.652 87.4731 183.14C87.1606 183.624 86.7285 184.002 86.1768 184.275C85.6299 184.549 85.0073 184.686 84.3091 184.686C83.6255 184.686 83.0054 184.549 82.4487 184.275C81.8921 184.002 81.4551 183.624 81.1377 183.14C80.8252 182.652 80.6689 182.098 80.6689 181.478C80.6689 180.857 80.8252 180.306 81.1377 179.822C81.4551 179.334 81.8921 178.953 82.4487 178.68C83.0054 178.406 83.6255 178.27 84.3091 178.27ZM84.3091 179.683C83.9233 179.683 83.5767 179.756 83.269 179.903C82.9614 180.049 82.7197 180.259 82.5439 180.533C82.3682 180.801 82.2803 181.116 82.2803 181.478C82.2803 181.839 82.3682 182.154 82.5439 182.422C82.7197 182.691 82.9614 182.901 83.269 183.052C83.5767 183.199 83.9233 183.272 84.3091 183.272C84.7046 183.272 85.0562 183.199 85.3638 183.052C85.6714 182.901 85.9106 182.691 86.0815 182.422C86.2573 182.154 86.3452 181.839 86.3452 181.478C86.3452 181.116 86.2573 180.801 86.0815 180.533C85.9106 180.259 85.6714 180.049 85.3638 179.903C85.0562 179.756 84.7046 179.683 84.3091 179.683ZM91.0327 190.625H89.4214V177.361H91.0327V190.625ZM80.0684 186.517C81.1523 186.512 82.1338 186.5 83.0127 186.48C83.8916 186.46 84.8267 186.421 85.8179 186.363C86.8091 186.299 87.7441 186.204 88.623 186.077L88.7476 187.264C87.8345 187.43 86.8872 187.557 85.9058 187.645C84.9243 187.732 84.0015 187.789 83.1372 187.813C82.2778 187.837 81.3232 187.85 80.2734 187.85L80.0684 186.517ZM103.066 179.236C103.066 180.008 102.842 180.716 102.393 181.36C101.948 182.005 101.328 182.544 100.532 182.979C99.7363 183.409 98.8232 183.702 97.793 183.858L97.1777 182.583C98.0566 182.466 98.8354 182.239 99.5142 181.902C100.193 181.565 100.718 181.165 101.089 180.701C101.46 180.232 101.646 179.744 101.646 179.236V178.782H103.066V179.236ZM103.521 179.236C103.521 179.744 103.704 180.232 104.07 180.701C104.441 181.165 104.966 181.565 105.645 181.902C106.328 182.239 107.109 182.466 107.988 182.583L107.402 183.858C106.362 183.702 105.442 183.409 104.641 182.979C103.84 182.549 103.215 182.012 102.766 181.368C102.322 180.718 102.1 180.008 102.1 179.236V178.782H103.521V179.236ZM103.352 190.596H101.748V185.66H103.352V190.596ZM108.611 186.055H96.5552V184.744H108.611V186.055ZM107.505 179.39H97.6465V178.108H107.505V179.39ZM119.553 180.987H115.994V179.654H119.553V180.987ZM119.604 183.807H115.994V182.496H119.604V183.807ZM120.601 187.146H118.975V177.376H120.601V187.146ZM120.886 190.354H111.87V189.021H120.886V190.354ZM113.525 189.747H111.87V186.18H113.525V189.747ZM111.746 180.379H114.705V178.248H116.309V185H110.112V178.248H111.746V180.379ZM114.705 183.704V181.631H111.746V183.704H114.705ZM135.952 181.99H133.257V180.665H135.952V181.99ZM137.139 185.235H135.513V177.361H137.139V185.235ZM132.664 185.564C133.601 185.564 134.407 185.665 135.081 185.865C135.759 186.06 136.279 186.348 136.641 186.729C137.002 187.105 137.183 187.557 137.183 188.084C137.183 188.611 137.002 189.063 136.641 189.439C136.279 189.815 135.759 190.101 135.081 190.296C134.407 190.496 133.601 190.601 132.664 190.611C131.736 190.601 130.933 190.496 130.254 190.296C129.58 190.101 129.06 189.815 128.694 189.439C128.333 189.063 128.152 188.611 128.152 188.084C128.152 187.557 128.333 187.105 128.694 186.729C129.06 186.348 129.58 186.06 130.254 185.865C130.933 185.665 131.736 185.564 132.664 185.564ZM132.664 186.81C132.053 186.81 131.531 186.858 131.096 186.956C130.662 187.049 130.332 187.19 130.107 187.381C129.883 187.571 129.771 187.806 129.771 188.084C129.771 188.348 129.883 188.575 130.107 188.765C130.332 188.956 130.662 189.102 131.096 189.205C131.531 189.302 132.053 189.351 132.664 189.351C133.284 189.351 133.809 189.302 134.238 189.205C134.673 189.102 135 188.956 135.22 188.765C135.444 188.575 135.557 188.348 135.557 188.084C135.557 187.806 135.444 187.571 135.22 187.381C135 187.19 134.673 187.049 134.238 186.956C133.809 186.858 133.284 186.81 132.664 186.81ZM130.591 179.639C130.591 180.474 130.444 181.263 130.151 182.005C129.863 182.742 129.438 183.389 128.877 183.946C128.32 184.502 127.649 184.92 126.863 185.198L126.013 183.902C126.707 183.663 127.297 183.323 127.786 182.884C128.274 182.439 128.64 181.937 128.884 181.375C129.133 180.813 129.258 180.235 129.258 179.639V178.694H130.591V179.639ZM130.913 179.625C130.913 180.176 131.03 180.708 131.265 181.221C131.504 181.734 131.858 182.195 132.327 182.605C132.8 183.011 133.367 183.328 134.026 183.558L133.213 184.847C132.441 184.583 131.785 184.19 131.243 183.667C130.701 183.14 130.288 182.53 130.005 181.836C129.727 181.138 129.587 180.401 129.587 179.625V178.694H130.913V179.625ZM133.66 179.544H126.497V178.218H133.66V179.544ZM151.121 189.007H139.021V187.674H151.121V189.007ZM145.84 188.025H144.236V184.7H145.84V188.025ZM141.98 180.408H148.11V178.24H149.729V185.088H140.347V178.24H141.98V180.408ZM148.11 183.785V181.705H141.98V183.785H148.11ZM164.07 184.59H151.97V183.367H164.07V184.59ZM162.605 188.399H155.01V189.703H153.376V187.352H160.986V186.539H153.369V185.381H162.605V188.399ZM163 190.457H153.376V189.329H163V190.457ZM162.576 180.643H155.12V181.866H153.501V179.588H160.935V178.782H153.464V177.654H162.576V180.643ZM162.803 182.62H153.501V181.507H162.803V182.62ZM173.357 185.301H171.731V183.477H173.357V185.301ZM179.011 186.333H177.378V177.376H179.011V186.333ZM180.798 182.576H178.411V181.236H180.798V182.576ZM168.398 184.744C169.414 184.744 170.361 184.737 171.24 184.722C172.124 184.703 173.044 184.664 174.001 184.605C174.958 184.546 175.857 184.466 176.697 184.363L176.821 185.491C175.581 185.706 174.304 185.848 172.991 185.916C171.677 185.979 170.205 186.014 168.574 186.019L168.398 184.744ZM179.011 190.589H177.378V188.172H170.061V186.897H179.011V190.589ZM176.338 179.625H168.735V178.431H176.338V179.625ZM172.529 179.991C173.174 179.991 173.735 180.071 174.214 180.232C174.697 180.389 175.071 180.616 175.334 180.914C175.598 181.207 175.73 181.553 175.73 181.954C175.73 182.354 175.598 182.703 175.334 183.001C175.071 183.299 174.697 183.531 174.214 183.697C173.735 183.858 173.174 183.938 172.529 183.938C171.895 183.938 171.335 183.858 170.852 183.697C170.374 183.531 170 183.299 169.731 183.001C169.468 182.703 169.336 182.354 169.336 181.954C169.336 181.553 169.468 181.207 169.731 180.914C170 180.616 170.374 180.389 170.852 180.232C171.335 180.071 171.895 179.991 172.529 179.991ZM172.529 181.097C172.188 181.087 171.895 181.116 171.65 181.185C171.411 181.248 171.226 181.346 171.094 181.478C170.962 181.604 170.896 181.763 170.896 181.954C170.896 182.139 170.962 182.298 171.094 182.43C171.226 182.562 171.414 182.664 171.658 182.737C171.902 182.806 172.192 182.84 172.529 182.84C172.876 182.84 173.171 182.806 173.416 182.737C173.66 182.664 173.845 182.562 173.972 182.43C174.104 182.298 174.17 182.139 174.17 181.954C174.17 181.763 174.104 181.604 173.972 181.478C173.845 181.346 173.66 181.248 173.416 181.185C173.176 181.116 172.881 181.087 172.529 181.097ZM173.357 179.002H171.731V177.259H173.357V179.002ZM192.502 186.941H190.869V177.376H192.502V186.941ZM192.876 190.354H183.743V189.021H192.876V190.354ZM185.383 189.542H183.743V185.975H185.383V189.542ZM185.288 178.24C185.957 178.24 186.562 178.382 187.104 178.665C187.651 178.948 188.079 179.341 188.386 179.844C188.699 180.347 188.855 180.914 188.855 181.543C188.855 182.188 188.699 182.764 188.386 183.272C188.079 183.775 187.651 184.168 187.104 184.451C186.562 184.734 185.957 184.876 185.288 184.876C184.619 184.876 184.014 184.734 183.472 184.451C182.935 184.168 182.507 183.775 182.19 183.272C181.877 182.764 181.721 182.188 181.721 181.543C181.721 180.914 181.877 180.347 182.19 179.844C182.507 179.341 182.935 178.948 183.472 178.665C184.014 178.382 184.619 178.24 185.288 178.24ZM185.288 179.668C184.912 179.664 184.573 179.739 184.27 179.896C183.972 180.047 183.738 180.267 183.567 180.555C183.396 180.843 183.311 181.172 183.311 181.543C183.311 181.924 183.396 182.261 183.567 182.554C183.738 182.842 183.972 183.064 184.27 183.221C184.573 183.372 184.912 183.448 185.288 183.448C185.659 183.448 185.994 183.372 186.292 183.221C186.589 183.064 186.821 182.842 186.987 182.554C187.158 182.261 187.244 181.924 187.244 181.543C187.244 181.172 187.158 180.843 186.987 180.555C186.821 180.267 186.589 180.047 186.292 179.896C185.994 179.739 185.659 179.664 185.288 179.668ZM200.896 180.774H194.421V179.471H200.896V180.774ZM197.673 181.47C198.235 181.47 198.733 181.602 199.167 181.866C199.607 182.125 199.951 182.488 200.2 182.957C200.449 183.426 200.574 183.96 200.574 184.561C200.574 185.162 200.449 185.699 200.2 186.172C199.951 186.641 199.607 187.01 199.167 187.278C198.733 187.547 198.235 187.681 197.673 187.681C197.122 187.681 196.626 187.547 196.187 187.278C195.752 187.01 195.41 186.639 195.161 186.165C194.912 185.691 194.788 185.157 194.788 184.561C194.788 183.97 194.912 183.438 195.161 182.964C195.41 182.491 195.752 182.125 196.187 181.866C196.626 181.602 197.122 181.47 197.673 181.47ZM197.673 182.825C197.395 182.82 197.146 182.891 196.926 183.038C196.707 183.184 196.536 183.389 196.414 183.653C196.292 183.912 196.23 184.214 196.23 184.561C196.23 184.908 196.292 185.213 196.414 185.477C196.541 185.74 196.711 185.94 196.926 186.077C197.146 186.214 197.395 186.282 197.673 186.282C197.957 186.282 198.208 186.214 198.428 186.077C198.647 185.94 198.821 185.74 198.948 185.477C199.075 185.213 199.138 184.908 199.138 184.561C199.138 184.214 199.075 183.912 198.948 183.653C198.821 183.389 198.647 183.184 198.428 183.038C198.208 182.891 197.957 182.82 197.673 182.825ZM205.825 190.589H204.272V177.361H205.825V190.589ZM204.785 184.122H202.463V182.811H204.785V184.122ZM202.983 189.996H201.453V177.647H202.983V189.996ZM198.479 180.284H196.875V177.742H198.479V180.284ZM219.514 189.007H207.415V187.674H219.514V189.007ZM214.233 188.025H212.629V184.7H214.233V188.025ZM210.374 180.408H216.504V178.24H218.123V185.088H208.74V178.24H210.374V180.408ZM216.504 183.785V181.705H210.374V183.785H216.504ZM227.996 183.265H225.623V181.924H227.996V183.265ZM224.187 180.906C224.187 181.902 224.075 182.854 223.85 183.763C223.63 184.666 223.293 185.477 222.839 186.194C222.385 186.907 221.826 187.466 221.162 187.872L220.159 186.663C220.774 186.287 221.289 185.794 221.704 185.184C222.119 184.573 222.427 183.904 222.627 183.177C222.832 182.449 222.935 181.692 222.935 180.906V178.541H224.187V180.906ZM224.509 180.84C224.509 181.597 224.597 182.32 224.773 183.008C224.954 183.692 225.232 184.324 225.608 184.905C225.989 185.486 226.465 185.958 227.036 186.319L226.143 187.579C225.483 187.183 224.941 186.634 224.517 185.931C224.092 185.228 223.779 184.446 223.579 183.587C223.379 182.728 223.279 181.812 223.279 180.84V178.541H224.509V180.84ZM231.797 190.589H230.229V177.361H231.797V190.589ZM229.036 189.966H227.512V177.588H229.036V189.966ZM237.744 187.923H236.14V184.129H237.744V187.923ZM242.644 187.923H241.003V184.129H242.644V187.923ZM245.442 189H233.342V187.659H245.442V189ZM239.37 178.072C240.317 178.072 241.162 178.218 241.904 178.511C242.651 178.799 243.237 179.209 243.662 179.742C244.087 180.274 244.299 180.884 244.299 181.573C244.299 182.266 244.087 182.876 243.662 183.404C243.242 183.931 242.659 184.339 241.912 184.627C241.169 184.915 240.322 185.062 239.37 185.066C238.418 185.062 237.568 184.915 236.821 184.627C236.079 184.339 235.496 183.931 235.071 183.404C234.651 182.876 234.441 182.266 234.441 181.573C234.441 180.884 234.651 180.274 235.071 179.742C235.496 179.209 236.082 178.799 236.829 178.511C237.576 178.218 238.423 178.072 239.37 178.072ZM239.37 179.375C238.711 179.371 238.13 179.456 237.627 179.632C237.129 179.808 236.738 180.062 236.455 180.394C236.177 180.726 236.038 181.119 236.038 181.573C236.038 182.022 236.177 182.415 236.455 182.752C236.738 183.084 237.129 183.343 237.627 183.528C238.13 183.709 238.711 183.799 239.37 183.799C240.02 183.799 240.596 183.709 241.099 183.528C241.602 183.343 241.992 183.084 242.271 182.752C242.554 182.415 242.695 182.022 242.695 181.573C242.695 181.119 242.554 180.728 242.271 180.401C241.992 180.069 241.602 179.815 241.099 179.639C240.601 179.458 240.024 179.371 239.37 179.375Z" fill="#2EA98C"/>
</g>
<defs>
<filter id="filter0_d_2798_13520" x="13.2" y="-0.000195503" width="241.6" height="241.6" filterUnits="userSpaceOnUse" color-interpolation-filters="sRGB">
<feFlood flood-opacity="0" result="BackgroundImageFix"/>
<feColorMatrix in="SourceAlpha" type="matrix" values="0 0 0 0 0 0 0 0 0 0 0 0 0 0 0 0 0 0 127 0" result="hardAlpha"/>
<feMorphology radius="6" operator="dilate" in="SourceAlpha" result="effect1_dropShadow_2798_13520"/>
<feOffset/>
<feGaussianBlur stdDeviation="5.4"/>
<feComposite in2="hardAlpha" operator="out"/>
<feColorMatrix type="matrix" values="0 0 0 0 1 0 0 0 0 1 0 0 0 0 1 0 0 0 0.4 0"/>
<feBlend mode="normal" in2="BackgroundImageFix" result="effect1_dropShadow_2798_13520"/>
<feBlend mode="normal" in="SourceGraphic" in2="effect1_dropShadow_2798_13520" result="shape"/>
</filter>
<filter id="filter1_d_2798_13520" x="93" y="79.7998" width="83" height="83.5825" filterUnits="userSpaceOnUse" color-interpolation-filters="sRGB">
<feFlood flood-opacity="0" result="BackgroundImageFix"/>
<feColorMatrix in="SourceAlpha" type="matrix" values="0 0 0 0 0 0 0 0 0 0 0 0 0 0 0 0 0 0 127 0" result="hardAlpha"/>
<feOffset dy="4"/>
<feGaussianBlur stdDeviation="2"/>
<feComposite in2="hardAlpha" operator="out"/>
<feColorMatrix type="matrix" values="0 0 0 0 0 0 0 0 0 0 0 0 0 0 0 0 0 0 0.15 0"/>
<feBlend mode="normal" in2="BackgroundImageFix" result="effect1_dropShadow_2798_13520"/>
<feBlend mode="normal" in="SourceGraphic" in2="effect1_dropShadow_2798_13520" result="shape"/>
</filter>
<filter id="filter2_d_2798_13520" x="0" y="165.8" width="270" height="44" filterUnits="userSpaceOnUse" color-interpolation-filters="sRGB">
<feFlood flood-opacity="0" result="BackgroundImageFix"/>
<feColorMatrix in="SourceAlpha" type="matrix" values="0 0 0 0 0 0 0 0 0 0 0 0 0 0 0 0 0 0 127 0" result="hardAlpha"/>
<feOffset dy="4"/>
<feGaussianBlur stdDeviation="2"/>
<feComposite in2="hardAlpha" operator="out"/>
<feColorMatrix type="matrix" values="0 0 0 0 0 0 0 0 0 0 0 0 0 0 0 0 0 0 0.15 0"/>
<feBlend mode="normal" in2="BackgroundImageFix" result="effect1_dropShadow_2798_13520"/>
<feBlend mode="normal" in="SourceGraphic" in2="effect1_dropShadow_2798_13520" result="shape"/>
</filter>
</defs>
</svg>
