<svg width="63" height="68" viewBox="0 0 63 68" fill="none" xmlns="http://www.w3.org/2000/svg">
<g filter="url(#filter0_d_2766_11459)">
<mask id="path-1-inside-1_2766_11459" fill="white">
<path d="M31.5 12C42.2696 12 51 20.7304 51 31.5C51 40.3196 45.1446 47.771 37.1094 50.1804C36.9173 50.238 36.7445 50.3487 36.6156 50.5023L32.7658 55.0879C32.3662 55.5638 31.6338 55.5639 31.2341 55.088L27.667 50.8401C27.5233 50.6691 27.3258 50.5518 27.1081 50.5017C18.4538 48.5096 12 40.7592 12 31.5C12 20.7304 20.7304 12 31.5 12Z"/>
</mask>
<path d="M31.5 12C42.2696 12 51 20.7304 51 31.5C51 40.3196 45.1446 47.771 37.1094 50.1804C36.9173 50.238 36.7445 50.3487 36.6156 50.5023L32.7658 55.0879C32.3662 55.5638 31.6338 55.5639 31.2341 55.088L27.667 50.8401C27.5233 50.6691 27.3258 50.5518 27.1081 50.5017C18.4538 48.5096 12 40.7592 12 31.5C12 20.7304 20.7304 12 31.5 12Z" fill="#0192C8"/>
<path d="M27.667 50.8401L26.9012 51.4832L27.667 50.8401ZM27.1081 50.5017L27.3324 49.5272L27.1081 50.5017ZM32.7658 55.0879L31.9999 54.4449L32.7658 55.0879ZM31.2341 55.088L31.9999 54.4449L31.2341 55.088ZM37.1094 50.1804L37.3966 51.1383L37.1094 50.1804ZM36.6156 50.5023L37.3815 51.1452L36.6156 50.5023ZM31.5 12V13C41.7173 13 50 21.2827 50 31.5H51H52C52 20.1782 42.8218 11 31.5 11V12ZM51 31.5H50C50 39.8658 44.4461 46.9365 36.8221 49.2226L37.1094 50.1804L37.3966 51.1383C45.8431 48.6056 52 40.7734 52 31.5H51ZM36.6156 50.5023L35.8498 49.8593L31.9999 54.4449L32.7658 55.0879L33.5317 55.7309L37.3815 51.1452L36.6156 50.5023ZM31.2341 55.088L31.9999 54.4449L28.4328 50.197L27.667 50.8401L26.9012 51.4832L30.4683 55.731L31.2341 55.088ZM27.1081 50.5017L27.3324 49.5272C19.1219 47.6372 13 40.283 13 31.5H12H11C11 41.2355 17.7856 49.3819 26.8838 51.4762L27.1081 50.5017ZM12 31.5H13C13 21.2827 21.2827 13 31.5 13V12V11C20.1782 11 11 20.1782 11 31.5H12ZM27.667 50.8401L28.4328 50.197C28.1431 49.8521 27.752 49.6238 27.3324 49.5272L27.1081 50.5017L26.8838 51.4762C26.8911 51.4779 26.8963 51.4803 26.8993 51.4821C26.9021 51.4839 26.9023 51.4846 26.9012 51.4832L27.667 50.8401ZM32.7658 55.0879L31.9999 54.4449V54.4449L31.2341 55.088L30.4683 55.731C31.2676 56.6829 32.7324 56.6828 33.5317 55.7309L32.7658 55.0879ZM37.1094 50.1804L36.8221 49.2226C36.4517 49.3337 36.1096 49.5497 35.8498 49.8593L36.6156 50.5023L37.3815 51.1452C37.3795 51.1477 37.383 51.1424 37.3966 51.1383L37.1094 50.1804Z" fill="white" mask="url(#path-1-inside-1_2766_11459)"/>
</g>
<circle cx="31.5" cy="62.4448" r="3.5" fill="#0192C8" stroke="white"/>
<path d="M34.9629 23.5833H28.0326C27.8553 23.5833 26.9251 23.6347 26.0511 24.6528C25.1906 25.6543 25.166 26.6407 25.166 26.7499V35.4583C25.166 35.8782 25.3328 36.2809 25.6298 36.5778C25.9267 36.8748 26.3294 37.0416 26.7493 37.0416H27.541L25.9577 39.4166H27.8205L28.3485 38.6249H34.6818L35.2178 39.4166H37.041L35.4577 37.0416H36.2493C36.6693 37.0416 37.072 36.8748 37.3689 36.5778C37.6659 36.2809 37.8327 35.8782 37.8327 35.4583V26.7499C37.8335 26.6011 37.8073 25.6147 36.9389 24.6401C36.0237 23.6125 35.069 23.5833 34.9629 23.5833ZM29.916 25.1666H33.0827V26.7499H29.916V25.1666ZM27.9368 35.4583C27.6218 35.4581 27.3197 35.3329 27.097 35.11C26.8743 34.8872 26.7492 34.585 26.7493 34.27C26.7495 33.9549 26.8747 33.6528 27.0976 33.4301C27.3204 33.2074 27.6226 33.0824 27.9376 33.0825C28.2527 33.0826 28.5548 33.2078 28.7775 33.4307C29.0002 33.6535 29.1252 33.9557 29.1251 34.2708C29.125 34.5858 28.9998 34.8879 28.7769 35.1106C28.5541 35.3333 28.2519 35.4584 27.9368 35.4583ZM35.0618 35.4583C34.7468 35.4581 34.4447 35.3329 34.222 35.11C33.9993 34.8872 33.8742 34.585 33.8743 34.27C33.8745 33.9549 33.9997 33.6528 34.2226 33.4301C34.4454 33.2074 34.7476 33.0824 35.0626 33.0825C35.3777 33.0826 35.6798 33.2078 35.9025 33.4307C36.1252 33.6535 36.2502 33.9557 36.2501 34.2708C36.25 34.5858 36.1248 34.8879 35.9019 35.1106C35.6791 35.3333 35.3769 35.4584 35.0618 35.4583ZM36.2493 31.4999H26.7493V28.3333H36.2493V31.4999Z" fill="white"/>
<defs>
<filter id="filter0_d_2766_11459" x="0" y="0" width="63" height="67.4448" filterUnits="userSpaceOnUse" color-interpolation-filters="sRGB">
<feFlood flood-opacity="0" result="BackgroundImageFix"/>
<feColorMatrix in="SourceAlpha" type="matrix" values="0 0 0 0 0 0 0 0 0 0 0 0 0 0 0 0 0 0 127 0" result="hardAlpha"/>
<feMorphology radius="1" operator="dilate" in="SourceAlpha" result="effect1_dropShadow_2766_11459"/>
<feOffset/>
<feGaussianBlur stdDeviation="5.5"/>
<feComposite in2="hardAlpha" operator="out"/>
<feColorMatrix type="matrix" values="0 0 0 0 0.00392157 0 0 0 0 0.572549 0 0 0 0 0.784314 0 0 0 1 0"/>
<feBlend mode="normal" in2="BackgroundImageFix" result="effect1_dropShadow_2766_11459"/>
<feBlend mode="normal" in="SourceGraphic" in2="effect1_dropShadow_2766_11459" result="shape"/>
</filter>
</defs>
</svg>
