<svg width="15" height="15" viewBox="0 0 15 15" fill="none" xmlns="http://www.w3.org/2000/svg">
<path d="M12.4635 4.09674L3.30225 0.063988C3.21156 0.0239153 3.11383 0.00222164 3.0147 0.000161875C2.91558 -0.00189789 2.81702 0.0157171 2.72475 0.051988C2.63255 0.0884253 2.54849 0.142781 2.47742 0.211912C2.40636 0.281042 2.34971 0.363575 2.31075 0.454738L0.0607501 5.70474C-0.0176004 5.88754 -0.0201343 6.09398 0.0537059 6.27865C0.127546 6.46332 0.271713 6.6111 0.4545 6.68949L5.67225 8.92524L4.74225 11.2502H1.5V9.00024H0V15.0002H1.5V12.7502H4.74225C5.3595 12.7502 5.90625 12.3797 6.13425 11.8067L7.05075 9.51624L9.615 10.615C9.79698 10.6932 10.0025 10.6962 10.1867 10.6234C10.3709 10.5507 10.5189 10.408 10.5983 10.2265L12.8483 5.08374C12.9279 4.9018 12.9321 4.69572 12.8599 4.51069C12.7878 4.32567 12.6452 4.1768 12.4635 4.09674ZM13.4475 10.7792L12.054 10.2227L13.5525 6.47274L14.946 7.02849L13.4475 10.7792Z" fill="#F48787"/>
</svg>
