<svg width="14" height="17" viewBox="0 0 14 17" fill="none" xmlns="http://www.w3.org/2000/svg">
<path d="M8.625 8.55188L9.0975 10.5994C9.1725 10.9219 8.82 11.1769 8.535 11.0044L6.75 9.92438L4.9575 11.0044C4.89432 11.0427 4.82125 11.0616 4.7474 11.0587C4.67355 11.0558 4.6022 11.0312 4.54222 10.988C4.48225 10.9448 4.43631 10.885 4.41013 10.8159C4.38395 10.7467 4.37869 10.6715 4.395 10.5994L4.875 8.55938L3.3 7.20187C3.24341 7.15404 3.20227 7.0905 3.18175 7.0193C3.16124 6.94809 3.16229 6.87241 3.18475 6.8018C3.20722 6.73119 3.25011 6.66881 3.30799 6.62255C3.36588 6.57629 3.43617 6.54822 3.51 6.54187L5.595 6.36188L6.405 4.44187C6.5325 4.13438 6.9675 4.13438 7.095 4.44187L7.905 6.35437L9.99 6.53437C10.0638 6.54072 10.1341 6.56879 10.192 6.61505C10.2499 6.66131 10.2928 6.72369 10.3152 6.7943C10.3377 6.86491 10.3388 6.94059 10.3182 7.0118C10.2977 7.083 10.2566 7.14654 10.2 7.19438L8.625 8.55188ZM0.8925 2.46187C0.3525 2.70187 0 3.24188 0 3.83438V7.35938C0 11.5219 2.88 15.4144 6.75 16.3594C10.62 15.4144 13.5 11.5219 13.5 7.35938V3.83438C13.5 3.24188 13.1475 2.70187 12.6075 2.46187L7.3575 0.129375C6.9675 -0.043125 6.525 -0.043125 6.1425 0.129375L0.8925 2.46187Z" fill="#F48787"/>
</svg>
