<svg width="18" height="18" viewBox="0 0 18 18" fill="none" xmlns="http://www.w3.org/2000/svg">
<path d="M14.5408 4.77953L3.85263 0.0746527C3.74682 0.0279012 3.6328 0.00259191 3.51715 0.000188854C3.40151 -0.0022142 3.28653 0.0183366 3.17888 0.0606526C3.07131 0.103163 2.97323 0.166578 2.89033 0.24723C2.80742 0.327882 2.74133 0.424171 2.69588 0.530528L0.0708751 6.65553C-0.0205338 6.8688 -0.02349 7.10964 0.0626569 7.32509C0.148804 7.54054 0.316999 7.71295 0.53025 7.8044L6.61763 10.4128L5.53263 13.1253H1.75V10.5003H0V17.5003H1.75V14.8753H5.53263C6.25275 14.8753 6.89063 14.443 7.15663 13.7745L8.22588 11.1023L11.2175 12.3842C11.4298 12.4754 11.6696 12.4789 11.8845 12.394C12.0994 12.3091 12.272 12.1426 12.3646 11.9309L14.9896 5.93103C15.0825 5.71877 15.0874 5.47834 15.0033 5.26248C14.9191 5.04661 14.7528 4.87293 14.5408 4.77953ZM15.6888 12.5758L14.063 11.9265L15.8113 7.55153L17.437 8.1999L15.6888 12.5758Z" fill="white"/>
</svg>
