<svg width="63" height="68" viewBox="0 0 63 68" fill="none" xmlns="http://www.w3.org/2000/svg">
<g filter="url(#filter0_d_2766_11447)">
<mask id="path-1-inside-1_2766_11447" fill="white">
<path d="M31.5 12C42.2696 12 51 20.7304 51 31.5C51 40.3196 45.1446 47.771 37.1094 50.1804C36.9173 50.238 36.7445 50.3487 36.6156 50.5023L32.7658 55.0879C32.3662 55.5638 31.6338 55.5639 31.2341 55.088L27.667 50.8401C27.5233 50.6691 27.3258 50.5518 27.1081 50.5017C18.4538 48.5096 12 40.7592 12 31.5C12 20.7304 20.7304 12 31.5 12Z"/>
</mask>
<path d="M31.5 12C42.2696 12 51 20.7304 51 31.5C51 40.3196 45.1446 47.771 37.1094 50.1804C36.9173 50.238 36.7445 50.3487 36.6156 50.5023L32.7658 55.0879C32.3662 55.5638 31.6338 55.5639 31.2341 55.088L27.667 50.8401C27.5233 50.6691 27.3258 50.5518 27.1081 50.5017C18.4538 48.5096 12 40.7592 12 31.5C12 20.7304 20.7304 12 31.5 12Z" fill="#29AD29"/>
<path d="M27.667 50.8401L26.9012 51.4832L27.667 50.8401ZM27.1081 50.5017L27.3324 49.5272L27.1081 50.5017ZM32.7658 55.0879L31.9999 54.4449L32.7658 55.0879ZM31.2341 55.088L31.9999 54.4449L31.2341 55.088ZM37.1094 50.1804L37.3966 51.1383L37.1094 50.1804ZM36.6156 50.5023L37.3815 51.1452L36.6156 50.5023ZM31.5 12V13C41.7173 13 50 21.2827 50 31.5H51H52C52 20.1782 42.8218 11 31.5 11V12ZM51 31.5H50C50 39.8658 44.4461 46.9365 36.8221 49.2226L37.1094 50.1804L37.3966 51.1383C45.8431 48.6056 52 40.7734 52 31.5H51ZM36.6156 50.5023L35.8498 49.8593L31.9999 54.4449L32.7658 55.0879L33.5317 55.7309L37.3815 51.1452L36.6156 50.5023ZM31.2341 55.088L31.9999 54.4449L28.4328 50.197L27.667 50.8401L26.9012 51.4832L30.4683 55.731L31.2341 55.088ZM27.1081 50.5017L27.3324 49.5272C19.1219 47.6372 13 40.283 13 31.5H12H11C11 41.2355 17.7856 49.3819 26.8838 51.4762L27.1081 50.5017ZM12 31.5H13C13 21.2827 21.2827 13 31.5 13V12V11C20.1782 11 11 20.1782 11 31.5H12ZM27.667 50.8401L28.4328 50.197C28.1431 49.8521 27.752 49.6238 27.3324 49.5272L27.1081 50.5017L26.8838 51.4762C26.8911 51.4779 26.8963 51.4803 26.8993 51.4821C26.9021 51.4839 26.9023 51.4846 26.9012 51.4832L27.667 50.8401ZM32.7658 55.0879L31.9999 54.4449V54.4449L31.2341 55.088L30.4683 55.731C31.2676 56.6829 32.7324 56.6828 33.5317 55.7309L32.7658 55.0879ZM37.1094 50.1804L36.8221 49.2226C36.4517 49.3337 36.1096 49.5497 35.8498 49.8593L36.6156 50.5023L37.3815 51.1452C37.3795 51.1477 37.383 51.1424 37.3966 51.1383L37.1094 50.1804Z" fill="white" mask="url(#path-1-inside-1_2766_11447)"/>
</g>
<circle cx="31.5" cy="62.4448" r="3.5" fill="#29AD29" stroke="white"/>
<path d="M31.9698 26.5981L33.8172 30.6475C34.0167 30.5066 34.2463 30.4104 34.4891 30.3658C34.732 30.3213 34.9821 30.3296 35.2212 30.3901C35.4604 30.4506 35.6825 30.5618 35.8716 30.7156C36.0606 30.8695 36.2118 31.062 36.3141 31.2793L38.1211 35.0041C38.6432 36.0815 37.8705 37.382 36.6057 37.382H26.3948C25.1349 37.382 24.3609 36.0889 24.8767 35.0115L28.9195 26.5699C29.5321 25.2895 31.3816 25.3083 31.9698 26.5981Z" fill="white"/>
<defs>
<filter id="filter0_d_2766_11447" x="0" y="0" width="63" height="67.4448" filterUnits="userSpaceOnUse" color-interpolation-filters="sRGB">
<feFlood flood-opacity="0" result="BackgroundImageFix"/>
<feColorMatrix in="SourceAlpha" type="matrix" values="0 0 0 0 0 0 0 0 0 0 0 0 0 0 0 0 0 0 127 0" result="hardAlpha"/>
<feMorphology radius="1" operator="dilate" in="SourceAlpha" result="effect1_dropShadow_2766_11447"/>
<feOffset/>
<feGaussianBlur stdDeviation="5.5"/>
<feComposite in2="hardAlpha" operator="out"/>
<feColorMatrix type="matrix" values="0 0 0 0 0.160784 0 0 0 0 0.678431 0 0 0 0 0.160784 0 0 0 1 0"/>
<feBlend mode="normal" in2="BackgroundImageFix" result="effect1_dropShadow_2766_11447"/>
<feBlend mode="normal" in="SourceGraphic" in2="effect1_dropShadow_2766_11447" result="shape"/>
</filter>
</defs>
</svg>
