<svg width="63" height="68" viewBox="0 0 63 68" fill="none" xmlns="http://www.w3.org/2000/svg">
<g filter="url(#filter0_d_2766_11415)">
<mask id="path-1-inside-1_2766_11415" fill="white">
<path d="M31.5 12C42.2696 12 51 20.7304 51 31.5C51 40.3196 45.1446 47.771 37.1094 50.1804C36.9173 50.238 36.7445 50.3487 36.6156 50.5023L32.7658 55.0879C32.3662 55.5638 31.6338 55.5639 31.2341 55.088L27.667 50.8401C27.5233 50.6691 27.3258 50.5518 27.1081 50.5017C18.4538 48.5096 12 40.7592 12 31.5C12 20.7304 20.7304 12 31.5 12Z"/>
</mask>
<path d="M31.5 12C42.2696 12 51 20.7304 51 31.5C51 40.3196 45.1446 47.771 37.1094 50.1804C36.9173 50.238 36.7445 50.3487 36.6156 50.5023L32.7658 55.0879C32.3662 55.5638 31.6338 55.5639 31.2341 55.088L27.667 50.8401C27.5233 50.6691 27.3258 50.5518 27.1081 50.5017C18.4538 48.5096 12 40.7592 12 31.5C12 20.7304 20.7304 12 31.5 12Z" fill="#29AD29"/>
<path d="M27.667 50.8401L26.9012 51.4832L27.667 50.8401ZM27.1081 50.5017L27.3324 49.5272L27.1081 50.5017ZM32.7658 55.0879L31.9999 54.4449L32.7658 55.0879ZM31.2341 55.088L31.9999 54.4449L31.2341 55.088ZM37.1094 50.1804L37.3966 51.1383L37.1094 50.1804ZM36.6156 50.5023L37.3815 51.1452L36.6156 50.5023ZM31.5 12V13C41.7173 13 50 21.2827 50 31.5H51H52C52 20.1782 42.8218 11 31.5 11V12ZM51 31.5H50C50 39.8658 44.4461 46.9365 36.8221 49.2226L37.1094 50.1804L37.3966 51.1383C45.8431 48.6056 52 40.7734 52 31.5H51ZM36.6156 50.5023L35.8498 49.8593L31.9999 54.4449L32.7658 55.0879L33.5317 55.7309L37.3815 51.1452L36.6156 50.5023ZM31.2341 55.088L31.9999 54.4449L28.4328 50.197L27.667 50.8401L26.9012 51.4832L30.4683 55.731L31.2341 55.088ZM27.1081 50.5017L27.3324 49.5272C19.1219 47.6372 13 40.283 13 31.5H12H11C11 41.2355 17.7856 49.3819 26.8838 51.4762L27.1081 50.5017ZM12 31.5H13C13 21.2827 21.2827 13 31.5 13V12V11C20.1782 11 11 20.1782 11 31.5H12ZM27.667 50.8401L28.4328 50.197C28.1431 49.8521 27.752 49.6238 27.3324 49.5272L27.1081 50.5017L26.8838 51.4762C26.8911 51.4779 26.8963 51.4803 26.8993 51.4821C26.9021 51.4839 26.9023 51.4846 26.9012 51.4832L27.667 50.8401ZM32.7658 55.0879L31.9999 54.4449V54.4449L31.2341 55.088L30.4683 55.731C31.2676 56.6829 32.7324 56.6828 33.5317 55.7309L32.7658 55.0879ZM37.1094 50.1804L36.8221 49.2226C36.4517 49.3337 36.1096 49.5497 35.8498 49.8593L36.6156 50.5023L37.3815 51.1452C37.3795 51.1477 37.383 51.1424 37.3966 51.1383L37.1094 50.1804Z" fill="white" mask="url(#path-1-inside-1_2766_11415)"/>
</g>
<circle cx="31.5" cy="62.4448" r="3.5" fill="#29AD29" stroke="white"/>
<path d="M34.7084 24.7132C34.2661 24.7132 33.9062 24.6911 33.7916 25.5737L33.3332 28.3551L36.0837 30.5385H38.3757C39.9802 30.5385 40.0948 29.4804 40.0948 29.4804L37.9173 27.0323C37.1151 26.26 36.3129 26.1254 35.5106 26.1254V25.5737C35.5106 25.5737 35.5874 24.7132 34.7084 24.7132ZM28.3479 25.0221C28.3479 25.0221 27.2592 25.0442 26.5716 25.2648C25.884 25.4855 25.1964 26.26 25.1964 27.3633V31.666C25.1964 33.5405 24.3941 33.8483 24.0503 33.8483C24.0503 33.8483 22.9043 33.8715 22.9043 34.9747V37.4019C22.9043 37.4019 22.9043 38.2846 23.8211 38.2846H25.1964V37.5134C25.1964 37.0721 24.9672 36.8514 24.6233 36.7411V35.5275C25.7694 35.5275 25.884 35.3057 26.3424 35.1954L26.9727 37.6193C27.0873 37.9503 27.2019 38.1709 27.5457 38.2813H28.6918L29.7805 38.2614V37.3788C29.7805 36.6319 28.6345 36.6065 28.6345 36.6065V33.8483H32.6456L33.4478 36.74C33.9062 38.2846 34.9376 38.2614 34.9376 38.2614H36.6567V37.3788C36.6567 36.5921 35.5106 36.6065 35.5106 36.6065L35.6253 32.1073L32.0726 29.4352H26.9154V27.2287C26.9154 26.7873 27.2317 26.6825 27.4884 26.677C28.0546 26.6638 28.3479 26.677 28.3479 26.677C28.5759 26.677 28.7945 26.5898 28.9557 26.4347C29.1169 26.2795 29.2075 26.069 29.2075 25.8496C29.2075 25.6301 29.1169 25.4196 28.9557 25.2645C28.7945 25.1093 28.5759 25.0221 28.3479 25.0221ZM36.3702 27.7803C36.4462 27.7803 36.519 27.8093 36.5728 27.8611C36.6265 27.9128 36.6567 27.983 36.6567 28.0561C36.6567 28.1293 36.6265 28.1994 36.5728 28.2511C36.519 28.3029 36.4462 28.3319 36.3702 28.3319C36.2942 28.3319 36.2213 28.3029 36.1676 28.2511C36.1138 28.1994 36.0837 28.1293 36.0837 28.0561C36.0837 27.983 36.1138 27.9128 36.1676 27.8611C36.2213 27.8093 36.2942 27.7803 36.3702 27.7803Z" fill="white"/>
<defs>
<filter id="filter0_d_2766_11415" x="0" y="0" width="63" height="67.4448" filterUnits="userSpaceOnUse" color-interpolation-filters="sRGB">
<feFlood flood-opacity="0" result="BackgroundImageFix"/>
<feColorMatrix in="SourceAlpha" type="matrix" values="0 0 0 0 0 0 0 0 0 0 0 0 0 0 0 0 0 0 127 0" result="hardAlpha"/>
<feMorphology radius="1" operator="dilate" in="SourceAlpha" result="effect1_dropShadow_2766_11415"/>
<feOffset/>
<feGaussianBlur stdDeviation="5.5"/>
<feComposite in2="hardAlpha" operator="out"/>
<feColorMatrix type="matrix" values="0 0 0 0 0.160784 0 0 0 0 0.678431 0 0 0 0 0.160784 0 0 0 1 0"/>
<feBlend mode="normal" in2="BackgroundImageFix" result="effect1_dropShadow_2766_11415"/>
<feBlend mode="normal" in="SourceGraphic" in2="effect1_dropShadow_2766_11415" result="shape"/>
</filter>
</defs>
</svg>
