<svg width="17" height="13" viewBox="0 0 17 13" fill="none" xmlns="http://www.w3.org/2000/svg">
<path d="M11.1829 4.74019e-05C10.7638 4.74019e-05 10.4229 -0.0208568 10.3143 0.815309L9.88 3.45028L12.4857 5.51874H14.6571C16.1771 5.51874 16.2857 4.51639 16.2857 4.51639L14.2229 2.19707C13.4629 1.46543 12.7029 1.33791 11.9429 1.33791V0.815309C11.9429 0.815309 12.0156 4.74019e-05 11.1829 4.74019e-05ZM5.15714 0.292705C5.15714 0.292705 4.12571 0.31361 3.47429 0.522651C2.82286 0.731693 2.17143 1.46543 2.17143 2.51064V6.58694C2.17143 8.36275 1.41143 8.65436 1.08571 8.65436C1.08571 8.65436 0 8.67631 0 9.72152V12.021C0 12.021 0 12.8571 0.868571 12.8571H2.17143V12.1265C2.17143 11.7085 1.95429 11.4994 1.62857 11.3949V10.2452C2.71429 10.2452 2.82286 10.0351 3.25714 9.93056L3.85429 12.2269C3.96286 12.5404 4.07143 12.7495 4.39714 12.854H5.48286L6.51429 12.8352V11.999C6.51429 11.2914 5.42857 11.2674 5.42857 11.2674V8.65436H9.22857L9.98857 11.3939C10.4229 12.8571 11.4 12.8352 11.4 12.8352H13.0286V11.999C13.0286 11.2538 11.9429 11.2674 11.9429 11.2674L12.0514 7.00503L8.68571 4.47353H3.8V2.38312C3.8 1.96504 4.09966 1.86574 4.34286 1.86052C4.8792 1.84797 5.15714 1.86052 5.15714 1.86052C5.37311 1.86052 5.58022 1.77793 5.73293 1.63092C5.88564 1.48391 5.97143 1.28452 5.97143 1.07661C5.97143 0.868706 5.88564 0.669317 5.73293 0.522306C5.58022 0.375295 5.37311 0.292705 5.15714 0.292705ZM12.7571 2.90572C12.8291 2.90572 12.8982 2.93325 12.9491 2.98226C13 3.03126 13.0286 3.09772 13.0286 3.16703C13.0286 3.23633 13 3.30279 12.9491 3.35179C12.8982 3.4008 12.8291 3.42833 12.7571 3.42833C12.6852 3.42833 12.6161 3.4008 12.5652 3.35179C12.5143 3.30279 12.4857 3.23633 12.4857 3.16703C12.4857 3.09772 12.5143 3.03126 12.5652 2.98226C12.6161 2.93325 12.6852 2.90572 12.7571 2.90572Z" fill="#82AA82"/>
</svg>
