<svg width="15" height="13" viewBox="0 0 15 13" fill="none" xmlns="http://www.w3.org/2000/svg">
<path d="M5.00224 2.76779C5.16519 2.21238 5.4575 1.7 5.85698 1.26956C6.25645 0.839124 6.75258 0.501941 7.3077 0.283616C7.86282 0.0652911 8.46233 -0.0284352 9.06072 0.0095534C9.65911 0.047542 10.2406 0.216247 10.7611 0.502858C11.2817 0.78947 11.7275 1.18645 12.0647 1.66366C12.402 2.14087 12.6218 2.68577 12.7075 3.25697C12.7933 3.82817 12.7426 4.41066 12.5595 4.96021C12.3763 5.50976 12.0655 6.01192 11.6505 6.42857C12.0655 6.84522 12.3763 7.34738 12.5595 7.89694C12.7426 8.44649 12.7933 9.02898 12.7075 9.60018C12.6218 10.1714 12.402 10.7163 12.0647 11.1935C11.7275 11.6707 11.2817 12.0677 10.7611 12.3543C10.2406 12.6409 9.65911 12.8096 9.06072 12.8476C8.46233 12.8856 7.86282 12.7919 7.3077 12.5735C6.75258 12.3552 6.25645 12.018 5.85698 11.5876C5.4575 11.1571 5.16519 10.6448 5.00224 10.0893C4.416 10.2458 3.8001 10.2698 3.20264 10.1594C2.60519 10.0489 2.04235 9.80708 1.55807 9.4527C1.07379 9.09832 0.68118 8.641 0.410904 8.11646C0.140629 7.59192 0 7.01435 0 6.42886C0 5.84337 0.140629 5.26581 0.410904 4.74126C0.68118 4.21672 1.07379 3.75941 1.55807 3.40502C2.04235 3.05064 2.60519 2.80879 3.20264 2.69835C3.8001 2.58791 4.416 2.61129 5.00224 2.76779ZM3.64076 1.16883C3.80182 1.16883 3.95628 1.10726 4.07016 0.99766C4.18404 0.88806 4.24802 0.739412 4.24802 0.584416C4.24802 0.429419 4.18404 0.280771 4.07016 0.171171C3.95628 0.0615722 3.80182 0 3.64076 0C3.47971 0 3.32525 0.0615722 3.21137 0.171171C3.09748 0.280771 3.0335 0.429419 3.0335 0.584416C3.0335 0.739412 3.09748 0.88806 3.21137 0.99766C3.32525 1.10726 3.47971 1.16883 3.64076 1.16883ZM14.5714 6.42857C14.5714 6.58357 14.5075 6.73222 14.3936 6.84181C14.2797 6.95141 14.1252 7.01299 13.9642 7.01299C13.8031 7.01299 13.6487 6.95141 13.5348 6.84181C13.4209 6.73222 13.3569 6.58357 13.3569 6.42857C13.3569 6.27357 13.4209 6.12493 13.5348 6.01533C13.6487 5.90573 13.8031 5.84416 13.9642 5.84416C14.1252 5.84416 14.2797 5.90573 14.3936 6.01533C14.5075 6.12493 14.5714 6.27357 14.5714 6.42857ZM4.24802 12.2727C4.24802 12.4277 4.18404 12.5764 4.07016 12.686C3.95628 12.7956 3.80182 12.8571 3.64076 12.8571C3.47971 12.8571 3.32525 12.7956 3.21137 12.686C3.09748 12.5764 3.0335 12.4277 3.0335 12.2727C3.0335 12.1177 3.09748 11.9691 3.21137 11.8595C3.32525 11.7499 3.47971 11.6883 3.64076 11.6883C3.80182 11.6883 3.95628 11.7499 4.07016 11.8595C4.18404 11.9691 4.24802 12.1177 4.24802 12.2727Z" fill="#82AA82"/>
</svg>
