<svg width="15" height="15" viewBox="0 0 15 15" fill="none" xmlns="http://www.w3.org/2000/svg">
<path d="M1.5 15C1.0875 15 0.7345 14.8533 0.441 14.5597C0.1475 14.2662 0.0005 13.913 0 13.5V6.975C0 6.675 0.08125 6.4 0.24375 6.15C0.40625 5.9 0.63125 5.7125 0.91875 5.5875L4.2 4.2C4.45 4.1 4.6875 4.11875 4.9125 4.25625C5.1375 4.39375 5.25 4.6 5.25 4.875V5.25L7.96875 4.1625C8.21875 4.0625 8.453 4.0875 8.6715 4.2375C8.89 4.3875 8.9995 4.59375 9 4.85625V6H15V13.5C15 13.9125 14.8533 14.2657 14.5597 14.5597C14.2662 14.8538 13.913 15.0005 13.5 15H1.5ZM6.75 12H8.25V9H6.75V12ZM3.75 12H5.25V9H3.75V12ZM9.75 12H11.25V9H9.75V12ZM14.85 4.875H11.3812L11.925 0.65625C11.95 0.46875 12.0345 0.3125 12.1785 0.1875C12.3225 0.0625 12.488 0 12.675 0H13.5938C13.7812 0 13.9437 0.0625 14.0812 0.1875C14.2188 0.3125 14.3 0.46875 14.325 0.65625L14.85 4.875Z" fill="#82AA82"/>
</svg>
