<svg width="15" height="20" viewBox="0 0 15 20" fill="none" xmlns="http://www.w3.org/2000/svg">
<path d="M8.08282 0.271812C7.90872 0.0977708 7.67263 0 7.42647 0C7.1803 0 6.94421 0.0977708 6.77011 0.271812L3.05666 3.98526C2.91591 4.12604 2.82413 4.30833 2.79488 4.50525C2.76563 4.70216 2.80045 4.90326 2.8942 5.07887C3.1235 5.50871 3.48185 5.79836 3.83185 5.99517L1.19994 8.62708C1.0259 8.80117 0.928125 9.03726 0.928125 9.28343C0.928125 9.5296 1.0259 9.76569 1.19994 9.93978C1.64369 10.3835 2.20443 10.6546 2.71688 10.8236L0.271575 13.2689C0.159486 13.3811 0.0780108 13.5201 0.0349209 13.6728C-0.0081691 13.8254 -0.0114377 13.9865 0.0254272 14.1408C0.0622921 14.295 0.138061 14.4373 0.245508 14.5539C0.352954 14.6706 0.488496 14.7578 0.639206 14.8072C1.27978 15.0179 1.9417 15.1674 2.60269 15.2992C3.32682 15.445 4.22361 15.5889 5.24388 15.6817L4.68872 17.3453C4.64224 17.4849 4.62959 17.6335 4.6518 17.7789C4.67402 17.9243 4.73048 18.0624 4.81652 18.1817C4.90256 18.301 5.01572 18.3982 5.14668 18.4652C5.27763 18.5322 5.42264 18.5671 5.56974 18.5671H9.28319C9.43029 18.5671 9.5753 18.5322 9.70625 18.4652C9.83721 18.3982 9.95037 18.301 10.0364 18.1817C10.1225 18.0624 10.1789 17.9243 10.2011 17.7789C10.2233 17.6335 10.2107 17.4849 10.1642 17.3453L9.60905 15.6817C10.6302 15.5889 11.527 15.445 12.2502 15.3001C12.9112 15.1674 13.5778 15.0179 14.2184 14.8063C14.3685 14.7562 14.5034 14.6687 14.6102 14.5518C14.717 14.435 14.7922 14.2928 14.8285 14.1388C14.8649 13.9847 14.8613 13.824 14.818 13.6717C14.7748 13.5195 14.6933 13.3808 14.5814 13.2689L12.136 10.8236C12.6485 10.6555 13.2092 10.3835 13.653 9.93978C13.827 9.76569 13.9248 9.5296 13.9248 9.28343C13.9248 9.03726 13.827 8.80117 13.653 8.62708L11.0211 5.99517C11.3711 5.79836 11.7294 5.50871 11.9587 5.07887C12.0525 4.90326 12.0873 4.70216 12.0581 4.50525C12.0288 4.30833 11.937 4.12604 11.7963 3.98526L8.08282 0.271812Z" fill="white"/>
</svg>
