<svg width="15" height="15" viewBox="0 0 15 15" fill="none" xmlns="http://www.w3.org/2000/svg">
<path d="M0 14.2361V4.87587C0 3.86748 0.260995 2.99267 0.782986 2.25145C1.30498 1.51022 2.04051 0.949554 2.98958 0.569449C3.63021 0.320318 4.31236 0.163246 5.03602 0.0982343C5.75969 0.0332227 6.4537 0.000479621 7.11806 5.08432e-06C7.78241 -0.000469453 8.47642 0.0322736 9.20009 0.0982343C9.92376 0.164195 10.6059 0.321267 11.2465 0.569449C12.1956 0.949079 12.9311 1.50974 13.4531 2.25145C13.9751 2.99315 14.2361 3.86796 14.2361 4.87587V14.2361H0ZM5.05382 12.8125L6.12153 11.7448H8.07899L9.1467 12.8125H10.3212V12.4566L9.57378 11.7092C10.0958 11.638 10.5288 11.4038 10.8728 11.0067C11.2169 10.6095 11.3889 10.1437 11.3889 9.60938V4.98264C11.3889 4.0573 10.9737 3.47006 10.1432 3.22093C9.31279 2.97179 8.3044 2.84723 7.11806 2.84723C6.03848 2.84723 5.0569 2.97179 4.17332 3.22093C3.28973 3.47006 2.8477 4.0573 2.84722 4.98264V9.60938C2.84722 10.1432 3.01924 10.609 3.36328 11.0067C3.70732 11.4043 4.14034 11.6385 4.66233 11.7092L3.91493 12.4566V12.8125H5.05382ZM3.91493 7.82987V4.98264H10.3212V7.82987H3.91493ZM9.60938 10.3212C9.4077 10.3212 9.23876 10.2529 9.10257 10.1162C8.96638 9.97952 8.89804 9.81058 8.89757 9.60938C8.8971 9.40818 8.96543 9.23924 9.10257 9.10257C9.23971 8.96591 9.40865 8.89757 9.60938 8.89757C9.8101 8.89757 9.97928 8.96591 10.1169 9.10257C10.2545 9.23924 10.3226 9.40818 10.3212 9.60938C10.3198 9.81058 10.2514 9.97976 10.1162 10.1169C9.98094 10.254 9.812 10.3221 9.60938 10.3212ZM4.62674 10.3212C4.42506 10.3212 4.25612 10.2529 4.11993 10.1162C3.98374 9.97952 3.91541 9.81058 3.91493 9.60938C3.91446 9.40818 3.98279 9.23924 4.11993 9.10257C4.25707 8.96591 4.42601 8.89757 4.62674 8.89757C4.82747 8.89757 4.99664 8.96591 5.13425 9.10257C5.27187 9.23924 5.33997 9.40818 5.33854 9.60938C5.33712 9.81058 5.26878 9.97976 5.13354 10.1169C4.9983 10.254 4.82936 10.3221 4.62674 10.3212Z" fill="#7CB7CD"/>
</svg>
