<svg width="13" height="16" viewBox="0 0 13 16" fill="none" xmlns="http://www.w3.org/2000/svg">
<path d="M6.57531 0.221117C6.43368 0.0795358 6.24163 0 6.04137 0C5.84111 0 5.64906 0.0795358 5.50743 0.221117L2.48657 3.24198C2.37207 3.3565 2.29741 3.5048 2.27361 3.66498C2.24982 3.82517 2.27814 3.98876 2.35441 4.13162C2.54095 4.48129 2.83246 4.71692 3.11718 4.87702L0.976139 7.01806C0.834558 7.15968 0.755022 7.35174 0.755022 7.552C0.755022 7.75225 0.834558 7.94431 0.976139 8.08593C1.33713 8.44693 1.79328 8.66745 2.21016 8.8049L0.220924 10.7941C0.12974 10.8854 0.0634612 10.9985 0.0284078 11.1227C-0.0066455 11.2469 -0.00930447 11.3779 0.0206848 11.5034C0.0506741 11.6289 0.112311 11.7446 0.199718 11.8395C0.287126 11.9344 0.397388 12.0053 0.519989 12.0455C1.04109 12.217 1.57956 12.3386 2.11727 12.4458C2.70634 12.5644 3.43588 12.6814 4.26586 12.7569L3.81424 14.1103C3.77642 14.2238 3.76613 14.3447 3.78421 14.463C3.80228 14.5813 3.84821 14.6936 3.9182 14.7907C3.98819 14.8877 4.08025 14.9668 4.18678 15.0213C4.29331 15.0758 4.41127 15.1042 4.53094 15.1042H7.5518C7.67147 15.1042 7.78943 15.0758 7.89596 15.0213C8.00249 14.9668 8.09455 14.8877 8.16454 14.7907C8.23453 14.6936 8.28046 14.5813 8.29854 14.463C8.31661 14.3447 8.30632 14.2238 8.2685 14.1103L7.81688 12.7569C8.64762 12.6814 9.37716 12.5644 9.96547 12.4465C10.5032 12.3386 11.0454 12.217 11.5665 12.0448C11.6887 12.0041 11.7984 11.9328 11.8853 11.8378C11.9722 11.7428 12.0333 11.6271 12.0629 11.5018C12.0925 11.3765 12.0895 11.2457 12.0544 11.1218C12.0192 10.998 11.9529 10.8852 11.8618 10.7941L9.87258 8.8049C10.2895 8.6682 10.7456 8.44693 11.1066 8.08593C11.2482 7.94431 11.3277 7.75225 11.3277 7.552C11.3277 7.35174 11.2482 7.15968 11.1066 7.01806L8.96557 4.87702C9.25028 4.71692 9.5418 4.48129 9.72833 4.13162C9.8046 3.98876 9.83293 3.82517 9.80913 3.66498C9.78533 3.5048 9.71067 3.3565 9.59617 3.24198L6.57531 0.221117Z" fill="#82AA82"/>
</svg>
