<svg width="15" height="15" viewBox="0 0 15 15" fill="none" xmlns="http://www.w3.org/2000/svg">
<path d="M11.8288 3.88811L3.13408 0.0607293C3.04801 0.0226974 2.95525 0.0021085 2.86118 0.000153631C2.7671 -0.00180124 2.67357 0.0149167 2.58599 0.0493404C2.49848 0.0839222 2.4187 0.13551 2.35126 0.20112C2.28382 0.26673 2.23005 0.34506 2.19307 0.43158L0.0576563 5.41422C-0.0167041 5.58771 -0.0191089 5.78364 0.0509709 5.9589C0.121051 6.13417 0.257876 6.27442 0.431354 6.34882L5.38339 8.47071L4.50075 10.6773H1.42361V8.54189H0V14.2363H1.42361V12.1009H4.50075C5.08656 12.1009 5.60547 11.7493 5.82186 11.2055L6.69168 9.03162L9.12535 10.0744C9.29806 10.1486 9.49312 10.1515 9.66795 10.0824C9.84278 10.0134 9.98319 9.87792 10.0585 9.7057L12.1939 4.82484C12.2695 4.65217 12.2735 4.45659 12.205 4.28098C12.1366 4.10538 12.0013 3.96409 11.8288 3.88811ZM12.7627 10.2303L11.4401 9.70214L12.8623 6.14311L14.1849 6.67056L12.7627 10.2303Z" fill="#F48787"/>
</svg>
