<svg width="20" height="20" viewBox="0 0 20 20" fill="none" xmlns="http://www.w3.org/2000/svg">
<path d="M10.0833 17.5C9.03444 17.5 8.05028 17.302 7.13083 16.9059C6.21139 16.5098 5.40806 15.9678 4.72083 15.28C4.03361 14.5923 3.49167 13.7886 3.095 12.8692C2.69833 11.9498 2.5 10.9656 2.5 9.9167C2.5 8.29448 2.96667 6.83198 3.9 5.5292C4.83333 4.22642 6.06556 3.31809 7.59667 2.8042C7.53889 4.1042 7.73806 5.35448 8.19417 6.55503C8.64972 7.75559 9.33861 8.8167 10.2608 9.73837C11.1831 10.6606 12.2442 11.3498 13.4442 11.8059C14.6442 12.262 15.8947 12.4611 17.1958 12.4034C16.6847 13.9334 15.7769 15.1653 14.4725 16.0992C13.1681 17.0331 11.705 17.5 10.0833 17.5Z" fill="white"/>
</svg>
