<svg width="20" height="20" viewBox="0 0 20 20" fill="none" xmlns="http://www.w3.org/2000/svg">
<path d="M10 16.6667C10.221 16.6667 10.433 16.7545 10.5893 16.9107C10.7455 17.067 10.8333 17.279 10.8333 17.5V19.1667C10.8333 19.3877 10.7455 19.5996 10.5893 19.7559C10.433 19.9122 10.221 20 10 20C9.77899 20 9.56702 19.9122 9.41074 19.7559C9.25446 19.5996 9.16667 19.3877 9.16667 19.1667V17.5C9.16667 17.279 9.25446 17.067 9.41074 16.9107C9.56702 16.7545 9.77899 16.6667 10 16.6667ZM4.1075 14.7142C4.18437 14.6346 4.27633 14.5711 4.378 14.5274C4.47967 14.4837 4.58902 14.4608 4.69967 14.4598C4.81032 14.4588 4.92005 14.4799 5.02246 14.5218C5.12488 14.5637 5.21792 14.6256 5.29616 14.7038C5.37441 14.7821 5.43628 14.8751 5.47818 14.9775C5.52009 15.08 5.54117 15.1897 5.54021 15.3003C5.53925 15.411 5.51626 15.5203 5.47258 15.622C5.42891 15.7237 5.36543 15.8156 5.28583 15.8925L4.1075 17.0708C3.95033 17.2226 3.73983 17.3066 3.52133 17.3047C3.30283 17.3028 3.09382 17.2152 2.93932 17.0607C2.78481 16.9062 2.69717 16.6972 2.69527 16.4787C2.69337 16.2602 2.77737 16.0497 2.92917 15.8925L4.1075 14.7142ZM14.7142 14.7142C14.8704 14.5579 15.0824 14.4702 15.3033 14.4702C15.5243 14.4702 15.7362 14.5579 15.8925 14.7142L17.0708 15.8925C17.2226 16.0497 17.3066 16.2602 17.3047 16.4787C17.3028 16.6972 17.2152 16.9062 17.0607 17.0607C16.9062 17.2152 16.6972 17.3028 16.4787 17.3047C16.2602 17.3066 16.0497 17.2226 15.8925 17.0708L14.7142 15.8925C14.5579 15.7362 14.4702 15.5243 14.4702 15.3033C14.4702 15.0824 14.5579 14.8704 14.7142 14.7142ZM10 5C11.3261 5 12.5979 5.52678 13.5355 6.46447C14.4732 7.40215 15 8.67392 15 10C15 11.3261 14.4732 12.5979 13.5355 13.5355C12.5979 14.4732 11.3261 15 10 15C8.67392 15 7.40215 14.4732 6.46447 13.5355C5.52678 12.5979 5 11.3261 5 10C5 8.67392 5.52678 7.40215 6.46447 6.46447C7.40215 5.52678 8.67392 5 10 5ZM2.5 9.16667C2.72101 9.16667 2.93298 9.25446 3.08926 9.41074C3.24554 9.56702 3.33333 9.77899 3.33333 10C3.33333 10.221 3.24554 10.433 3.08926 10.5893C2.93298 10.7455 2.72101 10.8333 2.5 10.8333H0.833333C0.61232 10.8333 0.400358 10.7455 0.244078 10.5893C0.0877974 10.433 0 10.221 0 10C0 9.77899 0.0877974 9.56702 0.244078 9.41074C0.400358 9.25446 0.61232 9.16667 0.833333 9.16667H2.5ZM19.1667 9.16667C19.3877 9.16667 19.5996 9.25446 19.7559 9.41074C19.9122 9.56702 20 9.77899 20 10C20 10.221 19.9122 10.433 19.7559 10.5893C19.5996 10.7455 19.3877 10.8333 19.1667 10.8333H17.5C17.279 10.8333 17.067 10.7455 16.9107 10.5893C16.7545 10.433 16.6667 10.221 16.6667 10C16.6667 9.77899 16.7545 9.56702 16.9107 9.41074C17.067 9.25446 17.279 9.16667 17.5 9.16667H19.1667ZM2.92917 2.92917C3.08544 2.77294 3.29736 2.68518 3.51833 2.68518C3.7393 2.68518 3.95123 2.77294 4.1075 2.92917L5.28583 4.1075C5.36543 4.18437 5.42891 4.27633 5.47258 4.378C5.51626 4.47967 5.53925 4.58902 5.54021 4.69967C5.54117 4.81032 5.52009 4.92005 5.47818 5.02246C5.43628 5.12488 5.37441 5.21792 5.29616 5.29616C5.21792 5.37441 5.12488 5.43628 5.02246 5.47818C4.92005 5.52009 4.81032 5.54117 4.69967 5.54021C4.58902 5.53925 4.47967 5.51626 4.378 5.47258C4.27633 5.42891 4.18437 5.36543 4.1075 5.28583L2.92917 4.1075C2.77294 3.95123 2.68518 3.7393 2.68518 3.51833C2.68518 3.29736 2.77294 3.08544 2.92917 2.92917ZM15.8925 2.92917C16.0497 2.77737 16.2602 2.69337 16.4787 2.69527C16.6972 2.69717 16.9062 2.78481 17.0607 2.93932C17.2152 3.09382 17.3028 3.30283 17.3047 3.52133C17.3066 3.73983 17.2226 3.95033 17.0708 4.1075L15.8925 5.28583C15.8156 5.36543 15.7237 5.42891 15.622 5.47258C15.5203 5.51626 15.411 5.53925 15.3003 5.54021C15.1897 5.54117 15.08 5.52009 14.9775 5.47818C14.8751 5.43628 14.7821 5.37441 14.7038 5.29616C14.6256 5.21792 14.5637 5.12488 14.5218 5.02246C14.4799 4.92005 14.4588 4.81032 14.4598 4.69967C14.4608 4.58902 14.4837 4.47967 14.5274 4.378C14.5711 4.27633 14.6346 4.18437 14.7142 4.1075L15.8925 2.92917ZM10 0C10.221 0 10.433 0.0877974 10.5893 0.244078C10.7455 0.400358 10.8333 0.61232 10.8333 0.833333V2.5C10.8333 2.72101 10.7455 2.93298 10.5893 3.08926C10.433 3.24554 10.221 3.33333 10 3.33333C9.77899 3.33333 9.56702 3.24554 9.41074 3.08926C9.25446 2.93298 9.16667 2.72101 9.16667 2.5V0.833333C9.16667 0.61232 9.25446 0.400358 9.41074 0.244078C9.56702 0.0877974 9.77899 0 10 0Z" fill="white"/>
</svg>
