<svg width="12" height="12" viewBox="0 0 12 12" fill="none" xmlns="http://www.w3.org/2000/svg">
<circle cx="6" cy="6" r="5.625" stroke="#9D9D9D" stroke-width="0.75"/>
<path d="M5.31836 7.47803C5.32129 7.14697 5.35645 6.87744 5.42383 6.66943C5.49121 6.46143 5.58936 6.28711 5.71826 6.14648C5.8501 6.00586 6.02881 5.86523 6.25439 5.72461C6.47998 5.57812 6.65283 5.41406 6.77295 5.23242C6.89307 5.05078 6.95312 4.8457 6.95312 4.61719C6.95312 4.40625 6.90186 4.21875 6.79932 4.05469C6.69971 3.8877 6.56201 3.76025 6.38623 3.67236C6.21045 3.58154 6.01562 3.53613 5.80176 3.53613C5.59668 3.53613 5.40771 3.58008 5.23486 3.66797C5.06494 3.75293 4.92432 3.8833 4.81299 4.05908C4.70459 4.23193 4.64307 4.43994 4.62842 4.68311H4C4.01172 4.34619 4.09814 4.05029 4.25928 3.79541C4.42041 3.54053 4.63574 3.34424 4.90527 3.20654C5.1748 3.06885 5.47363 3 5.80176 3C6.14746 3 6.45361 3.07031 6.72021 3.21094C6.98682 3.35156 7.19336 3.54785 7.33984 3.7998C7.48926 4.04883 7.56396 4.33008 7.56396 4.64355C7.56396 4.95703 7.49072 5.23096 7.34424 5.46533C7.19775 5.69971 6.97656 5.91504 6.68066 6.11133C6.4873 6.23438 6.33789 6.35596 6.23242 6.47607C6.12695 6.59619 6.04932 6.73535 5.99951 6.89355C5.94971 7.04883 5.92188 7.24365 5.91602 7.47803V7.63184H5.31836V7.47803ZM5.63477 9.49951C5.55273 9.49951 5.4751 9.47754 5.40186 9.43359C5.32861 9.38965 5.27148 9.33252 5.23047 9.26221C5.18945 9.18896 5.16895 9.10986 5.16895 9.0249C5.16895 8.94287 5.18945 8.86523 5.23047 8.79199C5.27148 8.71875 5.32861 8.66162 5.40186 8.62061C5.4751 8.57959 5.55273 8.55908 5.63477 8.55908C5.71973 8.55908 5.79883 8.57959 5.87207 8.62061C5.94531 8.66162 6.00098 8.71875 6.03906 8.79199C6.08008 8.86523 6.10059 8.94287 6.10059 9.0249C6.10059 9.10986 6.08008 9.18896 6.03906 9.26221C6.00098 9.33252 5.94531 9.38965 5.87207 9.43359C5.79883 9.47754 5.71973 9.49951 5.63477 9.49951Z" fill="#9D9D9D"/>
</svg>
