<svg width="13" height="13" viewBox="0 0 13 13" fill="none" xmlns="http://www.w3.org/2000/svg">
<path d="M0.5 3.5H2M0.5 6.5H2.75M0.5 9.5H2M3.5 0.5V2M6.5 0.5V2.75M9.5 0.5V2M1.25 0.5H11.75C11.9489 0.5 12.1397 0.579018 12.2803 0.71967C12.421 0.860322 12.5 1.05109 12.5 1.25V5C12.5 5.19891 12.421 5.38968 12.2803 5.53033C12.1397 5.67098 11.9489 5.75 11.75 5.75H6.5C6.30109 5.75 6.11032 5.82902 5.96967 5.96967C5.82902 6.11032 5.75 6.30109 5.75 6.5V11.75C5.75 11.9489 5.67098 12.1397 5.53033 12.2803C5.38968 12.421 5.19891 12.5 5 12.5H1.25C1.05109 12.5 0.860322 12.421 0.71967 12.2803C0.579018 12.1397 0.5 11.9489 0.5 11.75V1.25C0.5 1.05109 0.579018 0.860322 0.71967 0.71967C0.860322 0.579018 1.05109 0.5 1.25 0.5Z" stroke="#9D9D9D" stroke-linecap="round" stroke-linejoin="round"/>
</svg>
