<svg width="17" height="13" viewBox="0 0 17 13" fill="none" xmlns="http://www.w3.org/2000/svg">
<path d="M16.3125 8.43786H13.4684C13.4891 8.25107 13.4996 8.06329 13.5 7.87536C13.5 6.5327 12.9666 5.24504 12.0172 4.29563C11.0678 3.34623 9.78016 2.81286 8.4375 2.81286C7.09484 2.81286 5.80717 3.34623 4.85777 4.29563C3.90837 5.24504 3.375 6.5327 3.375 7.87536C3.37538 8.06329 3.38594 8.25107 3.40664 8.43786H0.5625C0.413316 8.43786 0.270242 8.49712 0.164752 8.60261C0.0592632 8.7081 0 8.85118 0 9.00036C0 9.14954 0.0592632 9.29262 0.164752 9.39811C0.270242 9.5036 0.413316 9.56286 0.5625 9.56286H16.3125C16.4617 9.56286 16.6048 9.5036 16.7102 9.39811C16.8157 9.29262 16.875 9.14954 16.875 9.00036C16.875 8.85118 16.8157 8.7081 16.7102 8.60261C16.6048 8.49712 16.4617 8.43786 16.3125 8.43786ZM4.5 7.87536C4.49897 7.33389 4.60963 6.79802 4.82506 6.30125C5.04049 5.80448 5.35607 5.35748 5.75207 4.98819C6.14807 4.6189 6.61598 4.33526 7.12657 4.15498C7.63715 3.97471 8.17942 3.90168 8.71951 3.94046C9.25959 3.97924 9.78587 4.129 10.2655 4.38038C10.745 4.63175 11.1676 4.97934 11.5068 5.40142C11.846 5.8235 12.0944 6.31101 12.2367 6.83346C12.3789 7.35591 12.4119 7.90209 12.3335 8.43786H4.54148C4.51423 8.25159 4.50036 8.06361 4.5 7.87536ZM14.625 11.8129C14.625 11.962 14.5657 12.1051 14.4602 12.2106C14.3548 12.3161 14.2117 12.3754 14.0625 12.3754H2.8125C2.66332 12.3754 2.52024 12.3161 2.41475 12.2106C2.30926 12.1051 2.25 11.962 2.25 11.8129C2.25 11.6637 2.30926 11.5206 2.41475 11.4151C2.52024 11.3096 2.66332 11.2504 2.8125 11.2504H14.0625C14.2117 11.2504 14.3548 11.3096 14.4602 11.4151C14.5657 11.5206 14.625 11.6637 14.625 11.8129ZM4.55906 0.81458C4.4923 0.68106 4.48132 0.526488 4.52852 0.384869C4.57573 0.24325 4.67726 0.126183 4.81078 0.0594232C4.9443 -0.00733676 5.09887 -0.0183218 5.24049 0.0288846C5.38211 0.0760911 5.49918 0.177622 5.56594 0.311142L6.12844 1.43614C6.16149 1.50225 6.1812 1.57423 6.18644 1.64796C6.19168 1.72169 6.18235 1.79573 6.15898 1.86585C6.1356 1.93598 6.09864 2.00081 6.05021 2.05665C6.00179 2.11249 5.94283 2.15824 5.87672 2.1913C5.81061 2.22435 5.73863 2.24407 5.6649 2.24931C5.59117 2.25454 5.51713 2.24521 5.44701 2.22184C5.37689 2.19846 5.31205 2.16151 5.25621 2.11308C5.20037 2.06465 5.15462 2.00569 5.12156 1.93958L4.55906 0.81458ZM0.621563 4.24864C0.654644 4.18256 0.700424 4.12364 0.756286 4.07525C0.812148 4.02687 0.876997 3.98997 0.947127 3.96666C1.01726 3.94335 1.09129 3.93408 1.165 3.9394C1.23872 3.94471 1.31066 3.9645 1.37672 3.99763L2.50172 4.56013C2.63515 4.62689 2.73659 4.74392 2.78373 4.88547C2.83087 5.02702 2.81985 5.1815 2.75309 5.31493C2.68633 5.44836 2.5693 5.5498 2.42774 5.59694C2.28619 5.64408 2.13171 5.63306 1.99828 5.5663L0.873281 5.0038C0.807136 4.97078 0.748148 4.92504 0.699692 4.86921C0.651235 4.81337 0.614261 4.74854 0.590882 4.6784C0.567504 4.60826 0.55818 4.53421 0.563444 4.46047C0.568709 4.38673 0.588458 4.31474 0.621563 4.24864ZM14.1216 5.31458C14.0549 5.18115 14.044 5.02671 14.0912 4.88523C14.1384 4.74376 14.2399 4.62682 14.3733 4.56013L15.4983 3.99763C15.6317 3.93087 15.7862 3.91984 15.9277 3.96698C16.0693 4.01413 16.1863 4.11557 16.2531 4.24899C16.3198 4.38242 16.3309 4.5369 16.2837 4.67846C16.2366 4.82001 16.1351 4.93704 16.0017 5.0038L14.8767 5.5663C14.8106 5.5994 14.7386 5.61915 14.6649 5.62442C14.5912 5.62968 14.5171 5.62036 14.447 5.59698C14.3768 5.5736 14.312 5.53663 14.2562 5.48817C14.2003 5.43971 14.1546 5.38072 14.1216 5.31458ZM10.7466 1.43614L11.3091 0.311142C11.3758 0.177622 11.4929 0.0760911 11.6345 0.0288846C11.7761 -0.0183218 11.9307 -0.00733676 12.0642 0.0594232C12.1977 0.126183 12.2993 0.24325 12.3465 0.384869C12.3937 0.526488 12.3827 0.68106 12.3159 0.81458L11.7534 1.93958C11.6867 2.0731 11.5696 2.17463 11.428 2.22184C11.2864 2.26904 11.1318 2.25806 10.9983 2.1913C10.8648 2.12454 10.7632 2.00747 10.716 1.86585C10.6688 1.72423 10.6798 1.56966 10.7466 1.43614Z" fill="#9D9D9D"/>
</svg>
