<svg width="11" height="15" viewBox="0 0 11 15" fill="none" xmlns="http://www.w3.org/2000/svg">
<path d="M5.4375 4.533H8.8125C9.21032 4.533 9.59186 4.69104 9.87316 4.97234C10.1545 5.25364 10.3125 5.63518 10.3125 6.033V12.5625C10.3125 12.9603 10.1545 13.3419 9.87316 13.6232C9.59186 13.9045 9.21032 14.0625 8.8125 14.0625H5.4375M5.4375 4.533H2.0625C1.66468 4.533 1.28314 4.69104 1.00184 4.97234C0.720535 5.25364 0.5625 5.63518 0.5625 6.033V12.5625C0.5625 12.9603 0.720535 13.3419 1.00184 13.6232C1.28314 13.9045 1.66468 14.0625 2.0625 14.0625H5.4375M5.4375 4.533V14.0625M1.78125 1.7535L3 0.5625L4.21875 1.7535M6.65625 0.5625L7.875 1.7535L9.09375 0.5625" stroke="#9D9D9D" stroke-width="1.125" stroke-linecap="round" stroke-linejoin="round"/>
</svg>
