<svg width="25" height="22" viewBox="0 0 25 22" fill="none" xmlns="http://www.w3.org/2000/svg">
<path d="M4.55664 1.48047C6.54399 0.572247 9.22285 0.807436 11.7793 3.46387L12.5 4.21289L13.2207 3.46387C15.7771 0.807509 18.4559 0.572757 20.4434 1.48145C22.494 2.41916 24 4.65184 24 7.31641C24 10.0431 22.8846 12.1458 21.2803 13.9521C19.6418 15.797 17.5771 17.2508 15.6787 18.7461L15.6777 18.7471C15.0203 19.2665 14.4366 19.7182 13.876 20.0459C13.315 20.3737 12.8713 20.5186 12.5 20.5186C12.129 20.5186 11.6853 20.3739 11.124 20.0459C10.563 19.718 9.97936 19.2657 9.32129 18.7471C7.42319 17.2503 5.35844 15.7972 3.71973 13.9521C2.11524 12.1456 1.00004 10.0426 1 7.31543C1 4.65015 2.50618 2.41773 4.55664 1.48047Z" fill="#30CEA1" stroke="#30CEA1" stroke-width="2"/>
</svg>
