<svg width="12" height="14" viewBox="0 0 12 14" fill="none" xmlns="http://www.w3.org/2000/svg">
<path d="M7.875 6.74741C7.875 6.8966 7.81574 7.03967 7.71025 7.14516C7.60476 7.25065 7.46168 7.30991 7.3125 7.30991C7.16332 7.30991 7.02024 7.25065 6.91475 7.14516C6.80926 7.03967 6.75 6.8966 6.75 6.74741C6.75 6.59823 6.80926 6.45515 6.91475 6.34966C7.02024 6.24417 7.16332 6.18491 7.3125 6.18491C7.46168 6.18491 7.60476 6.24417 7.71025 6.34966C7.81574 6.45515 7.875 6.59823 7.875 6.74741ZM5.17275 0.0109103C5.09117 -0.00539473 5.007 -0.00340294 4.92629 0.0167419C4.84557 0.0368868 4.77033 0.0746834 4.70599 0.127409C4.64164 0.180134 4.58979 0.246475 4.55417 0.321652C4.51855 0.396829 4.50005 0.478972 4.5 0.56216V12.9338C4.50005 13.017 4.51855 13.0991 4.55417 13.1743C4.58979 13.2495 4.64164 13.3158 4.70599 13.3685C4.77033 13.4213 4.84557 13.4591 4.92629 13.4792C5.007 13.4993 5.09117 13.5013 5.17275 13.485L10.7977 12.36C10.9252 12.3346 11.0399 12.2657 11.1224 12.1652C11.2048 12.0647 11.2499 11.9388 11.25 11.8088V1.68716C11.2499 1.55717 11.2048 1.43122 11.1224 1.33072C11.0399 1.23023 10.9252 1.16139 10.7977 1.13591L5.17275 0.0109103ZM5.625 12.2475V1.24841L10.125 2.14841V11.3475L5.625 12.2475ZM3.375 12.3713V11.2463H1.125V2.24966H3.375V1.12466H0.5625C0.413316 1.12466 0.270242 1.18392 0.164753 1.28941C0.0592633 1.3949 0 1.53798 0 1.68716V11.8088C0 11.958 0.0592633 12.101 0.164753 12.2065C0.270242 12.312 0.413316 12.3713 0.5625 12.3713H3.375Z" fill="#9D9D9D"/>
</svg>
