<svg width="48" height="48" viewBox="0 0 48 48" fill="none" xmlns="http://www.w3.org/2000/svg">
<path d="M6.9165 41.0833V18.6187C6.9165 16.1986 7.54289 14.099 8.79567 12.3201C10.0484 10.5412 11.8137 9.19555 14.0915 8.2833C15.629 7.68539 17.2662 7.30842 19.003 7.15239C20.7398 6.99636 22.4054 6.91778 23.9998 6.91664C25.5943 6.9155 27.2599 6.99408 28.9967 7.15239C30.7335 7.31069 32.3707 7.68767 33.9082 8.2833C36.1859 9.19442 37.9512 10.54 39.204 12.3201C40.4568 14.1002 41.0832 16.1997 41.0832 18.6187V41.0833H6.9165ZM19.0457 37.6666L21.6082 35.1041H26.3061L28.8686 37.6666H31.6873V36.8125L29.8936 35.0187C31.1464 34.8479 32.1856 34.2858 33.0113 33.3326C33.837 32.3793 34.2498 31.2615 34.2498 29.9791V18.875C34.2498 16.6541 33.2533 15.2448 31.2603 14.6468C29.2672 14.0489 26.8471 13.75 23.9998 13.75C21.4089 13.75 19.0531 14.0489 16.9325 14.6468C14.8119 15.2448 13.751 16.6541 13.7498 18.875V29.9791C13.7498 31.2604 14.1627 32.3782 14.9884 33.3326C15.8141 34.287 16.8533 34.849 18.1061 35.0187L16.3123 36.8125V37.6666H19.0457ZM16.3123 25.7083V18.875H31.6873V25.7083H16.3123ZM29.979 31.6875C29.495 31.6875 29.0895 31.5235 28.7627 31.1955C28.4358 30.8675 28.2718 30.462 28.2707 29.9791C28.2695 29.4962 28.4335 29.0908 28.7627 28.7628C29.0918 28.4348 29.4973 28.2708 29.979 28.2708C30.4608 28.2708 30.8668 28.4348 31.197 28.7628C31.5273 29.0908 31.6908 29.4962 31.6873 29.9791C31.6839 30.462 31.5199 30.868 31.1953 31.1972C30.8708 31.5263 30.4653 31.6897 29.979 31.6875ZM18.0207 31.6875C17.5366 31.6875 17.1312 31.5235 16.8043 31.1955C16.4775 30.8675 16.3135 30.462 16.3123 29.9791C16.3112 29.4962 16.4752 29.0908 16.8043 28.7628C17.1335 28.4348 17.5389 28.2708 18.0207 28.2708C18.5024 28.2708 18.9084 28.4348 19.2387 28.7628C19.569 29.0908 19.7324 29.4962 19.729 29.9791C19.7256 30.462 19.5616 30.868 19.237 31.1972C18.9124 31.5263 18.507 31.6897 18.0207 31.6875Z" fill="#7CB7CD"/>
</svg>
