<svg width="48" height="48" viewBox="0 0 48 48" fill="none" xmlns="http://www.w3.org/2000/svg">
<path d="M35.3056 16.2476L14.4383 7.06189C14.2317 6.97061 14.0091 6.9212 13.7833 6.91651C13.5575 6.91181 13.3331 6.95194 13.1229 7.03455C12.9129 7.11755 12.7214 7.24136 12.5595 7.39883C12.3977 7.55629 12.2686 7.74428 12.1799 7.95193L7.05488 19.9103C6.87641 20.3266 6.87064 20.7969 7.03883 21.2175C7.20703 21.6381 7.53541 21.9748 7.95175 22.1533L19.8366 27.2458L17.7183 32.5417H10.3332V27.4167H6.9165V41.0833H10.3332V35.9583H17.7183C19.1243 35.9583 20.3696 35.1144 20.889 33.8093L22.9765 28.592L28.8173 31.0947C29.2318 31.2729 29.7 31.2798 30.1196 31.114C30.5392 30.9482 30.8762 30.6232 31.057 30.2098L36.182 18.4958C36.3633 18.0814 36.3729 17.6119 36.2086 17.1905C36.0443 16.769 35.7195 16.43 35.3056 16.2476ZM37.5469 31.4688L34.3728 30.2013L37.7861 21.6596L40.9602 22.9255L37.5469 31.4688Z" fill="#F48787"/>
</svg>
